<svg xmlns="http://www.w3.org/2000/svg" xmlns:xlink="http://www.w3.org/1999/xlink" width="500" zoomAndPan="magnify" viewBox="0 0 375 374.999991" height="500" preserveAspectRatio="xMidYMid meet" version="1.0"><defs><g/><clipPath id="fb5c271e9e"><path d="M 87 123 L 214 123 L 214 305 L 87 305 Z M 87 123 " clip-rule="nonzero"/></clipPath><clipPath id="f05e394361"><path d="M 169.476562 112.300781 L 226.5 283.820312 L 131.84375 315.289062 L 74.820312 143.769531 Z M 169.476562 112.300781 " clip-rule="nonzero"/></clipPath><clipPath id="d52195e889"><path d="M 164.492188 113.957031 L 79.863281 142.09375 C 77.109375 143.007812 75.621094 145.980469 76.535156 148.734375 L 130.195312 310.136719 C 131.113281 312.886719 134.085938 314.378906 136.835938 313.460938 L 221.464844 285.324219 C 224.21875 284.410156 225.707031 281.4375 224.792969 278.6875 L 171.132812 117.28125 C 170.214844 114.53125 167.246094 113.042969 164.492188 113.957031 Z M 164.492188 113.957031 " clip-rule="nonzero"/></clipPath><clipPath id="58aa612f25"><path d="M 169.476562 112.300781 L 226.5 283.820312 L 131.84375 315.289062 L 74.820312 143.769531 Z M 169.476562 112.300781 " clip-rule="nonzero"/></clipPath><clipPath id="b68d2d2670"><path d="M 169.476562 112.300781 L 226.5 283.820312 L 131.84375 315.289062 L 74.820312 143.769531 Z M 169.476562 112.300781 " clip-rule="nonzero"/></clipPath><clipPath id="132126c5f1"><path d="M 76 113 L 226 113 L 226 314 L 76 314 Z M 76 113 " clip-rule="nonzero"/></clipPath><clipPath id="6bc453b6a6"><path d="M 169.476562 112.300781 L 226.5 283.820312 L 131.84375 315.289062 L 74.820312 143.769531 Z M 169.476562 112.300781 " clip-rule="nonzero"/></clipPath><clipPath id="f605e68a57"><path d="M 164.492188 113.957031 L 79.863281 142.09375 C 77.109375 143.007812 75.621094 145.980469 76.535156 148.734375 L 130.195312 310.136719 C 131.113281 312.886719 134.085938 314.378906 136.835938 313.460938 L 221.464844 285.324219 C 224.21875 284.410156 225.707031 281.4375 224.792969 278.6875 L 171.132812 117.28125 C 170.214844 114.53125 167.246094 113.042969 164.492188 113.957031 Z M 164.492188 113.957031 " clip-rule="nonzero"/></clipPath><clipPath id="f37d58895b"><path d="M 169.476562 112.300781 L 226.5 283.820312 L 131.84375 315.289062 L 74.820312 143.769531 Z M 169.476562 112.300781 " clip-rule="nonzero"/></clipPath><clipPath id="aee5608843"><path d="M 169.476562 112.300781 L 226.5 283.820312 L 131.84375 315.289062 L 74.820312 143.769531 Z M 169.476562 112.300781 " clip-rule="nonzero"/></clipPath><clipPath id="0f164fb944"><path d="M 98 100 L 225 100 L 225 282 L 98 282 Z M 98 100 " clip-rule="nonzero"/></clipPath><clipPath id="fb83a67a4c"><path d="M 180.492188 89.234375 L 237.515625 260.753906 L 142.863281 292.222656 L 85.835938 120.703125 Z M 180.492188 89.234375 " clip-rule="nonzero"/></clipPath><clipPath id="35a6cdc8cd"><path d="M 175.511719 90.890625 L 90.878906 119.027344 C 88.128906 119.941406 86.640625 122.914062 87.554688 125.664062 L 141.214844 287.070312 C 142.128906 289.820312 145.101562 291.308594 147.855469 290.394531 L 232.484375 262.257812 C 235.238281 261.34375 236.726562 258.371094 235.8125 255.621094 L 182.148438 94.214844 C 181.234375 91.464844 178.261719 89.976562 175.511719 90.890625 Z M 175.511719 90.890625 " clip-rule="nonzero"/></clipPath><clipPath id="fdeea34494"><path d="M 180.019531 90.183594 L 236.570312 260.277344 L 143.335938 291.273438 L 86.785156 121.179688 Z M 180.019531 90.183594 " clip-rule="nonzero"/></clipPath><clipPath id="2ad3c1d657"><path d="M 181.578125 95.351562 L 234.671875 255.050781 C 235.585938 257.800781 234.097656 260.773438 231.347656 261.6875 L 148.425781 289.257812 C 145.671875 290.171875 142.699219 288.683594 141.785156 285.929688 L 88.691406 126.234375 C 87.777344 123.484375 89.265625 120.511719 92.019531 119.597656 L 174.941406 92.027344 C 177.691406 91.113281 180.664062 92.601562 181.578125 95.351562 Z M 181.578125 95.351562 " clip-rule="nonzero"/></clipPath><clipPath id="76872a63e3"><path d="M 180.492188 89.234375 L 237.515625 260.753906 L 142.863281 292.222656 L 85.835938 120.703125 Z M 180.492188 89.234375 " clip-rule="nonzero"/></clipPath><clipPath id="b8a62b50c6"><path d="M 88 91 L 235 91 L 235 290 L 88 290 Z M 88 91 " clip-rule="nonzero"/></clipPath><clipPath id="49a0582afc"><path d="M 180.492188 89.234375 L 237.515625 260.753906 L 142.863281 292.222656 L 85.835938 120.703125 Z M 180.492188 89.234375 " clip-rule="nonzero"/></clipPath><clipPath id="212c5414a9"><path d="M 175.511719 90.890625 L 90.878906 119.027344 C 88.128906 119.941406 86.640625 122.914062 87.554688 125.664062 L 141.214844 287.070312 C 142.128906 289.820312 145.101562 291.308594 147.855469 290.394531 L 232.484375 262.257812 C 235.238281 261.34375 236.726562 258.371094 235.8125 255.621094 L 182.148438 94.214844 C 181.234375 91.464844 178.261719 89.976562 175.511719 90.890625 Z M 175.511719 90.890625 " clip-rule="nonzero"/></clipPath><clipPath id="4e478755d7"><path d="M 180.019531 90.183594 L 236.570312 260.277344 L 143.335938 291.273438 L 86.785156 121.179688 Z M 180.019531 90.183594 " clip-rule="nonzero"/></clipPath><clipPath id="a506f638c7"><path d="M 181.578125 95.351562 L 234.671875 255.050781 C 235.585938 257.800781 234.097656 260.773438 231.347656 261.6875 L 148.425781 289.257812 C 145.671875 290.171875 142.699219 288.683594 141.785156 285.929688 L 88.691406 126.234375 C 87.777344 123.484375 89.265625 120.511719 92.019531 119.597656 L 174.941406 92.027344 C 177.691406 91.113281 180.664062 92.601562 181.578125 95.351562 Z M 181.578125 95.351562 " clip-rule="nonzero"/></clipPath><clipPath id="5819e67d0c"><path d="M 180.492188 89.234375 L 237.515625 260.753906 L 142.863281 292.222656 L 85.835938 120.703125 Z M 180.492188 89.234375 " clip-rule="nonzero"/></clipPath><clipPath id="dd933df2f9"><path d="M 87 90 L 237 90 L 237 291 L 87 291 Z M 87 90 " clip-rule="nonzero"/></clipPath><clipPath id="1e40934c58"><path d="M 180.492188 89.234375 L 237.515625 260.753906 L 142.863281 292.222656 L 85.835938 120.703125 Z M 180.492188 89.234375 " clip-rule="nonzero"/></clipPath><clipPath id="69c08c5bcf"><path d="M 175.511719 90.890625 L 90.878906 119.027344 C 88.128906 119.941406 86.640625 122.914062 87.554688 125.664062 L 141.214844 287.070312 C 142.128906 289.820312 145.101562 291.308594 147.855469 290.394531 L 232.484375 262.257812 C 235.238281 261.34375 236.726562 258.371094 235.8125 255.621094 L 182.148438 94.214844 C 181.234375 91.464844 178.261719 89.976562 175.511719 90.890625 Z M 175.511719 90.890625 " clip-rule="nonzero"/></clipPath><clipPath id="fb4d7e9dc3"><path d="M 180.492188 89.234375 L 237.515625 260.753906 L 142.863281 292.222656 L 85.835938 120.703125 Z M 180.492188 89.234375 " clip-rule="nonzero"/></clipPath><clipPath id="c10b8852ca"><path d="M 180.492188 89.234375 L 237.515625 260.75 L 142.867188 292.214844 L 85.84375 120.703125 Z M 180.492188 89.234375 " clip-rule="nonzero"/></clipPath><clipPath id="4ea1478dbf"><path d="M 175.511719 90.890625 L 90.886719 119.023438 C 88.132812 119.941406 86.644531 122.910156 87.558594 125.664062 L 141.21875 287.0625 C 142.136719 289.8125 145.105469 291.304688 147.859375 290.386719 L 232.484375 262.253906 C 235.234375 261.339844 236.722656 258.367188 235.808594 255.613281 L 182.148438 94.214844 C 181.234375 91.464844 178.261719 89.976562 175.511719 90.890625 Z M 175.511719 90.890625 " clip-rule="nonzero"/></clipPath><clipPath id="7fe1e6451a"><path d="M 130 113 L 148 113 L 148 126 L 130 126 Z M 130 113 " clip-rule="nonzero"/></clipPath><clipPath id="7d4ca1fcd9"><path d="M 130.78125 117.882812 L 145.175781 113.667969 L 147.28125 120.863281 L 132.886719 125.082031 Z M 130.78125 117.882812 " clip-rule="nonzero"/></clipPath><clipPath id="18bb54507a"><path d="M 48.09375 142.109375 L 145.261719 113.640625 L 147.371094 120.839844 L 50.203125 149.308594 Z M 48.09375 142.109375 " clip-rule="nonzero"/></clipPath><clipPath id="93ef870df5"><path d="M 120 141 L 199 141 L 199 219 L 120 219 Z M 120 141 " clip-rule="nonzero"/></clipPath><clipPath id="f54dc5b00a"><path d="M 109.933594 156.105469 L 183.53125 130.269531 L 209.367188 203.863281 L 135.773438 229.703125 Z M 109.933594 156.105469 " clip-rule="nonzero"/></clipPath><clipPath id="3d6db8e594"><path d="M 109.933594 156.105469 L 183.53125 130.269531 L 209.367188 203.863281 L 135.773438 229.703125 Z M 109.933594 156.105469 " clip-rule="nonzero"/></clipPath><clipPath id="c1eadd9384"><path d="M 188.441406 66 L 244.394531 66 L 244.394531 121.894531 L 188.441406 121.894531 Z M 188.441406 66 " clip-rule="nonzero"/></clipPath><clipPath id="b5e58f1763"><path d="M 218.148438 67.019531 L 220.390625 70.203125 C 221.390625 71.621094 223.261719 72.125 224.839844 71.394531 L 228.371094 69.757812 C 228.996094 69.46875 229.722656 69.503906 230.316406 69.847656 C 230.914062 70.191406 231.304688 70.800781 231.363281 71.488281 L 231.714844 75.363281 C 231.871094 77.09375 233.242188 78.464844 234.972656 78.621094 L 238.851562 78.972656 C 239.535156 79.035156 240.148438 79.425781 240.492188 80.019531 C 240.835938 80.617188 240.867188 81.339844 240.578125 81.964844 L 238.941406 85.5 C 238.214844 87.074219 238.714844 88.949219 240.136719 89.949219 L 243.320312 92.191406 C 243.878906 92.585938 244.214844 93.230469 244.214844 93.917969 C 244.214844 94.605469 243.878906 95.25 243.320312 95.648438 L 240.136719 97.890625 C 238.714844 98.890625 238.214844 100.761719 238.941406 102.339844 L 240.578125 105.871094 C 240.867188 106.496094 240.835938 107.222656 240.492188 107.816406 C 240.148438 108.414062 239.535156 108.804688 238.851562 108.863281 L 234.972656 109.214844 C 233.242188 109.371094 231.871094 110.742188 231.714844 112.472656 L 231.363281 116.351562 C 231.304688 117.035156 230.914062 117.648438 230.316406 117.992188 C 229.722656 118.335938 228.996094 118.367188 228.371094 118.078125 L 224.839844 116.441406 C 223.261719 115.714844 221.390625 116.214844 220.390625 117.636719 L 218.148438 120.820312 C 217.75 121.378906 217.105469 121.714844 216.417969 121.714844 C 215.730469 121.714844 215.085938 121.378906 214.691406 120.820312 L 212.449219 117.636719 C 211.449219 116.214844 209.574219 115.714844 208 116.441406 L 204.464844 118.078125 C 203.839844 118.367188 203.117188 118.335938 202.519531 117.992188 C 201.925781 117.648438 201.535156 117.035156 201.472656 116.351562 L 201.121094 112.472656 C 200.964844 110.742188 199.59375 109.371094 197.863281 109.214844 L 193.988281 108.863281 C 193.300781 108.804688 192.691406 108.414062 192.347656 107.816406 C 192.003906 107.222656 191.972656 106.496094 192.257812 105.871094 L 193.894531 102.339844 C 194.625 100.761719 194.121094 98.890625 192.703125 97.890625 L 189.519531 95.648438 C 188.957031 95.25 188.625 94.605469 188.625 93.917969 C 188.625 93.230469 188.957031 92.585938 189.519531 92.191406 L 192.703125 89.949219 C 194.121094 88.949219 194.625 87.074219 193.894531 85.5 L 192.257812 81.964844 C 191.972656 81.339844 192.003906 80.617188 192.347656 80.019531 C 192.691406 79.425781 193.300781 79.035156 193.988281 78.972656 L 197.863281 78.621094 C 199.59375 78.464844 200.964844 77.09375 201.121094 75.363281 L 201.472656 71.488281 C 201.535156 70.800781 201.925781 70.191406 202.519531 69.847656 C 203.117188 69.503906 203.839844 69.46875 204.464844 69.757812 L 208 71.394531 C 209.574219 72.125 211.449219 71.621094 212.449219 70.203125 L 214.691406 67.019531 C 215.085938 66.457031 215.730469 66.125 216.417969 66.125 C 217.105469 66.125 217.75 66.457031 218.148438 67.019531 Z M 218.148438 67.019531 " clip-rule="nonzero"/></clipPath><clipPath id="e7be81235c"><path d="M 188 66 L 244.847656 66 L 244.847656 122 L 188 122 Z M 188 66 " clip-rule="nonzero"/></clipPath><clipPath id="74c303e3df"><path d="M 218.144531 67.019531 L 220.386719 70.203125 C 221.386719 71.621094 223.257812 72.125 224.835938 71.394531 L 228.367188 69.757812 C 228.992188 69.46875 229.71875 69.503906 230.3125 69.847656 C 230.910156 70.191406 231.300781 70.800781 231.359375 71.488281 L 231.710938 75.363281 C 231.867188 77.09375 233.238281 78.464844 234.96875 78.621094 L 238.847656 78.972656 C 239.53125 79.035156 240.144531 79.425781 240.488281 80.019531 C 240.828125 80.613281 240.863281 81.339844 240.574219 81.964844 L 238.9375 85.496094 C 238.207031 87.074219 238.710938 88.945312 240.132812 89.945312 L 243.3125 92.1875 C 243.875 92.585938 244.210938 93.230469 244.210938 93.917969 C 244.210938 94.605469 243.875 95.25 243.3125 95.644531 L 240.132812 97.886719 C 238.710938 98.886719 238.207031 100.757812 238.9375 102.335938 L 240.574219 105.867188 C 240.863281 106.492188 240.828125 107.21875 240.488281 107.8125 C 240.144531 108.410156 239.53125 108.800781 238.847656 108.859375 L 234.96875 109.210938 C 233.238281 109.367188 231.867188 110.738281 231.710938 112.46875 L 231.359375 116.347656 C 231.300781 117.03125 230.910156 117.644531 230.3125 117.984375 C 229.71875 118.328125 228.992188 118.363281 228.367188 118.074219 L 224.835938 116.4375 C 223.257812 115.707031 221.386719 116.210938 220.386719 117.632812 L 218.144531 120.8125 C 217.75 121.375 217.105469 121.710938 216.417969 121.710938 C 215.730469 121.710938 215.085938 121.375 214.6875 120.8125 L 212.445312 117.632812 C 211.445312 116.210938 209.574219 115.707031 207.996094 116.4375 L 204.464844 118.074219 C 203.839844 118.363281 203.113281 118.328125 202.519531 117.984375 C 201.925781 117.644531 201.535156 117.03125 201.472656 116.347656 L 201.121094 112.46875 C 200.964844 110.738281 199.59375 109.367188 197.863281 109.210938 L 193.988281 108.859375 C 193.300781 108.800781 192.691406 108.410156 192.347656 107.8125 C 192.003906 107.21875 191.96875 106.492188 192.257812 105.867188 L 193.894531 102.335938 C 194.625 100.757812 194.121094 98.886719 192.703125 97.886719 L 189.519531 95.644531 C 188.957031 95.25 188.625 94.605469 188.625 93.917969 C 188.625 93.230469 188.957031 92.585938 189.519531 92.1875 L 192.703125 89.945312 C 194.121094 88.945312 194.625 87.074219 193.894531 85.496094 L 192.257812 81.964844 C 191.96875 81.339844 192.003906 80.613281 192.347656 80.019531 C 192.691406 79.425781 193.300781 79.035156 193.988281 78.972656 L 197.863281 78.621094 C 199.59375 78.464844 200.964844 77.09375 201.121094 75.363281 L 201.472656 71.488281 C 201.535156 70.800781 201.925781 70.191406 202.519531 69.847656 C 203.113281 69.503906 203.839844 69.46875 204.464844 69.757812 L 207.996094 71.394531 C 209.574219 72.125 211.445312 71.621094 212.445312 70.203125 L 214.6875 67.019531 C 215.085938 66.457031 215.730469 66.121094 216.417969 66.121094 C 217.105469 66.121094 217.75 66.457031 218.144531 67.019531 Z M 218.144531 67.019531 " clip-rule="nonzero"/></clipPath><clipPath id="cd94642d33"><path d="M 198.476562 61.257812 L 254.429688 61.257812 L 254.429688 117.210938 L 198.476562 117.210938 Z M 198.476562 61.257812 " clip-rule="nonzero"/></clipPath><clipPath id="58717d5c14"><path d="M 228.179688 62.335938 L 230.421875 65.515625 C 231.421875 66.9375 233.296875 67.4375 234.875 66.710938 L 238.40625 65.074219 C 239.03125 64.785156 239.753906 64.816406 240.351562 65.160156 C 240.945312 65.503906 241.335938 66.117188 241.398438 66.800781 L 241.75 70.679688 C 241.90625 72.410156 243.277344 73.78125 245.007812 73.9375 L 248.886719 74.289062 C 249.570312 74.347656 250.179688 74.742188 250.523438 75.335938 C 250.867188 75.929688 250.902344 76.65625 250.613281 77.28125 L 248.976562 80.8125 C 248.246094 82.390625 248.75 84.261719 250.167969 85.261719 L 253.351562 87.503906 C 253.914062 87.902344 254.25 88.546875 254.25 89.234375 C 254.25 89.921875 253.914062 90.566406 253.351562 90.960938 L 250.167969 93.203125 C 248.75 94.203125 248.246094 96.078125 248.976562 97.652344 L 250.613281 101.1875 C 250.902344 101.8125 250.867188 102.535156 250.523438 103.132812 C 250.179688 103.726562 249.570312 104.117188 248.886719 104.179688 L 245.007812 104.53125 C 243.277344 104.6875 241.90625 106.058594 241.75 107.789062 L 241.398438 111.664062 C 241.335938 112.351562 240.945312 112.960938 240.351562 113.304688 C 239.753906 113.648438 239.03125 113.683594 238.40625 113.394531 L 234.875 111.757812 C 233.296875 111.027344 231.421875 111.53125 230.421875 112.949219 L 228.179688 116.132812 C 227.785156 116.695312 227.140625 117.03125 226.453125 117.03125 C 225.765625 117.03125 225.121094 116.695312 224.726562 116.132812 L 222.484375 112.949219 C 221.484375 111.53125 219.609375 111.027344 218.03125 111.757812 L 214.5 113.394531 C 213.875 113.683594 213.152344 113.648438 212.554688 113.304688 C 211.960938 112.960938 211.570312 112.351562 211.507812 111.664062 L 211.15625 107.789062 C 211 106.058594 209.628906 104.6875 207.898438 104.53125 L 204.019531 104.179688 C 203.335938 104.117188 202.726562 103.726562 202.382812 103.132812 C 202.039062 102.535156 202.003906 101.8125 202.292969 101.1875 L 203.929688 97.652344 C 204.660156 96.078125 204.15625 94.203125 202.738281 93.203125 L 199.554688 90.960938 C 198.992188 90.566406 198.65625 89.921875 198.65625 89.234375 C 198.65625 88.546875 198.992188 87.902344 199.554688 87.503906 L 202.738281 85.261719 C 204.15625 84.261719 204.660156 82.390625 203.929688 80.8125 L 202.292969 77.28125 C 202.003906 76.65625 202.039062 75.929688 202.382812 75.335938 C 202.726562 74.742188 203.335938 74.347656 204.019531 74.289062 L 207.898438 73.9375 C 209.628906 73.78125 211 72.410156 211.15625 70.679688 L 211.507812 66.800781 C 211.570312 66.117188 211.960938 65.503906 212.554688 65.160156 C 213.152344 64.816406 213.875 64.785156 214.5 65.074219 L 218.03125 66.710938 C 219.609375 67.4375 221.484375 66.9375 222.484375 65.515625 L 224.726562 62.335938 C 225.121094 61.773438 225.765625 61.4375 226.453125 61.4375 C 227.140625 61.4375 227.785156 61.773438 228.179688 62.335938 Z M 228.179688 62.335938 " clip-rule="nonzero"/></clipPath><clipPath id="e532dd2e03"><path d="M 198.019531 61 L 254.882812 61 L 254.882812 117.664062 L 198.019531 117.664062 Z M 198.019531 61 " clip-rule="nonzero"/></clipPath><clipPath id="1d87c309b4"><path d="M 228.179688 62.332031 L 230.421875 65.515625 C 231.421875 66.9375 233.292969 67.4375 234.871094 66.707031 L 238.402344 65.074219 C 239.027344 64.785156 239.753906 64.816406 240.347656 65.160156 C 240.941406 65.503906 241.332031 66.117188 241.394531 66.800781 L 241.746094 70.679688 C 241.902344 72.410156 243.273438 73.78125 245.003906 73.9375 L 248.878906 74.285156 C 249.566406 74.347656 250.175781 74.738281 250.519531 75.335938 C 250.863281 75.929688 250.898438 76.65625 250.609375 77.277344 L 248.972656 80.8125 C 248.242188 82.386719 248.746094 84.261719 250.164062 85.261719 L 253.347656 87.503906 C 253.910156 87.898438 254.242188 88.542969 254.242188 89.230469 C 254.242188 89.917969 253.910156 90.5625 253.347656 90.957031 L 250.164062 93.199219 C 248.746094 94.203125 248.242188 96.074219 248.972656 97.652344 L 250.609375 101.183594 C 250.898438 101.808594 250.863281 102.53125 250.519531 103.128906 C 250.175781 103.722656 249.566406 104.113281 248.878906 104.175781 L 245.003906 104.527344 C 243.273438 104.683594 241.902344 106.054688 241.746094 107.785156 L 241.394531 111.660156 C 241.332031 112.34375 240.941406 112.957031 240.347656 113.300781 C 239.753906 113.644531 239.027344 113.675781 238.402344 113.386719 L 234.871094 111.753906 C 233.292969 111.023438 231.421875 111.523438 230.421875 112.945312 L 228.179688 116.128906 C 227.78125 116.691406 227.136719 117.023438 226.449219 117.023438 C 225.761719 117.023438 225.117188 116.691406 224.722656 116.128906 L 222.480469 112.945312 C 221.480469 111.523438 219.609375 111.023438 218.03125 111.753906 L 214.496094 113.386719 C 213.875 113.675781 213.148438 113.644531 212.554688 113.300781 C 211.957031 112.957031 211.566406 112.34375 211.503906 111.660156 L 211.15625 107.785156 C 211 106.054688 209.628906 104.683594 207.898438 104.527344 L 204.019531 104.175781 C 203.335938 104.113281 202.722656 103.722656 202.378906 103.128906 C 202.035156 102.53125 202.003906 101.808594 202.292969 101.183594 L 203.929688 97.652344 C 204.65625 96.074219 204.15625 94.203125 202.734375 93.199219 L 199.554688 90.957031 C 198.992188 90.5625 198.65625 89.917969 198.65625 89.230469 C 198.65625 88.542969 198.992188 87.898438 199.554688 87.503906 L 202.734375 85.261719 C 204.15625 84.261719 204.65625 82.386719 203.929688 80.8125 L 202.292969 77.277344 C 202.003906 76.65625 202.035156 75.929688 202.378906 75.335938 C 202.722656 74.738281 203.335938 74.347656 204.019531 74.285156 L 207.898438 73.9375 C 209.628906 73.78125 211 72.410156 211.15625 70.679688 L 211.503906 66.800781 C 211.566406 66.117188 211.957031 65.503906 212.554688 65.160156 C 213.148438 64.816406 213.875 64.785156 214.496094 65.074219 L 218.03125 66.707031 C 219.609375 67.4375 221.480469 66.9375 222.480469 65.515625 L 224.722656 62.332031 C 225.117188 61.773438 225.761719 61.4375 226.449219 61.4375 C 227.136719 61.4375 227.78125 61.773438 228.179688 62.332031 Z M 228.179688 62.332031 " clip-rule="nonzero"/></clipPath><clipPath id="61b93ae06a"><path d="M 211 125.582031 L 266.796875 125.582031 L 266.796875 181.535156 L 211 181.535156 Z M 211 125.582031 " clip-rule="nonzero"/></clipPath><clipPath id="44416091d8"><path d="M 240.546875 126.660156 L 242.789062 129.84375 C 243.789062 131.261719 245.664062 131.765625 247.238281 131.035156 L 250.773438 129.398438 C 251.398438 129.109375 252.121094 129.144531 252.71875 129.488281 C 253.3125 129.832031 253.703125 130.441406 253.765625 131.125 L 254.117188 135.003906 C 254.273438 136.734375 255.644531 138.105469 257.375 138.261719 L 261.25 138.613281 C 261.9375 138.675781 262.546875 139.066406 262.890625 139.660156 C 263.234375 140.257812 263.265625 140.980469 262.980469 141.605469 L 261.34375 145.136719 C 260.613281 146.714844 261.117188 148.589844 262.535156 149.589844 L 265.71875 151.832031 C 266.28125 152.226562 266.613281 152.871094 266.613281 153.558594 C 266.613281 154.246094 266.28125 154.890625 265.71875 155.285156 L 262.535156 157.527344 C 261.117188 158.527344 260.613281 160.402344 261.34375 161.980469 L 262.980469 165.511719 C 263.265625 166.136719 263.234375 166.859375 262.890625 167.457031 C 262.546875 168.050781 261.9375 168.441406 261.25 168.503906 L 257.375 168.855469 C 255.644531 169.011719 254.273438 170.382812 254.117188 172.113281 L 253.765625 175.992188 C 253.703125 176.675781 253.3125 177.285156 252.71875 177.628906 C 252.121094 177.972656 251.398438 178.007812 250.773438 177.71875 L 247.238281 176.082031 C 245.664062 175.351562 243.789062 175.855469 242.789062 177.273438 L 240.546875 180.457031 C 240.152344 181.019531 239.507812 181.355469 238.820312 181.355469 C 238.132812 181.355469 237.488281 181.019531 237.089844 180.457031 L 234.847656 177.273438 C 233.847656 175.855469 231.976562 175.351562 230.398438 176.082031 L 226.867188 177.71875 C 226.242188 178.007812 225.515625 177.972656 224.921875 177.628906 C 224.324219 177.285156 223.933594 176.675781 223.875 175.992188 L 223.523438 172.113281 C 223.367188 170.382812 221.996094 169.011719 220.265625 168.855469 L 216.386719 168.503906 C 215.703125 168.441406 215.089844 168.050781 214.746094 167.457031 C 214.402344 166.859375 214.371094 166.136719 214.660156 165.511719 L 216.296875 161.980469 C 217.023438 160.402344 216.523438 158.527344 215.101562 157.527344 L 211.917969 155.285156 C 211.359375 154.890625 211.023438 154.246094 211.023438 153.558594 C 211.023438 152.871094 211.359375 152.226562 211.917969 151.832031 L 215.101562 149.589844 C 216.523438 148.589844 217.023438 146.714844 216.296875 145.136719 L 214.660156 141.605469 C 214.371094 140.980469 214.402344 140.257812 214.746094 139.660156 C 215.089844 139.066406 215.703125 138.675781 216.386719 138.613281 L 220.265625 138.261719 C 221.996094 138.105469 223.367188 136.734375 223.523438 135.003906 L 223.875 131.125 C 223.933594 130.441406 224.324219 129.832031 224.921875 129.488281 C 225.515625 129.144531 226.242188 129.109375 226.867188 129.398438 L 230.398438 131.035156 C 231.976562 131.765625 233.847656 131.261719 234.847656 129.84375 L 237.089844 126.660156 C 237.488281 126.097656 238.132812 125.761719 238.820312 125.761719 C 239.507812 125.761719 240.152344 126.097656 240.546875 126.660156 Z M 240.546875 126.660156 " clip-rule="nonzero"/></clipPath><clipPath id="f71d04b5c2"><path d="M 211 125.125 L 267 125.125 L 267 181.988281 L 211 181.988281 Z M 211 125.125 " clip-rule="nonzero"/></clipPath><clipPath id="02f90d091c"><path d="M 240.542969 126.660156 L 242.785156 129.839844 C 243.785156 131.261719 245.660156 131.761719 247.234375 131.035156 L 250.769531 129.398438 C 251.394531 129.109375 252.117188 129.144531 252.714844 129.484375 C 253.308594 129.828125 253.699219 130.441406 253.761719 131.125 L 254.113281 135.003906 C 254.269531 136.734375 255.640625 138.105469 257.371094 138.261719 L 261.246094 138.613281 C 261.929688 138.671875 262.542969 139.0625 262.886719 139.660156 C 263.230469 140.253906 263.261719 140.980469 262.972656 141.605469 L 261.339844 145.136719 C 260.609375 146.714844 261.109375 148.585938 262.53125 149.585938 L 265.714844 151.828125 C 266.277344 152.222656 266.609375 152.867188 266.609375 153.554688 C 266.609375 154.242188 266.277344 154.886719 265.714844 155.285156 L 262.53125 157.527344 C 261.109375 158.527344 260.609375 160.398438 261.339844 161.976562 L 262.972656 165.507812 C 263.261719 166.132812 263.230469 166.859375 262.886719 167.453125 C 262.542969 168.046875 261.929688 168.4375 261.246094 168.5 L 257.371094 168.851562 C 255.640625 169.007812 254.269531 170.378906 254.113281 172.109375 L 253.761719 175.984375 C 253.699219 176.671875 253.308594 177.28125 252.714844 177.625 C 252.117188 177.96875 251.394531 178.003906 250.769531 177.714844 L 247.234375 176.078125 C 245.660156 175.347656 243.785156 175.851562 242.785156 177.269531 L 240.542969 180.453125 C 240.148438 181.015625 239.503906 181.347656 238.816406 181.347656 C 238.128906 181.347656 237.484375 181.015625 237.089844 180.453125 L 234.847656 177.269531 C 233.847656 175.851562 231.972656 175.347656 230.398438 176.078125 L 226.863281 177.714844 C 226.242188 178.003906 225.515625 177.96875 224.921875 177.625 C 224.324219 177.28125 223.933594 176.671875 223.871094 175.984375 L 223.523438 172.109375 C 223.367188 170.378906 221.996094 169.007812 220.265625 168.851562 L 216.386719 168.5 C 215.703125 168.4375 215.089844 168.046875 214.746094 167.453125 C 214.402344 166.859375 214.371094 166.132812 214.660156 165.507812 L 216.292969 161.976562 C 217.023438 160.398438 216.523438 158.527344 215.101562 157.527344 L 211.917969 155.285156 C 211.359375 154.886719 211.023438 154.242188 211.023438 153.554688 C 211.023438 152.867188 211.359375 152.222656 211.917969 151.828125 L 215.101562 149.585938 C 216.523438 148.585938 217.023438 146.714844 216.292969 145.136719 L 214.660156 141.605469 C 214.371094 140.980469 214.402344 140.253906 214.746094 139.660156 C 215.089844 139.0625 215.703125 138.671875 216.386719 138.613281 L 220.265625 138.261719 C 221.996094 138.105469 223.367188 136.734375 223.523438 135.003906 L 223.871094 131.125 C 223.933594 130.441406 224.324219 129.828125 224.921875 129.484375 C 225.515625 129.144531 226.242188 129.109375 226.863281 129.398438 L 230.398438 131.035156 C 231.972656 131.761719 233.847656 131.261719 234.847656 129.839844 L 237.089844 126.660156 C 237.484375 126.097656 238.128906 125.761719 238.816406 125.761719 C 239.503906 125.761719 240.148438 126.097656 240.542969 126.660156 Z M 240.542969 126.660156 " clip-rule="nonzero"/></clipPath><clipPath id="f02481f7c7"><path d="M 221 121 L 276.828125 121 L 276.828125 176.847656 L 221 176.847656 Z M 221 121 " clip-rule="nonzero"/></clipPath><clipPath id="f1757a7657"><path d="M 250.582031 121.972656 L 252.824219 125.15625 C 253.824219 126.578125 255.695312 127.078125 257.273438 126.347656 L 260.808594 124.714844 C 261.429688 124.425781 262.15625 124.457031 262.75 124.800781 C 263.347656 125.144531 263.738281 125.757812 263.800781 126.441406 L 264.148438 130.320312 C 264.304688 132.050781 265.675781 133.421875 267.40625 133.578125 L 271.285156 133.925781 C 271.96875 133.988281 272.582031 134.378906 272.925781 134.976562 C 273.269531 135.570312 273.300781 136.296875 273.011719 136.917969 L 271.378906 140.453125 C 270.648438 142.03125 271.148438 143.902344 272.570312 144.902344 L 275.753906 147.144531 C 276.316406 147.542969 276.648438 148.1875 276.648438 148.875 C 276.648438 149.558594 276.316406 150.203125 275.753906 150.601562 L 272.570312 152.84375 C 271.148438 153.84375 270.648438 155.714844 271.378906 157.292969 L 273.011719 160.828125 C 273.300781 161.449219 273.269531 162.175781 272.925781 162.769531 C 272.582031 163.367188 271.96875 163.757812 271.285156 163.820312 L 267.40625 164.167969 C 265.675781 164.324219 264.304688 165.695312 264.148438 167.425781 L 263.800781 171.304688 C 263.738281 171.988281 263.347656 172.601562 262.75 172.945312 C 262.15625 173.289062 261.429688 173.320312 260.808594 173.03125 L 257.273438 171.398438 C 255.695312 170.667969 253.824219 171.167969 252.824219 172.589844 L 250.582031 175.773438 C 250.183594 176.335938 249.539062 176.667969 248.851562 176.667969 C 248.164062 176.667969 247.519531 176.335938 247.125 175.773438 L 244.882812 172.589844 C 243.882812 171.167969 242.007812 170.667969 240.433594 171.398438 L 236.898438 173.03125 C 236.277344 173.320312 235.550781 173.289062 234.957031 172.945312 C 234.359375 172.601562 233.96875 171.988281 233.90625 171.304688 L 233.558594 167.425781 C 233.402344 165.695312 232.03125 164.324219 230.300781 164.167969 L 226.421875 163.820312 C 225.738281 163.757812 225.125 163.367188 224.78125 162.769531 C 224.4375 162.175781 224.40625 161.449219 224.695312 160.828125 L 226.328125 157.292969 C 227.058594 155.714844 226.558594 153.84375 225.136719 152.84375 L 221.953125 150.601562 C 221.390625 150.203125 221.058594 149.558594 221.058594 148.875 C 221.058594 148.1875 221.390625 147.542969 221.953125 147.144531 L 225.136719 144.902344 C 226.558594 143.902344 227.058594 142.03125 226.328125 140.453125 L 224.695312 136.917969 C 224.40625 136.296875 224.4375 135.570312 224.78125 134.976562 C 225.125 134.378906 225.738281 133.988281 226.421875 133.925781 L 230.300781 133.578125 C 232.03125 133.421875 233.402344 132.050781 233.558594 130.320312 L 233.90625 126.441406 C 233.96875 125.757812 234.359375 125.144531 234.957031 124.800781 C 235.550781 124.457031 236.277344 124.425781 236.898438 124.714844 L 240.433594 126.347656 C 242.007812 127.078125 243.882812 126.578125 244.882812 125.15625 L 247.125 121.972656 C 247.519531 121.410156 248.164062 121.078125 248.851562 121.078125 C 249.539062 121.078125 250.183594 121.410156 250.582031 121.972656 Z M 250.582031 121.972656 " clip-rule="nonzero"/></clipPath><clipPath id="50c7822166"><path d="M 221 121 L 277 121 L 277 177 L 221 177 Z M 221 121 " clip-rule="nonzero"/></clipPath><clipPath id="c42879debc"><path d="M 250.578125 121.972656 L 252.820312 125.15625 C 253.820312 126.578125 255.695312 127.078125 257.269531 126.347656 L 260.804688 124.714844 C 261.425781 124.425781 262.152344 124.457031 262.746094 124.800781 C 263.34375 125.144531 263.734375 125.757812 263.796875 126.441406 L 264.144531 130.316406 C 264.300781 132.046875 265.671875 133.417969 267.402344 133.574219 L 271.28125 133.925781 C 271.964844 133.988281 272.578125 134.378906 272.921875 134.972656 C 273.265625 135.570312 273.296875 136.292969 273.007812 136.917969 L 271.371094 140.449219 C 270.644531 142.027344 271.144531 143.902344 272.566406 144.902344 L 275.746094 147.144531 C 276.308594 147.539062 276.644531 148.183594 276.644531 148.871094 C 276.644531 149.558594 276.308594 150.203125 275.746094 150.597656 L 272.566406 152.839844 C 271.144531 153.839844 270.644531 155.714844 271.371094 157.289062 L 273.007812 160.824219 C 273.296875 161.445312 273.265625 162.171875 272.921875 162.765625 C 272.578125 163.363281 271.964844 163.753906 271.28125 163.816406 L 267.402344 164.164062 C 265.671875 164.320312 264.300781 165.691406 264.144531 167.421875 L 263.796875 171.300781 C 263.734375 171.984375 263.34375 172.597656 262.746094 172.941406 C 262.152344 173.285156 261.425781 173.316406 260.804688 173.027344 L 257.269531 171.394531 C 255.695312 170.664062 253.820312 171.164062 252.820312 172.585938 L 250.578125 175.769531 C 250.183594 176.328125 249.539062 176.664062 248.851562 176.664062 C 248.164062 176.664062 247.519531 176.328125 247.125 175.769531 L 244.882812 172.585938 C 243.878906 171.164062 242.007812 170.664062 240.429688 171.394531 L 236.898438 173.027344 C 236.273438 173.316406 235.550781 173.285156 234.953125 172.941406 C 234.359375 172.597656 233.96875 171.984375 233.90625 171.300781 L 233.554688 167.421875 C 233.398438 165.691406 232.027344 164.320312 230.296875 164.164062 L 226.421875 163.816406 C 225.734375 163.753906 225.125 163.363281 224.78125 162.765625 C 224.4375 162.171875 224.40625 161.445312 224.691406 160.824219 L 226.328125 157.289062 C 227.058594 155.714844 226.554688 153.839844 225.136719 152.839844 L 221.953125 150.597656 C 221.390625 150.203125 221.058594 149.558594 221.058594 148.871094 C 221.058594 148.183594 221.390625 147.539062 221.953125 147.144531 L 225.136719 144.902344 C 226.554688 143.902344 227.058594 142.027344 226.328125 140.449219 L 224.691406 136.917969 C 224.40625 136.292969 224.4375 135.570312 224.78125 134.972656 C 225.125 134.378906 225.734375 133.988281 226.421875 133.925781 L 230.296875 133.574219 C 232.027344 133.417969 233.398438 132.046875 233.554688 130.316406 L 233.90625 126.441406 C 233.96875 125.757812 234.359375 125.144531 234.953125 124.800781 C 235.550781 124.457031 236.273438 124.425781 236.898438 124.714844 L 240.429688 126.347656 C 242.007812 127.078125 243.878906 126.578125 244.882812 125.15625 L 247.125 121.972656 C 247.519531 121.410156 248.164062 121.078125 248.851562 121.078125 C 249.539062 121.078125 250.183594 121.410156 250.578125 121.972656 Z M 250.578125 121.972656 " clip-rule="nonzero"/></clipPath><clipPath id="3805c9a82c"><path d="M 232.753906 189 L 288.707031 189 L 288.707031 244.925781 L 232.753906 244.925781 Z M 232.753906 189 " clip-rule="nonzero"/></clipPath><clipPath id="e5232e89a7"><path d="M 262.457031 190.046875 L 264.699219 193.230469 C 265.699219 194.652344 267.574219 195.152344 269.148438 194.425781 L 272.683594 192.789062 C 273.308594 192.5 274.03125 192.53125 274.628906 192.875 C 275.222656 193.21875 275.613281 193.832031 275.675781 194.515625 L 276.027344 198.394531 C 276.183594 200.125 277.554688 201.496094 279.285156 201.652344 L 283.160156 202.003906 C 283.847656 202.0625 284.457031 202.453125 284.800781 203.050781 C 285.144531 203.644531 285.179688 204.371094 284.890625 204.996094 L 283.253906 208.527344 C 282.523438 210.105469 283.027344 211.976562 284.445312 212.976562 L 287.628906 215.21875 C 288.191406 215.617188 288.527344 216.261719 288.527344 216.949219 C 288.527344 217.636719 288.191406 218.28125 287.628906 218.675781 L 284.445312 220.917969 C 283.027344 221.917969 282.523438 223.792969 283.253906 225.367188 L 284.890625 228.902344 C 285.179688 229.527344 285.144531 230.25 284.800781 230.847656 C 284.457031 231.441406 283.847656 231.832031 283.160156 231.894531 L 279.285156 232.246094 C 277.554688 232.402344 276.183594 233.773438 276.027344 235.503906 L 275.675781 239.378906 C 275.613281 240.066406 275.222656 240.675781 274.628906 241.019531 C 274.03125 241.363281 273.308594 241.394531 272.683594 241.109375 L 269.148438 239.472656 C 267.574219 238.742188 265.699219 239.246094 264.699219 240.664062 L 262.457031 243.847656 C 262.0625 244.410156 261.417969 244.742188 260.730469 244.742188 C 260.042969 244.742188 259.398438 244.410156 259 243.847656 L 256.757812 240.664062 C 255.757812 239.246094 253.886719 238.742188 252.308594 239.472656 L 248.777344 241.109375 C 248.152344 241.394531 247.425781 241.363281 246.832031 241.019531 C 246.238281 240.675781 245.84375 240.066406 245.785156 239.378906 L 245.433594 235.503906 C 245.277344 233.773438 243.90625 232.402344 242.175781 232.246094 L 238.296875 231.894531 C 237.613281 231.832031 237 231.441406 236.65625 230.847656 C 236.3125 230.25 236.28125 229.527344 236.570312 228.902344 L 238.207031 225.367188 C 238.933594 223.792969 238.433594 221.917969 237.011719 220.917969 L 233.832031 218.675781 C 233.269531 218.28125 232.933594 217.636719 232.933594 216.949219 C 232.933594 216.261719 233.269531 215.617188 233.832031 215.21875 L 237.011719 212.976562 C 238.433594 211.976562 238.933594 210.105469 238.207031 208.527344 L 236.570312 204.996094 C 236.28125 204.371094 236.3125 203.644531 236.65625 203.050781 C 237 202.453125 237.613281 202.0625 238.296875 202.003906 L 242.175781 201.652344 C 243.90625 201.496094 245.277344 200.125 245.433594 198.394531 L 245.785156 194.515625 C 245.84375 193.832031 246.238281 193.21875 246.832031 192.875 C 247.425781 192.53125 248.152344 192.5 248.777344 192.789062 L 252.308594 194.425781 C 253.886719 195.152344 255.757812 194.652344 256.757812 193.230469 L 259 190.046875 C 259.398438 189.488281 260.042969 189.152344 260.730469 189.152344 C 261.417969 189.152344 262.0625 189.488281 262.457031 190.046875 Z M 262.457031 190.046875 " clip-rule="nonzero"/></clipPath><clipPath id="9d6611722d"><path d="M 232.292969 189 L 289 189 L 289 245 L 232.292969 245 Z M 232.292969 189 " clip-rule="nonzero"/></clipPath><clipPath id="deaa796e9e"><path d="M 262.453125 190.046875 L 264.695312 193.230469 C 265.699219 194.652344 267.570312 195.152344 269.148438 194.421875 L 272.679688 192.789062 C 273.304688 192.5 274.027344 192.53125 274.625 192.875 C 275.21875 193.21875 275.609375 193.832031 275.671875 194.515625 L 276.023438 198.394531 C 276.179688 200.125 277.550781 201.496094 279.28125 201.652344 L 283.15625 202 C 283.839844 202.0625 284.453125 202.453125 284.796875 203.050781 C 285.140625 203.644531 285.171875 204.371094 284.882812 204.992188 L 283.25 208.527344 C 282.519531 210.101562 283.019531 211.976562 284.441406 212.976562 L 287.625 215.21875 C 288.1875 215.613281 288.519531 216.257812 288.519531 216.945312 C 288.519531 217.632812 288.1875 218.277344 287.625 218.671875 L 284.441406 220.914062 C 283.019531 221.914062 282.519531 223.789062 283.25 225.363281 L 284.882812 228.898438 C 285.171875 229.523438 285.140625 230.246094 284.796875 230.84375 C 284.453125 231.4375 283.839844 231.828125 283.15625 231.890625 L 279.28125 232.242188 C 277.550781 232.398438 276.179688 233.769531 276.023438 235.5 L 275.671875 239.375 C 275.609375 240.058594 275.21875 240.671875 274.625 241.015625 C 274.027344 241.359375 273.304688 241.390625 272.679688 241.101562 L 269.148438 239.46875 C 267.570312 238.738281 265.699219 239.238281 264.695312 240.660156 L 262.453125 243.84375 C 262.058594 244.40625 261.414062 244.738281 260.726562 244.738281 C 260.039062 244.738281 259.394531 244.40625 259 243.84375 L 256.757812 240.660156 C 255.757812 239.238281 253.882812 238.738281 252.308594 239.46875 L 248.773438 241.101562 C 248.152344 241.390625 247.425781 241.359375 246.832031 241.015625 C 246.234375 240.671875 245.84375 240.058594 245.78125 239.375 L 245.433594 235.5 C 245.277344 233.769531 243.90625 232.398438 242.175781 232.242188 L 238.296875 231.890625 C 237.613281 231.828125 237 231.4375 236.65625 230.84375 C 236.3125 230.246094 236.28125 229.523438 236.570312 228.898438 L 238.203125 225.363281 C 238.933594 223.789062 238.433594 221.914062 237.011719 220.914062 L 233.828125 218.671875 C 233.269531 218.277344 232.933594 217.632812 232.933594 216.945312 C 232.933594 216.257812 233.269531 215.613281 233.828125 215.21875 L 237.011719 212.976562 C 238.433594 211.976562 238.933594 210.101562 238.203125 208.527344 L 236.570312 204.992188 C 236.28125 204.371094 236.3125 203.644531 236.65625 203.050781 C 237 202.453125 237.613281 202.0625 238.296875 202 L 242.175781 201.652344 C 243.90625 201.496094 245.277344 200.125 245.433594 198.394531 L 245.78125 194.515625 C 245.84375 193.832031 246.234375 193.21875 246.832031 192.875 C 247.425781 192.53125 248.152344 192.5 248.773438 192.789062 L 252.308594 194.421875 C 253.882812 195.152344 255.757812 194.652344 256.757812 193.230469 L 259 190.046875 C 259.394531 189.488281 260.039062 189.152344 260.726562 189.152344 C 261.414062 189.152344 262.058594 189.488281 262.453125 190.046875 Z M 262.453125 190.046875 " clip-rule="nonzero"/></clipPath><clipPath id="c1a6c7c368"><path d="M 242.789062 184.285156 L 298.738281 184.285156 L 298.738281 240.238281 L 242.789062 240.238281 Z M 242.789062 184.285156 " clip-rule="nonzero"/></clipPath><clipPath id="a2f1535a3a"><path d="M 272.492188 185.363281 L 274.734375 188.546875 C 275.734375 189.964844 277.605469 190.46875 279.183594 189.738281 L 282.71875 188.101562 C 283.339844 187.816406 284.066406 187.847656 284.660156 188.191406 C 285.257812 188.535156 285.648438 189.144531 285.710938 189.832031 L 286.058594 193.707031 C 286.214844 195.4375 287.585938 196.808594 289.316406 196.964844 L 293.195312 197.316406 C 293.878906 197.378906 294.492188 197.769531 294.835938 198.363281 C 295.179688 198.960938 295.210938 199.683594 294.921875 200.308594 L 293.289062 203.84375 C 292.558594 205.417969 293.058594 207.292969 294.480469 208.292969 L 297.664062 210.535156 C 298.226562 210.929688 298.558594 211.574219 298.558594 212.261719 C 298.558594 212.949219 298.226562 213.59375 297.664062 213.992188 L 294.480469 216.234375 C 293.058594 217.234375 292.558594 219.105469 293.289062 220.683594 L 294.921875 224.214844 C 295.210938 224.839844 295.179688 225.566406 294.835938 226.160156 C 294.492188 226.757812 293.878906 227.148438 293.195312 227.207031 L 289.316406 227.558594 C 287.585938 227.714844 286.214844 229.085938 286.058594 230.816406 L 285.710938 234.695312 C 285.648438 235.378906 285.257812 235.992188 284.660156 236.335938 C 284.066406 236.679688 283.339844 236.710938 282.71875 236.421875 L 279.183594 234.785156 C 277.605469 234.058594 275.734375 234.558594 274.734375 235.980469 L 272.492188 239.164062 C 272.09375 239.722656 271.449219 240.058594 270.761719 240.058594 C 270.078125 240.058594 269.433594 239.722656 269.035156 239.164062 L 266.792969 235.980469 C 265.792969 234.558594 263.921875 234.058594 262.34375 234.785156 L 258.808594 236.421875 C 258.1875 236.710938 257.460938 236.679688 256.867188 236.335938 C 256.269531 235.992188 255.878906 235.378906 255.816406 234.695312 L 255.46875 230.816406 C 255.3125 229.085938 253.941406 227.714844 252.210938 227.558594 L 248.332031 227.207031 C 247.648438 227.148438 247.035156 226.757812 246.691406 226.160156 C 246.347656 225.566406 246.316406 224.839844 246.605469 224.214844 L 248.238281 220.683594 C 248.96875 219.105469 248.46875 217.234375 247.046875 216.234375 L 243.863281 213.992188 C 243.300781 213.59375 242.96875 212.949219 242.96875 212.261719 C 242.96875 211.574219 243.300781 210.929688 243.863281 210.535156 L 247.046875 208.292969 C 248.46875 207.292969 248.96875 205.417969 248.238281 203.84375 L 246.605469 200.308594 C 246.316406 199.683594 246.347656 198.960938 246.691406 198.363281 C 247.035156 197.769531 247.648438 197.378906 248.332031 197.316406 L 252.210938 196.964844 C 253.941406 196.808594 255.3125 195.4375 255.46875 193.707031 L 255.816406 189.832031 C 255.878906 189.144531 256.269531 188.535156 256.867188 188.191406 C 257.460938 187.847656 258.1875 187.816406 258.808594 188.101562 L 262.34375 189.738281 C 263.921875 190.46875 265.792969 189.964844 266.792969 188.546875 L 269.035156 185.363281 C 269.433594 184.800781 270.078125 184.46875 270.761719 184.46875 C 271.449219 184.46875 272.09375 184.800781 272.492188 185.363281 Z M 272.492188 185.363281 " clip-rule="nonzero"/></clipPath><clipPath id="b0030e37ea"><path d="M 242.328125 184 L 299 184 L 299 240.691406 L 242.328125 240.691406 Z M 242.328125 184 " clip-rule="nonzero"/></clipPath><clipPath id="0748c38fa1"><path d="M 272.488281 185.363281 L 274.730469 188.546875 C 275.730469 189.964844 277.605469 190.46875 279.179688 189.738281 L 282.714844 188.101562 C 283.335938 187.8125 284.0625 187.847656 284.65625 188.191406 C 285.253906 188.535156 285.644531 189.144531 285.707031 189.832031 L 286.054688 193.707031 C 286.210938 195.4375 287.582031 196.808594 289.3125 196.964844 L 293.191406 197.316406 C 293.875 197.378906 294.488281 197.769531 294.832031 198.363281 C 295.175781 198.957031 295.207031 199.683594 294.917969 200.308594 L 293.285156 203.839844 C 292.554688 205.417969 293.054688 207.289062 294.476562 208.289062 L 297.660156 210.53125 C 298.21875 210.929688 298.554688 211.574219 298.554688 212.261719 C 298.554688 212.949219 298.21875 213.59375 297.660156 213.988281 L 294.476562 216.230469 C 293.054688 217.230469 292.554688 219.101562 293.285156 220.679688 L 294.917969 224.210938 C 295.207031 224.835938 295.175781 225.5625 294.832031 226.15625 C 294.488281 226.753906 293.875 227.144531 293.191406 227.203125 L 289.3125 227.554688 C 287.582031 227.710938 286.210938 229.082031 286.054688 230.8125 L 285.707031 234.691406 C 285.644531 235.375 285.253906 235.988281 284.65625 236.328125 C 284.0625 236.671875 283.335938 236.707031 282.714844 236.417969 L 279.179688 234.78125 C 277.605469 234.050781 275.730469 234.554688 274.730469 235.976562 L 272.488281 239.15625 C 272.09375 239.71875 271.449219 240.054688 270.761719 240.054688 C 270.074219 240.054688 269.429688 239.71875 269.035156 239.15625 L 266.792969 235.976562 C 265.792969 234.554688 263.917969 234.050781 262.339844 234.78125 L 258.808594 236.417969 C 258.183594 236.707031 257.460938 236.671875 256.863281 236.328125 C 256.269531 235.988281 255.878906 235.375 255.816406 234.691406 L 255.464844 230.8125 C 255.308594 229.082031 253.9375 227.710938 252.207031 227.554688 L 248.332031 227.203125 C 247.648438 227.144531 247.035156 226.753906 246.691406 226.15625 C 246.347656 225.5625 246.316406 224.835938 246.605469 224.210938 L 248.238281 220.679688 C 248.96875 219.101562 248.46875 217.230469 247.046875 216.230469 L 243.863281 213.988281 C 243.300781 213.59375 242.96875 212.949219 242.96875 212.261719 C 242.96875 211.574219 243.300781 210.929688 243.863281 210.53125 L 247.046875 208.289062 C 248.46875 207.289062 248.96875 205.417969 248.238281 203.839844 L 246.605469 200.308594 C 246.316406 199.683594 246.347656 198.957031 246.691406 198.363281 C 247.035156 197.769531 247.648438 197.378906 248.332031 197.316406 L 252.207031 196.964844 C 253.9375 196.808594 255.308594 195.4375 255.464844 193.707031 L 255.816406 189.832031 C 255.878906 189.144531 256.269531 188.535156 256.863281 188.191406 C 257.460938 187.847656 258.183594 187.8125 258.808594 188.101562 L 262.339844 189.738281 C 263.917969 190.46875 265.792969 189.964844 266.792969 188.546875 L 269.035156 185.363281 C 269.429688 184.800781 270.074219 184.464844 270.761719 184.464844 C 271.449219 184.464844 272.09375 184.800781 272.488281 185.363281 Z M 272.488281 185.363281 " clip-rule="nonzero"/></clipPath></defs><g clip-path="url(#fb5c271e9e)"><g clip-path="url(#f05e394361)"><g clip-path="url(#d52195e889)"><g clip-path="url(#58aa612f25)"><g clip-path="url(#b68d2d2670)"><path fill="#10584f" d="M 159.566406 303.917969 C 158.554688 303.625 157.441406 303.191406 156.484375 302.753906 C 155.066406 303.398438 153.523438 303.890625 151.96875 303.75 C 149.90625 303.5625 148.007812 302.265625 145.933594 302.359375 C 145.328125 302.382812 144.78125 302.5625 144.363281 303.003906 C 144.472656 302.601562 144.335938 302.160156 144.101562 301.820312 C 143.863281 301.476562 143.585938 301.039062 143.253906 300.789062 C 142.394531 300.148438 141.429688 299.742188 140.5 299.195312 C 139.6875 298.714844 138.835938 298.25 138.1875 297.558594 C 137.421875 296.738281 137.011719 295.636719 136.605469 294.589844 C 135.550781 294.757812 134.476562 294.769531 133.417969 294.617188 C 133.042969 294.5625 132.65625 294.484375 132.332031 294.285156 C 132.011719 294.085938 131.769531 293.78125 131.5625 293.460938 C 130.554688 291.910156 130.21875 289.925781 130.664062 288.128906 C 129.605469 287.453125 128.316406 286.5625 127.699219 285.46875 C 127.199219 284.585938 127.066406 283.53125 126.566406 282.644531 C 125.964844 281.585938 124.78125 280.894531 123.570312 280.765625 C 124.117188 280.148438 124.203125 279.226562 123.996094 278.429688 C 123.78125 277.636719 123.320312 276.933594 122.851562 276.257812 C 122.390625 275.578125 121.910156 274.890625 121.667969 274.105469 C 121.5 273.554688 121.449219 272.972656 121.402344 272.398438 C 121.351562 271.765625 121.300781 271.132812 121.25 270.503906 C 120.296875 270.519531 119.277344 269.957031 118.5625 269.320312 C 118.144531 268.945312 117.765625 268.515625 117.519531 268.007812 C 117.105469 267.144531 117.128906 266.125 117.390625 265.207031 C 117.652344 264.285156 118.125 263.445312 118.59375 262.609375 L 118.632812 262.59375 C 116.882812 261.28125 115.863281 259.050781 116 256.867188 C 116.027344 256.441406 116.09375 255.996094 115.929688 255.601562 C 115.796875 255.289062 115.542969 255.050781 115.289062 254.824219 C 114.863281 254.4375 114.433594 254.046875 114.003906 253.664062 C 114.695312 252.875 114.695312 251.785156 114.507812 250.753906 C 114.320312 249.722656 113.902344 248.746094 113.703125 247.71875 C 113.429688 246.320312 113.574219 244.847656 114.117188 243.53125 C 113.207031 243.160156 112.5 242.5 111.898438 241.726562 C 111.445312 241.140625 111.066406 240.46875 110.972656 239.730469 C 110.871094 238.9375 111.105469 238.128906 111.5 237.4375 C 111.898438 236.746094 112.566406 236.117188 113.152344 235.578125 L 113.15625 235.574219 C 111.589844 233.503906 111.140625 230.617188 111.964844 228.152344 C 111.902344 227.878906 111.769531 227.621094 111.582031 227.410156 C 111.488281 227.304688 111.375 227.210938 111.246094 227.164062 C 111.03125 227.089844 110.777344 227.144531 110.582031 227.027344 C 110.671875 226.820312 110.90625 226.710938 111.035156 226.523438 C 111.113281 226.40625 111.144531 226.261719 111.152344 226.125 C 111.179688 225.847656 111.132812 225.558594 111.019531 225.300781 C 108.882812 223.824219 107.515625 221.242188 107.527344 218.644531 L 107.523438 218.644531 C 106.726562 218.5625 105.820312 218.457031 105.085938 218.144531 C 104.351562 217.824219 103.683594 217.316406 103.292969 216.625 C 102.925781 215.976562 102.824219 215.210938 102.835938 214.46875 C 102.859375 213.488281 103.027344 212.539062 103.535156 211.699219 C 102.3125 210.96875 101.308594 209.875 100.695312 208.589844 C 100.238281 207.648438 99.988281 206.613281 99.523438 205.679688 C 99.054688 204.742188 98.398438 203.867188 97.378906 203.648438 C 97.488281 203.082031 97.597656 202.515625 97.710938 201.949219 C 97.777344 201.617188 97.839844 201.273438 97.757812 200.945312 C 97.652344 200.53125 97.335938 200.214844 97.058594 199.886719 C 95.632812 198.222656 95.121094 195.824219 95.738281 193.722656 L 95.707031 193.730469 C 94.832031 193.347656 93.949219 192.957031 93.191406 192.371094 C 92.433594 191.792969 91.804688 190.988281 91.617188 190.050781 C 91.507812 189.496094 91.554688 188.925781 91.667969 188.375 C 91.855469 187.4375 92.332031 186.371094 93.109375 185.816406 C 92.773438 185.28125 92.433594 184.746094 92.097656 184.210938 C 91.792969 183.722656 91.480469 183.226562 91.285156 182.683594 C 91.011719 181.910156 90.984375 181.070312 90.949219 180.25 C 90.914062 179.429688 90.867188 178.589844 90.5625 177.824219 C 90.253906 177.0625 89.632812 176.378906 88.824219 176.210938 C 89.710938 175.378906 90.25 174.117188 90.097656 172.910156 C 89.964844 171.902344 89.445312 170.980469 89.3125 169.96875 C 89.152344 168.726562 89.652344 167.242188 90.09375 166.0625 C 88.660156 164.890625 87.742188 163.101562 87.625 161.253906 C 87.597656 160.878906 87.609375 160.492188 87.746094 160.136719 C 87.886719 159.78125 88.144531 159.488281 88.417969 159.21875 C 89.171875 158.46875 90.042969 157.828125 90.984375 157.332031 C 90.6875 156.25 90.355469 155.125 90.476562 154.007812 C 90.582031 153.0625 90.984375 152.1875 91.347656 151.3125 C 91.761719 150.316406 92.296875 149.632812 92.601562 148.601562 C 92.722656 148.203125 92.671875 147.472656 92.660156 147.054688 C 92.640625 146.632812 92.492188 146.207031 92.164062 145.949219 C 92.757812 146.054688 93.289062 145.8125 93.789062 145.46875 C 95.5 144.300781 96.242188 142.128906 97.789062 140.742188 C 98.945312 139.699219 100.476562 139.171875 102 138.835938 C 102.503906 137.917969 103.140625 136.898438 103.773438 136.058594 C 104.179688 135.523438 104.636719 134.988281 105.265625 134.742188 C 106.035156 134.4375 106.90625 134.632812 107.675781 134.929688 C 108.558594 135.269531 109.390625 135.734375 110.132812 136.3125 C 110.382812 136.511719 110.628906 136.71875 110.921875 136.851562 C 111.210938 136.984375 111.554688 137.027344 111.84375 136.890625 C 113.402344 136.117188 115.476562 135.945312 117.109375 136.539062 C 117.855469 136.8125 118.558594 137.222656 119.324219 137.433594 C 120.296875 137.710938 121.394531 137.632812 122.257812 137.09375 C 122.628906 136.863281 122.945312 136.558594 123.300781 136.316406 C 124.148438 135.742188 125.191406 135.566406 126.195312 135.398438 C 126.996094 135.738281 128.109375 135.484375 128.792969 134.941406 C 129.476562 134.402344 129.953125 133.648438 130.445312 132.933594 C 131.148438 131.914062 131.925781 130.929688 132.871094 130.128906 C 133.820312 129.328125 134.945312 128.710938 136.164062 128.511719 C 136.273438 127.664062 136.5625 126.773438 136.949219 126.007812 C 137.339844 125.246094 137.917969 124.5625 138.660156 124.136719 C 139.570312 123.609375 140.675781 123.496094 141.710938 123.6875 C 142.742188 123.875 143.730469 124.375 144.59375 124.976562 C 146.066406 124.042969 147.789062 123.339844 149.515625 123.578125 C 150.363281 123.695312 151.164062 124.035156 151.957031 124.359375 C 152.75 124.6875 153.558594 125.011719 154.414062 125.09375 C 155.265625 125.179688 156.363281 124.976562 156.992188 124.402344 C 156.886719 124.804688 157.019531 125.242188 157.257812 125.582031 C 157.492188 125.925781 157.828125 126.1875 158.164062 126.4375 C 159.023438 127.078125 159.929688 127.660156 160.855469 128.210938 C 161.671875 128.691406 162.519531 129.15625 163.167969 129.847656 C 163.933594 130.667969 164.34375 131.769531 164.753906 132.816406 C 165.804688 132.648438 166.878906 132.636719 167.9375 132.789062 C 168.3125 132.84375 168.699219 132.921875 169.023438 133.121094 C 169.347656 133.320312 169.585938 133.625 169.792969 133.945312 C 170.804688 135.496094 171.136719 137.476562 170.695312 139.273438 C 171.753906 139.953125 173.042969 140.84375 173.65625 141.9375 C 174.15625 142.820312 174.292969 143.875 174.792969 144.761719 C 175.390625 145.820312 176.574219 146.511719 177.785156 146.640625 C 177.238281 147.257812 177.15625 148.179688 177.363281 148.972656 C 177.574219 149.769531 178.035156 150.472656 178.503906 151.148438 C 178.964844 151.828125 179.445312 152.511719 179.6875 153.300781 C 179.859375 153.851562 179.910156 154.433594 179.953125 155.007812 C 180.003906 155.636719 180.054688 156.273438 180.105469 156.902344 C 181.0625 156.882812 182.082031 157.449219 182.792969 158.085938 C 183.210938 158.460938 183.59375 158.890625 183.835938 159.398438 C 184.253906 160.257812 184.226562 161.28125 183.964844 162.199219 C 183.703125 163.121094 183.234375 163.960938 182.765625 164.796875 L 182.734375 164.804688 C 184.484375 166.121094 185.507812 168.351562 185.367188 170.535156 C 185.335938 170.960938 185.277344 171.402344 185.441406 171.800781 C 185.570312 172.113281 185.828125 172.351562 186.078125 172.578125 C 186.507812 172.964844 186.9375 173.351562 187.363281 173.738281 C 186.671875 174.523438 186.675781 175.617188 186.863281 176.648438 C 187.046875 177.679688 187.464844 178.652344 187.667969 179.683594 C 187.941406 181.078125 187.792969 182.554688 187.253906 183.871094 C 188.160156 184.242188 188.871094 184.902344 189.46875 185.675781 C 189.925781 186.257812 190.296875 186.933594 190.394531 187.671875 C 190.496094 188.464844 190.265625 189.269531 189.867188 189.964844 C 189.46875 190.65625 188.804688 191.28125 188.21875 191.824219 L 188.214844 191.828125 C 189.777344 193.898438 190.230469 196.785156 189.402344 199.25 C 189.464844 199.523438 189.601562 199.78125 189.789062 199.992188 C 189.882812 200.097656 189.992188 200.191406 190.121094 200.238281 C 190.335938 200.3125 190.589844 200.257812 190.785156 200.371094 C 190.699219 200.582031 190.464844 200.6875 190.335938 200.878906 C 190.253906 200.996094 190.226562 201.136719 190.214844 201.273438 C 190.1875 201.554688 190.238281 201.84375 190.351562 202.101562 C 192.488281 203.578125 193.855469 206.160156 193.84375 208.757812 L 193.847656 208.753906 C 194.640625 208.839844 195.550781 208.945312 196.28125 209.257812 C 197.015625 209.574219 197.683594 210.085938 198.078125 210.777344 C 198.445312 211.425781 198.546875 212.191406 198.53125 212.933594 C 198.511719 213.914062 198.34375 214.863281 197.835938 215.703125 C 199.058594 216.433594 200.058594 217.527344 200.675781 218.8125 C 201.128906 219.753906 201.378906 220.789062 201.847656 221.722656 C 202.316406 222.660156 202.96875 223.535156 203.992188 223.753906 C 203.878906 224.316406 203.769531 224.886719 203.660156 225.453125 C 203.59375 225.785156 203.53125 226.128906 203.613281 226.457031 C 203.714844 226.867188 204.035156 227.1875 204.3125 227.511719 C 205.734375 229.179688 206.246094 231.578125 205.632812 233.679688 L 205.648438 233.671875 C 206.523438 234.058594 207.40625 234.449219 208.164062 235.035156 C 208.925781 235.617188 209.554688 236.417969 209.742188 237.355469 C 209.847656 237.90625 209.800781 238.480469 209.691406 239.03125 C 209.5 239.96875 209.023438 241.035156 208.246094 241.585938 C 208.582031 242.121094 208.921875 242.660156 209.257812 243.195312 C 209.5625 243.683594 209.875 244.179688 210.070312 244.722656 C 210.347656 245.496094 210.371094 246.335938 210.410156 247.15625 C 210.445312 247.976562 210.488281 248.816406 210.796875 249.582031 C 211.101562 250.34375 211.722656 251.027344 212.53125 251.195312 C 211.644531 252.027344 211.105469 253.289062 211.261719 254.496094 C 211.390625 255.5 211.910156 256.425781 212.042969 257.433594 C 212.203125 258.679688 211.703125 260.164062 211.261719 261.339844 C 212.695312 262.515625 213.613281 264.300781 213.730469 266.148438 C 213.757812 266.527344 213.75 266.914062 213.609375 267.269531 C 213.472656 267.625 213.210938 267.917969 212.941406 268.1875 C 212.1875 268.9375 211.316406 269.578125 210.371094 270.070312 C 210.671875 271.15625 211.003906 272.28125 210.878906 273.398438 C 210.773438 274.339844 210.371094 275.21875 210.007812 276.09375 C 209.59375 277.085938 209.066406 277.988281 208.757812 279.019531 C 208.640625 279.421875 208.683594 279.933594 208.699219 280.351562 C 208.714844 280.769531 208.867188 281.199219 209.195312 281.457031 C 208.339844 281.375 207.324219 281.8125 206.695312 282.390625 C 206.0625 282.972656 205.609375 283.714844 205.167969 284.449219 C 204.726562 285.1875 204.292969 285.933594 203.679688 286.539062 C 202.441406 287.761719 200.632812 288.234375 198.898438 288.363281 C 198.570312 289.359375 198.070312 290.351562 197.363281 291.125 C 196.652344 291.894531 195.695312 292.46875 194.652344 292.59375 C 193.800781 292.695312 192.929688 292.492188 192.164062 292.117188 C 191.394531 291.738281 190.628906 291.199219 190.035156 290.582031 C 188.933594 291.148438 187.664062 291.332031 186.425781 291.257812 C 185.191406 291.183594 183.984375 290.855469 182.804688 290.464844 C 181.980469 290.1875 181.148438 289.871094 180.28125 289.84375 C 179.410156 289.820312 178.367188 290.28125 177.925781 291.035156 C 177.019531 291.5 176.078125 291.976562 175.058594 292.03125 C 174.621094 292.054688 174.183594 292 173.753906 292.03125 C 172.746094 292.113281 171.824219 292.710938 171.199219 293.519531 C 170.71875 294.148438 170.402344 294.894531 169.964844 295.5625 C 169.011719 297.015625 167.242188 298.121094 165.535156 298.429688 C 165.222656 298.488281 164.972656 298.738281 164.820312 299.015625 C 164.667969 299.296875 164.59375 299.609375 164.511719 299.917969 C 164.261719 300.828125 163.878906 301.699219 163.375 302.5 C 162.933594 303.195312 162.351562 303.875 161.554688 304.09375 C 160.898438 304.257812 160.210938 304.101562 159.566406 303.917969 Z M 159.566406 303.917969 " fill-opacity="1" fill-rule="nonzero"/></g></g></g></g></g><g clip-path="url(#132126c5f1)"><g clip-path="url(#6bc453b6a6)"><g clip-path="url(#f605e68a57)"><g clip-path="url(#f37d58895b)"><g clip-path="url(#aee5608843)"><path fill="#10584f" d="M 169.480469 112.316406 L 226.441406 283.652344 L 131.855469 315.097656 L 74.894531 143.761719 Z M 169.480469 112.316406 " fill-opacity="1" fill-rule="nonzero"/></g></g></g></g></g><g clip-path="url(#0f164fb944)"><g clip-path="url(#fb83a67a4c)"><g clip-path="url(#35a6cdc8cd)"><g clip-path="url(#fdeea34494)"><g clip-path="url(#2ad3c1d657)"><g clip-path="url(#76872a63e3)"><path fill="#10584f" d="M 170.582031 280.847656 C 169.574219 280.558594 168.460938 280.125 167.5 279.6875 C 166.085938 280.328125 164.542969 280.824219 162.988281 280.683594 C 160.921875 280.496094 159.027344 279.199219 156.953125 279.289062 C 156.347656 279.316406 155.796875 279.496094 155.382812 279.9375 C 155.492188 279.53125 155.355469 279.09375 155.117188 278.753906 C 154.878906 278.410156 154.605469 277.972656 154.273438 277.722656 C 153.410156 277.082031 152.449219 276.671875 151.519531 276.128906 C 150.703125 275.648438 149.855469 275.183594 149.207031 274.488281 C 148.441406 273.671875 148.03125 272.570312 147.621094 271.523438 C 146.570312 271.691406 145.496094 271.703125 144.4375 271.550781 C 144.0625 271.496094 143.675781 271.417969 143.351562 271.214844 C 143.027344 271.019531 142.789062 270.714844 142.582031 270.394531 C 141.570312 268.839844 141.238281 266.859375 141.679688 265.0625 C 140.621094 264.382812 139.332031 263.492188 138.71875 262.402344 C 138.21875 261.515625 138.082031 260.464844 137.582031 259.578125 C 136.984375 258.515625 135.800781 257.828125 134.589844 257.695312 C 135.136719 257.082031 135.21875 256.160156 135.011719 255.363281 C 134.800781 254.570312 134.339844 253.867188 133.871094 253.1875 C 133.410156 252.511719 132.929688 251.824219 132.6875 251.039062 C 132.515625 250.488281 132.464844 249.90625 132.421875 249.328125 C 132.371094 248.699219 132.320312 248.066406 132.269531 247.4375 C 131.3125 247.453125 130.292969 246.890625 129.582031 246.25 C 129.164062 245.875 128.78125 245.449219 128.539062 244.9375 C 128.125 244.078125 128.148438 243.054688 128.410156 242.136719 C 128.671875 241.21875 129.140625 240.378906 129.609375 239.542969 L 129.652344 239.527344 C 127.902344 238.210938 126.882812 235.984375 127.019531 233.796875 C 127.046875 233.375 127.113281 232.929688 126.945312 232.53125 C 126.816406 232.21875 126.558594 231.980469 126.308594 231.757812 C 125.878906 231.371094 125.453125 230.980469 125.023438 230.59375 C 125.714844 229.808594 125.710938 228.714844 125.523438 227.683594 C 125.339844 226.652344 124.921875 225.679688 124.722656 224.652344 C 124.445312 223.253906 124.59375 221.777344 125.136719 220.460938 C 124.226562 220.09375 123.515625 219.429688 122.917969 218.660156 C 122.460938 218.074219 122.085938 217.398438 121.992188 216.660156 C 121.890625 215.867188 122.121094 215.0625 122.519531 214.371094 C 122.917969 213.675781 123.585938 213.050781 124.167969 212.507812 L 124.171875 212.507812 C 122.609375 210.4375 122.15625 207.546875 122.984375 205.085938 C 122.921875 204.8125 122.789062 204.550781 122.597656 204.34375 C 122.507812 204.234375 122.394531 204.144531 122.265625 204.097656 C 122.050781 204.023438 121.796875 204.078125 121.601562 203.960938 C 121.691406 203.75 121.925781 203.644531 122.050781 203.457031 C 122.132812 203.339844 122.160156 203.195312 122.171875 203.058594 C 122.199219 202.777344 122.148438 202.492188 122.035156 202.234375 C 119.898438 200.757812 118.53125 198.171875 118.542969 195.578125 L 118.539062 195.578125 C 117.746094 195.496094 116.835938 195.390625 116.105469 195.074219 C 115.371094 194.757812 114.703125 194.246094 114.3125 193.554688 C 113.941406 192.90625 113.839844 192.144531 113.855469 191.402344 C 113.878906 190.417969 114.046875 189.46875 114.550781 188.628906 C 113.328125 187.898438 112.328125 186.804688 111.710938 185.523438 C 111.257812 184.582031 111.007812 183.546875 110.539062 182.613281 C 110.070312 181.675781 109.417969 180.796875 108.394531 180.582031 C 108.507812 180.015625 108.617188 179.445312 108.730469 178.882812 C 108.796875 178.550781 108.855469 178.207031 108.777344 177.875 C 108.671875 177.464844 108.351562 177.148438 108.078125 176.820312 C 106.652344 175.152344 106.140625 172.757812 106.753906 170.65625 L 106.726562 170.664062 C 105.851562 170.28125 104.96875 169.886719 104.210938 169.304688 C 103.449219 168.722656 102.820312 167.921875 102.632812 166.984375 C 102.527344 166.429688 102.574219 165.859375 102.683594 165.308594 C 102.875 164.371094 103.351562 163.304688 104.128906 162.75 C 103.792969 162.214844 103.453125 161.675781 103.117188 161.140625 C 102.8125 160.652344 102.5 160.160156 102.304688 159.613281 C 102.027344 158.839844 102.003906 158.003906 101.964844 157.183594 C 101.929688 156.363281 101.886719 155.519531 101.578125 154.757812 C 101.273438 153.992188 100.652344 153.3125 99.84375 153.140625 C 100.730469 152.308594 101.269531 151.046875 101.113281 149.84375 C 100.984375 148.835938 100.460938 147.910156 100.332031 146.902344 C 100.171875 145.660156 100.671875 144.175781 101.113281 142.996094 C 99.679688 141.824219 98.761719 140.035156 98.644531 138.1875 C 98.617188 137.8125 98.625 137.421875 98.765625 137.066406 C 98.902344 136.710938 99.164062 136.421875 99.433594 136.152344 C 100.1875 135.402344 101.058594 134.757812 102.003906 134.265625 C 101.703125 133.179688 101.371094 132.054688 101.496094 130.941406 C 101.601562 129.996094 102.003906 129.121094 102.367188 128.242188 C 102.78125 127.25 103.316406 126.5625 103.621094 125.535156 C 103.742188 125.132812 103.691406 124.402344 103.675781 123.984375 C 103.660156 123.566406 103.507812 123.136719 103.179688 122.878906 C 103.777344 122.988281 104.304688 122.742188 104.804688 122.402344 C 106.519531 121.234375 107.261719 119.058594 108.804688 117.671875 C 109.964844 116.632812 111.492188 116.105469 113.019531 115.769531 C 113.519531 114.851562 114.15625 113.828125 114.792969 112.992188 C 115.199219 112.457031 115.65625 111.917969 116.285156 111.671875 C 117.054688 111.371094 117.925781 111.566406 118.695312 111.859375 C 119.578125 112.199219 120.410156 112.664062 121.152344 113.246094 C 121.402344 113.441406 121.648438 113.652344 121.941406 113.785156 C 122.230469 113.914062 122.574219 113.960938 122.863281 113.824219 C 124.421875 113.050781 126.492188 112.878906 128.125 113.472656 C 128.875 113.746094 129.574219 114.15625 130.339844 114.367188 C 131.316406 114.640625 132.414062 114.566406 133.277344 114.027344 C 133.644531 113.796875 133.960938 113.488281 134.320312 113.25 C 135.167969 112.675781 136.210938 112.496094 137.214844 112.328125 C 138.015625 112.671875 139.125 112.417969 139.8125 111.875 C 140.492188 111.332031 140.96875 110.582031 141.464844 109.863281 C 142.167969 108.84375 142.941406 107.859375 143.890625 107.0625 C 144.835938 106.261719 145.964844 105.644531 147.183594 105.445312 C 147.292969 104.59375 147.582031 103.703125 147.96875 102.9375 C 148.355469 102.175781 148.933594 101.496094 149.675781 101.066406 C 150.585938 100.542969 151.695312 100.429688 152.726562 100.621094 C 153.761719 100.808594 154.75 101.308594 155.609375 101.910156 C 157.082031 100.972656 158.808594 100.269531 160.53125 100.511719 C 161.378906 100.628906 162.183594 100.964844 162.976562 101.292969 C 163.769531 101.617188 164.574219 101.941406 165.429688 102.027344 C 166.28125 102.113281 167.378906 101.910156 168.011719 101.335938 C 167.90625 101.734375 168.039062 102.175781 168.273438 102.515625 C 168.511719 102.855469 168.847656 103.121094 169.183594 103.371094 C 170.042969 104.011719 170.949219 104.59375 171.875 105.144531 C 172.6875 105.621094 173.539062 106.085938 174.1875 106.78125 C 174.953125 107.601562 175.363281 108.699219 175.769531 109.75 C 176.824219 109.578125 177.898438 109.570312 178.957031 109.71875 C 179.332031 109.777344 179.71875 109.851562 180.042969 110.054688 C 180.363281 110.25 180.605469 110.554688 180.8125 110.878906 C 181.820312 112.429688 182.15625 114.410156 181.710938 116.207031 C 182.769531 116.886719 184.058594 117.777344 184.675781 118.867188 C 185.175781 119.753906 185.3125 120.804688 185.808594 121.691406 C 186.410156 122.753906 187.59375 123.441406 188.804688 123.574219 C 188.257812 124.1875 188.171875 125.109375 188.378906 125.90625 C 188.59375 126.703125 189.054688 127.402344 189.523438 128.082031 C 189.984375 128.757812 190.464844 129.445312 190.707031 130.230469 C 190.875 130.785156 190.925781 131.367188 190.972656 131.941406 C 191.023438 132.570312 191.074219 133.203125 191.125 133.835938 C 192.078125 133.816406 193.097656 134.378906 193.8125 135.019531 C 194.230469 135.394531 194.609375 135.824219 194.855469 136.332031 C 195.269531 137.191406 195.246094 138.214844 194.984375 139.132812 C 194.722656 140.050781 194.25 140.894531 193.78125 141.730469 L 193.753906 141.738281 C 195.503906 143.054688 196.523438 145.28125 196.386719 147.46875 C 196.355469 147.890625 196.292969 148.335938 196.457031 148.734375 C 196.585938 149.046875 196.847656 149.285156 197.097656 149.511719 C 197.523438 149.894531 197.953125 150.285156 198.382812 150.671875 C 197.691406 151.457031 197.695312 152.550781 197.878906 153.582031 C 198.066406 154.613281 198.484375 155.585938 198.683594 156.613281 C 198.957031 158.011719 198.8125 159.488281 198.269531 160.804688 C 199.179688 161.171875 199.890625 161.835938 200.488281 162.605469 C 200.945312 163.191406 201.316406 163.867188 201.414062 164.605469 C 201.515625 165.398438 201.285156 166.203125 200.886719 166.894531 C 200.488281 167.589844 199.820312 168.214844 199.238281 168.757812 L 199.234375 168.757812 C 200.796875 170.832031 201.246094 173.71875 200.421875 176.179688 C 200.484375 176.453125 200.617188 176.714844 200.808594 176.921875 C 200.898438 177.03125 201.011719 177.121094 201.140625 177.167969 C 201.355469 177.246094 201.609375 177.1875 201.804688 177.304688 C 201.714844 177.515625 201.480469 177.621094 201.355469 177.8125 C 201.273438 177.925781 201.246094 178.070312 201.234375 178.207031 C 201.207031 178.488281 201.257812 178.777344 201.371094 179.03125 C 203.503906 180.507812 204.875 183.09375 204.859375 185.6875 L 204.867188 185.6875 C 205.660156 185.769531 206.570312 185.878906 207.300781 186.191406 C 208.035156 186.507812 208.703125 187.019531 209.09375 187.710938 C 209.460938 188.359375 209.566406 189.121094 209.550781 189.863281 C 209.527344 190.847656 209.359375 191.796875 208.855469 192.636719 C 210.078125 193.367188 211.078125 194.460938 211.695312 195.742188 C 212.148438 196.683594 212.398438 197.71875 212.867188 198.65625 C 213.335938 199.59375 213.988281 200.46875 215.011719 200.683594 C 214.898438 201.25 214.789062 201.820312 214.675781 202.382812 C 214.609375 202.714844 214.550781 203.058594 214.628906 203.390625 C 214.734375 203.800781 215.054688 204.117188 215.328125 204.445312 C 216.753906 206.113281 217.265625 208.507812 216.652344 210.609375 L 216.667969 210.605469 C 217.542969 210.988281 218.425781 211.382812 219.183594 211.964844 C 219.945312 212.550781 220.570312 213.347656 220.757812 214.285156 C 220.867188 214.839844 220.820312 215.410156 220.707031 215.960938 C 220.519531 216.898438 220.042969 217.96875 219.265625 218.519531 C 219.601562 219.054688 219.941406 219.59375 220.277344 220.128906 C 220.582031 220.617188 220.894531 221.113281 221.089844 221.65625 C 221.363281 222.429688 221.390625 223.269531 221.425781 224.089844 C 221.460938 224.910156 221.507812 225.75 221.8125 226.511719 C 222.121094 227.277344 222.742188 227.957031 223.550781 228.128906 C 222.664062 228.960938 222.125 230.222656 222.277344 231.425781 C 222.410156 232.433594 222.929688 233.359375 223.0625 234.367188 C 223.222656 235.613281 222.722656 237.097656 222.28125 238.273438 C 223.714844 239.449219 224.632812 241.234375 224.75 243.082031 C 224.777344 243.460938 224.765625 243.847656 224.628906 244.203125 C 224.492188 244.558594 224.230469 244.847656 223.957031 245.117188 C 223.203125 245.871094 222.332031 246.511719 221.390625 247.003906 C 221.6875 248.089844 222.019531 249.214844 221.898438 250.332031 C 221.792969 251.273438 221.390625 252.148438 221.027344 253.027344 C 220.613281 254.019531 220.085938 254.921875 219.777344 255.953125 C 219.65625 256.351562 219.699219 256.867188 219.714844 257.285156 C 219.734375 257.703125 219.882812 258.132812 220.210938 258.390625 C 219.359375 258.308594 218.34375 258.746094 217.714844 259.324219 C 217.082031 259.90625 216.625 260.644531 216.1875 261.382812 C 215.746094 262.117188 215.308594 262.867188 214.699219 263.46875 C 213.460938 264.695312 211.652344 265.167969 209.917969 265.296875 C 209.585938 266.292969 209.089844 267.285156 208.382812 268.058594 C 207.671875 268.824219 206.710938 269.402344 205.667969 269.523438 C 204.820312 269.625 203.949219 269.425781 203.179688 269.050781 C 202.414062 268.671875 201.648438 268.132812 201.050781 267.511719 C 199.953125 268.082031 198.683594 268.261719 197.445312 268.1875 C 196.207031 268.117188 195 267.789062 193.824219 267.394531 C 193 267.117188 192.167969 266.800781 191.296875 266.777344 C 190.429688 266.75 189.382812 267.214844 188.945312 267.96875 C 188.039062 268.433594 187.09375 268.910156 186.074219 268.964844 C 185.640625 268.984375 185.203125 268.929688 184.773438 268.964844 C 183.765625 269.046875 182.839844 269.644531 182.21875 270.449219 C 181.734375 271.082031 181.421875 271.828125 180.980469 272.492188 C 180.027344 273.945312 178.261719 275.054688 176.554688 275.363281 C 176.242188 275.421875 175.988281 275.667969 175.839844 275.949219 C 175.683594 276.226562 175.613281 276.542969 175.53125 276.851562 C 175.28125 277.761719 174.894531 278.628906 174.390625 279.429688 C 173.953125 280.128906 173.371094 280.804688 172.574219 281.023438 C 171.917969 281.1875 171.230469 281.035156 170.582031 280.847656 Z M 170.582031 280.847656 " fill-opacity="1" fill-rule="nonzero"/></g></g></g></g></g></g><g clip-path="url(#b8a62b50c6)"><g clip-path="url(#49a0582afc)"><g clip-path="url(#212c5414a9)"><g clip-path="url(#4e478755d7)"><g clip-path="url(#a506f638c7)"><g clip-path="url(#5819e67d0c)"><path fill="#ffffff" d="M 180.496094 89.246094 L 237.460938 260.582031 L 142.875 292.03125 L 85.910156 120.695312 Z M 180.496094 89.246094 " fill-opacity="1" fill-rule="nonzero"/></g></g></g></g></g></g><g clip-path="url(#dd933df2f9)"><g clip-path="url(#1e40934c58)"><g clip-path="url(#69c08c5bcf)"><g clip-path="url(#fb4d7e9dc3)"><g clip-path="url(#c10b8852ca)"><g clip-path="url(#4ea1478dbf)"><path stroke-linecap="butt" transform="matrix(0.236615, 0.711697, -0.711697, 0.236615, 180.493029, 89.23353)" fill="none" stroke-linejoin="miter" d="M 0.00124194 6.99961 L -0.00137582 125.904596 C 0.00164849 129.775092 3.131787 132.906926 7.000639 132.908844 L 233.780513 132.907875 C 237.646066 132.903207 240.782842 129.774712 240.779818 125.904216 L 240.782436 6.999229 C 240.782711 3.13532 237.64763 0.00184252 233.778777 -0.0000755166 L 6.998904 0.000893504 C 3.134994 0.000618627 0.00151681 3.1357 0.00124194 6.99961 Z M 0.00124194 6.99961 " stroke="#10584f" stroke-width="16" stroke-opacity="1" stroke-miterlimit="4"/></g></g></g></g></g></g><g clip-path="url(#7fe1e6451a)"><g clip-path="url(#7d4ca1fcd9)"><g clip-path="url(#18bb54507a)"><path fill="#10584f" d="M 48.105469 142.136719 L 145.347656 113.644531 L 147.539062 121.125 L 50.296875 149.617188 Z M 48.105469 142.136719 " fill-opacity="1" fill-rule="nonzero"/></g></g></g><g clip-path="url(#93ef870df5)"><g clip-path="url(#f54dc5b00a)"><g clip-path="url(#3d6db8e594)"><path fill="#10584f" d="M 177.3125 204.949219 C 179.253906 203.578125 181.003906 202 182.546875 200.257812 L 192.242188 202.410156 L 197.527344 191.40625 L 189.789062 185.183594 C 190.183594 182.890625 190.320312 180.535156 190.175781 178.167969 L 198.550781 172.835938 L 194.507812 161.316406 L 184.636719 162.390625 C 183.269531 160.449219 181.691406 158.699219 179.949219 157.15625 L 182.101562 147.460938 L 171.09375 142.175781 L 164.875 149.914062 C 162.582031 149.519531 160.226562 149.382812 157.855469 149.523438 L 152.527344 141.152344 L 141.007812 145.195312 L 142.078125 155.0625 C 140.140625 156.433594 138.390625 158.011719 136.847656 159.753906 L 127.152344 157.601562 L 121.867188 168.609375 L 129.605469 174.828125 C 129.210938 177.121094 129.074219 179.476562 129.214844 181.847656 L 120.84375 187.175781 L 124.886719 198.695312 L 134.753906 197.621094 C 136.125 199.5625 137.703125 201.3125 139.445312 202.855469 L 137.292969 212.550781 L 148.296875 217.835938 L 154.519531 210.097656 C 156.8125 210.496094 159.167969 210.632812 161.539062 210.488281 L 166.867188 218.859375 L 178.386719 214.816406 Z M 167.003906 200.824219 C 178.5 196.789062 184.550781 184.195312 180.515625 172.699219 C 176.480469 161.203125 163.882812 155.152344 152.386719 159.1875 C 140.894531 163.222656 134.84375 175.820312 138.878906 187.316406 C 142.914062 198.8125 155.511719 204.859375 167.003906 200.824219 Z M 169.722656 162.964844 C 164.878906 160.121094 158.863281 159.34375 153.148438 161.351562 C 142.84375 164.964844 137.425781 176.253906 141.039062 186.554688 C 143.046875 192.269531 147.414062 196.480469 152.664062 198.484375 C 148.773438 196.199219 145.640625 192.582031 144.03125 187.992188 C 140.414062 177.691406 145.835938 166.402344 156.136719 162.785156 C 160.726562 161.175781 165.507812 161.359375 169.722656 162.964844 Z M 169.722656 162.964844 " fill-opacity="1" fill-rule="evenodd"/></g></g></g><g fill="#ffbc77" fill-opacity="1"><g transform="translate(159.553058, 257.502842)"><g><path d="M 11.214844 -7.105469 L 13.105469 -4.375 L 18.523438 -6.183594 L 5.253906 -25.097656 L -0.414062 -23.203125 L 0.253906 -0.0859375 L 5.710938 -1.90625 L 5.542969 -5.210938 Z M 8.144531 -11.542969 L 5.414062 -10.628906 L 4.738281 -17.128906 Z M 8.144531 -11.542969 "/></g></g></g><g fill="#ffbc77" fill-opacity="1"><g transform="translate(178.327949, 251.235974)"><g><path d="M 2.734375 -24.253906 L -5.835938 -21.394531 L 1.175781 -0.390625 L 6.761719 -2.257812 L 4.28125 -9.691406 L 7.894531 -10.898438 C 11.464844 -12.507812 12.738281 -15.550781 11.40625 -19.539062 C 9.945312 -23.90625 6.808594 -25.613281 2.734375 -24.253906 Z M 5.132812 -15.53125 L 2.613281 -14.691406 L 1.449219 -18.175781 L 3.96875 -19.019531 C 5.160156 -19.367188 6.070312 -19.019531 6.449219 -17.886719 C 6.8125 -16.792969 6.308594 -15.925781 5.132812 -15.53125 Z M 5.132812 -15.53125 "/></g></g></g><g fill="#ffbc77" fill-opacity="1"><g transform="translate(195.296752, 245.571961)"><g><path d="M -0.246094 -23.257812 L -5.835938 -21.394531 L 1.175781 -0.390625 L 6.761719 -2.257812 Z M -0.246094 -23.257812 "/></g></g></g><g clip-path="url(#c1eadd9384)"><g clip-path="url(#b5e58f1763)"><path fill="#10584f" d="M 187.066406 64.566406 L 245.769531 64.566406 L 245.769531 123.269531 L 187.066406 123.269531 Z M 187.066406 64.566406 " fill-opacity="1" fill-rule="nonzero"/></g></g><g clip-path="url(#e7be81235c)"><g clip-path="url(#74c303e3df)"><path stroke-linecap="butt" transform="matrix(0.75, 0, 0, 0.75, 187.066927, 64.56685)" fill="none" stroke-linejoin="miter" d="M 41.436809 3.270242 L 44.426392 7.515034 C 45.759726 9.405659 48.254518 10.077534 50.358684 9.103575 L 55.067018 6.921284 C 55.900352 6.535867 56.869102 6.582742 57.660768 7.041075 C 58.457643 7.499409 58.978477 8.311909 59.056602 9.228575 L 59.525352 14.395242 C 59.733685 16.702534 61.56181 18.530659 63.869102 18.738993 L 69.040977 19.207743 C 69.952436 19.291076 70.770144 19.811909 71.228478 20.603576 C 71.681603 21.395243 71.728478 22.363993 71.343061 23.197326 L 69.160769 27.90566 C 68.192019 30.009827 68.858686 32.504619 70.754519 33.837952 L 74.994103 36.827536 C 75.744103 37.358786 76.19202 38.218161 76.19202 39.134827 C 76.19202 40.051494 75.744103 40.910869 74.994103 41.436911 L 70.754519 44.426494 C 68.858686 45.759828 68.192019 48.25462 69.160769 50.358786 L 71.343061 55.06712 C 71.728478 55.900453 71.681603 56.869204 71.228478 57.66087 C 70.770144 58.457745 69.952436 58.978579 69.040977 59.056704 L 63.869102 59.525454 C 61.56181 59.733787 59.733685 61.561912 59.525352 63.869204 L 59.056602 69.041079 C 58.978477 69.952538 58.457643 70.770246 57.660768 71.223371 C 56.869102 71.681704 55.900352 71.728579 55.067018 71.343163 L 50.358684 69.160871 C 48.254518 68.186913 45.759726 68.858788 44.426392 70.754621 L 41.436809 74.994205 C 40.910767 75.744205 40.051392 76.192121 39.134725 76.192121 C 38.218059 76.192121 37.358684 75.744205 36.827434 74.994205 L 33.83785 70.754621 C 32.504517 68.858788 30.009725 68.186913 27.905558 69.160871 L 23.197224 71.343163 C 22.363891 71.728579 21.395141 71.681704 20.603474 71.223371 C 19.811807 70.770246 19.290974 69.952538 19.207641 69.041079 L 18.738891 63.869204 C 18.530557 61.561912 16.702432 59.733787 14.39514 59.525454 L 9.228473 59.056704 C 8.311807 58.978579 7.499307 58.457745 7.040973 57.66087 C 6.58264 56.869204 6.535765 55.900453 6.921182 55.06712 L 9.103473 50.358786 C 10.077432 48.25462 9.405557 45.759828 7.514932 44.426494 L 3.27014 41.436911 C 2.52014 40.910869 2.077431 40.051494 2.077431 39.134827 C 2.077431 38.218161 2.52014 37.358786 3.27014 36.827536 L 7.514932 33.837952 C 9.405557 32.504619 10.077432 30.009827 9.103473 27.90566 L 6.921182 23.197326 C 6.535765 22.363993 6.58264 21.395243 7.040973 20.603576 C 7.499307 19.811909 8.311807 19.291076 9.228473 19.207743 L 14.39514 18.738993 C 16.702432 18.530659 18.530557 16.702534 18.738891 14.395242 L 19.207641 9.228575 C 19.290974 8.311909 19.811807 7.499409 20.603474 7.041075 C 21.395141 6.582742 22.363891 6.535867 23.197224 6.921284 L 27.905558 9.103575 C 30.009725 10.077534 32.504517 9.405659 33.83785 7.515034 L 36.827434 3.270242 C 37.358684 2.520242 38.218059 2.072325 39.134725 2.072325 C 40.051392 2.072325 40.910767 2.520242 41.436809 3.270242 Z M 41.436809 3.270242 " stroke="#10584f" stroke-width="8" stroke-opacity="1" stroke-miterlimit="4"/></g></g><g clip-path="url(#cd94642d33)"><g clip-path="url(#58717d5c14)"><path fill="#139ba8" d="M 197.101562 59.882812 L 255.804688 59.882812 L 255.804688 118.585938 L 197.101562 118.585938 Z M 197.101562 59.882812 " fill-opacity="1" fill-rule="nonzero"/></g></g><g clip-path="url(#e532dd2e03)"><g clip-path="url(#1d87c309b4)"><path stroke-linecap="butt" transform="matrix(0.75, 0, 0, 0.75, 197.100944, 59.88146)" fill="none" stroke-linejoin="miter" d="M 41.438327 3.267428 L 44.42791 7.51222 C 45.761244 9.408054 48.256036 10.074721 50.360202 9.100762 L 55.068536 6.923679 C 55.90187 6.538262 56.87062 6.579929 57.662286 7.038262 C 58.453953 7.496595 58.974786 8.314304 59.05812 9.225762 L 59.52687 14.397638 C 59.735203 16.704929 61.563328 18.533054 63.87062 18.741388 L 69.037287 19.20493 C 69.953954 19.288263 70.766454 19.809096 71.224787 20.605971 C 71.683121 21.397638 71.729996 22.366388 71.344579 23.194513 L 69.162287 27.908055 C 68.188329 30.007014 68.860204 32.507014 70.750829 33.840347 L 74.995621 36.829931 C 75.745621 37.355972 76.188329 38.215347 76.188329 39.132014 C 76.188329 40.048681 75.745621 40.908056 74.995621 41.434098 L 70.750829 44.423681 C 68.860204 45.762223 68.188329 48.257015 69.162287 50.361182 L 71.344579 55.069515 C 71.729996 55.902849 71.683121 56.86639 71.224787 57.663265 C 70.766454 58.454932 69.953954 58.975765 69.037287 59.059099 L 63.87062 59.527849 C 61.563328 59.736182 59.735203 61.564307 59.52687 63.871599 L 59.05812 69.038266 C 58.974786 69.949725 58.453953 70.767433 57.662286 71.225766 C 56.87062 71.6841 55.90187 71.725766 55.068536 71.34035 L 50.360202 69.163266 C 48.256036 68.189308 45.761244 68.855974 44.42791 70.751808 L 41.438327 74.9966 C 40.907077 75.7466 40.047702 76.189308 39.131035 76.189308 C 38.214368 76.189308 37.354993 75.7466 36.828952 74.9966 L 33.839368 70.751808 C 32.506035 68.855974 30.011243 68.189308 27.907076 69.163266 L 23.193534 71.34035 C 22.365409 71.725766 21.396659 71.6841 20.604992 71.225766 C 19.808117 70.767433 19.287284 69.949725 19.20395 69.038266 L 18.740409 63.871599 C 18.532075 61.564307 16.70395 59.736182 14.396658 59.527849 L 9.224783 59.059099 C 8.313325 58.975765 7.495616 58.454932 7.037283 57.663265 C 6.57895 56.86639 6.537283 55.902849 6.9227 55.069515 L 9.104991 50.361182 C 10.073742 48.257015 9.407075 45.762223 7.511241 44.423681 L 3.271658 41.434098 C 2.521658 40.908056 2.073741 40.048681 2.073741 39.132014 C 2.073741 38.215347 2.521658 37.355972 3.271658 36.829931 L 7.511241 33.840347 C 9.407075 32.507014 10.073742 30.007014 9.104991 27.908055 L 6.9227 23.194513 C 6.537283 22.366388 6.57895 21.397638 7.037283 20.605971 C 7.495616 19.809096 8.313325 19.288263 9.224783 19.20493 L 14.396658 18.741388 C 16.70395 18.533054 18.532075 16.704929 18.740409 14.397638 L 19.20395 9.225762 C 19.287284 8.314304 19.808117 7.496595 20.604992 7.038262 C 21.396659 6.579929 22.365409 6.538262 23.193534 6.923679 L 27.907076 9.100762 C 30.011243 10.074721 32.506035 9.408054 33.839368 7.51222 L 36.828952 3.267428 C 37.354993 2.522637 38.214368 2.07472 39.131035 2.07472 C 40.047702 2.07472 40.907077 2.522637 41.438327 3.267428 Z M 41.438327 3.267428 " stroke="#10584f" stroke-width="8" stroke-opacity="1" stroke-miterlimit="4"/></g></g><g clip-path="url(#61b93ae06a)"><g clip-path="url(#44416091d8)"><path fill="#10584f" d="M 209.46875 124.207031 L 268.171875 124.207031 L 268.171875 182.910156 L 209.46875 182.910156 Z M 209.46875 124.207031 " fill-opacity="1" fill-rule="nonzero"/></g></g><g clip-path="url(#f71d04b5c2)"><g clip-path="url(#02f90d091c)"><path stroke-linecap="butt" transform="matrix(0.75, 0, 0, 0.75, 209.467109, 124.206496)" fill="none" stroke-linejoin="miter" d="M 41.434482 3.271547 L 44.424066 7.511131 C 45.757399 9.406964 48.257399 10.073631 50.356358 9.104881 L 55.0699 6.922589 C 55.903233 6.537173 56.866775 6.584048 57.66365 7.037173 C 58.455317 7.495506 58.97615 8.313214 59.059483 9.224673 L 59.528233 14.396548 C 59.736567 16.70384 61.564692 18.531965 63.871984 18.740298 L 69.038651 19.209048 C 69.950109 19.287173 70.767817 19.808007 71.226151 20.604882 C 71.684484 21.396549 71.726151 22.365299 71.340734 23.198632 L 69.163651 27.906966 C 68.189692 30.011133 68.856359 32.505924 70.752192 33.839258 L 74.996984 36.828841 C 75.746984 37.354883 76.189693 38.214258 76.189693 39.130925 C 76.189693 40.047592 75.746984 40.906967 74.996984 41.438217 L 70.752192 44.4278 C 68.856359 45.761134 68.189692 48.255925 69.163651 50.360092 L 71.340734 55.068426 C 71.726151 55.901759 71.684484 56.870509 71.226151 57.662176 C 70.767817 58.453843 69.950109 58.974676 69.038651 59.058009 L 63.871984 59.526759 C 61.564692 59.735093 59.736567 61.563218 59.528233 63.87051 L 59.059483 69.037177 C 58.97615 69.953843 58.455317 70.766344 57.66365 71.224677 C 56.866775 71.68301 55.903233 71.729885 55.0699 71.344469 L 50.356358 69.162177 C 48.257399 68.188218 45.757399 68.860093 44.424066 70.750719 L 41.434482 74.99551 C 40.90844 75.745511 40.049065 76.188219 39.132399 76.188219 C 38.215732 76.188219 37.356357 75.745511 36.830315 74.99551 L 33.840732 70.750719 C 32.507398 68.860093 30.007398 68.188218 27.90844 69.162177 L 23.194898 71.344469 C 22.366773 71.729885 21.398023 71.68301 20.606356 71.224677 C 19.809481 70.766344 19.288647 69.953843 19.205314 69.037177 L 18.741772 63.87051 C 18.533439 61.563218 16.705314 59.735093 14.398022 59.526759 L 9.226147 59.058009 C 8.314688 58.974676 7.49698 58.453843 7.038647 57.662176 C 6.580313 56.870509 6.538647 55.901759 6.924063 55.068426 L 9.101147 50.360092 C 10.075105 48.255925 9.408438 45.761134 7.512605 44.4278 L 3.267813 41.438217 C 2.523021 40.906967 2.075105 40.047592 2.075105 39.130925 C 2.075105 38.214258 2.523021 37.354883 3.267813 36.828841 L 7.512605 33.839258 C 9.408438 32.505924 10.075105 30.011133 9.101147 27.906966 L 6.924063 23.198632 C 6.538647 22.365299 6.580313 21.396549 7.038647 20.604882 C 7.49698 19.808007 8.314688 19.287173 9.226147 19.209048 L 14.398022 18.740298 C 16.705314 18.531965 18.533439 16.70384 18.741772 14.396548 L 19.205314 9.224673 C 19.288647 8.313214 19.809481 7.495506 20.606356 7.037173 C 21.398023 6.584048 22.366773 6.537173 23.194898 6.922589 L 27.90844 9.104881 C 30.007398 10.073631 32.507398 9.406964 33.840732 7.511131 L 36.830315 3.271547 C 37.356357 2.521547 38.215732 2.073631 39.132399 2.073631 C 40.049065 2.073631 40.90844 2.521547 41.434482 3.271547 Z M 41.434482 3.271547 " stroke="#10584f" stroke-width="8" stroke-opacity="1" stroke-miterlimit="4"/></g></g><g clip-path="url(#f02481f7c7)"><g clip-path="url(#f1757a7657)"><path fill="#ffbc77" d="M 219.5 119.519531 L 278.207031 119.519531 L 278.207031 178.226562 L 219.5 178.226562 Z M 219.5 119.519531 " fill-opacity="1" fill-rule="nonzero"/></g></g><g clip-path="url(#50c7822166)"><g clip-path="url(#c42879debc)"><path stroke-linecap="butt" transform="matrix(0.75, 0, 0, 0.75, 219.501141, 119.520988)" fill="none" stroke-linejoin="miter" d="M 41.435981 3.268891 L 44.425565 7.513683 C 45.758898 9.409516 48.258898 10.076183 50.357857 9.102225 L 55.071399 6.925141 C 55.899524 6.539725 56.868274 6.581391 57.65994 7.039725 C 58.456815 7.498058 58.977649 8.315766 59.060982 9.227225 L 59.524524 14.393892 C 59.732857 16.701184 61.560982 18.529309 63.868274 18.737642 L 69.040149 19.206392 C 69.951608 19.289725 70.769316 19.810559 71.22765 20.602225 C 71.685983 21.399101 71.72765 22.362642 71.342233 23.195976 L 69.159941 27.904309 C 68.191191 30.008476 68.857858 32.508476 70.753691 33.84181 L 74.993275 36.831393 C 75.743275 37.357435 76.191192 38.21681 76.191192 39.133477 C 76.191192 40.050143 75.743275 40.909518 74.993275 41.43556 L 70.753691 44.425144 C 68.857858 45.758477 68.191191 48.258477 69.159941 50.357436 L 71.342233 55.070978 C 71.72765 55.899103 71.685983 56.867853 71.22765 57.65952 C 70.769316 58.456395 69.951608 58.977228 69.040149 59.060561 L 63.868274 59.524103 C 61.560982 59.732436 59.732857 61.560562 59.524524 63.867853 L 59.060982 69.039729 C 58.977649 69.951187 58.456815 70.768895 57.65994 71.227229 C 56.868274 71.685562 55.899524 71.727229 55.071399 71.341812 L 50.357857 69.164729 C 48.258898 68.19077 45.758898 68.857437 44.425565 70.75327 L 41.435981 74.998062 C 40.909939 75.742854 40.050564 76.190771 39.133898 76.190771 C 38.217231 76.190771 37.357856 75.742854 36.831814 74.998062 L 33.842231 70.75327 C 32.503689 68.857437 30.008897 68.19077 27.90473 69.164729 L 23.196396 71.341812 C 22.363063 71.727229 21.399521 71.685562 20.602646 71.227229 C 19.81098 70.768895 19.290146 69.951187 19.206813 69.039729 L 18.738063 63.867853 C 18.52973 61.560562 16.701604 59.732436 14.394313 59.524103 L 9.227646 59.060561 C 8.310979 58.977228 7.498479 58.456395 7.040145 57.65952 C 6.581812 56.867853 6.540145 55.899103 6.920354 55.070978 L 9.102646 50.357436 C 10.076604 48.258477 9.404729 45.758477 7.514104 44.425144 L 3.269312 41.43556 C 2.519312 40.909518 2.076603 40.050143 2.076603 39.133477 C 2.076603 38.21681 2.519312 37.357435 3.269312 36.831393 L 7.514104 33.84181 C 9.404729 32.508476 10.076604 30.008476 9.102646 27.904309 L 6.920354 23.195976 C 6.540145 22.362642 6.581812 21.399101 7.040145 20.602225 C 7.498479 19.810559 8.310979 19.289725 9.227646 19.206392 L 14.394313 18.737642 C 16.701604 18.529309 18.52973 16.701184 18.738063 14.393892 L 19.206813 9.227225 C 19.290146 8.315766 19.81098 7.498058 20.602646 7.039725 C 21.399521 6.581391 22.363063 6.539725 23.196396 6.925141 L 27.90473 9.102225 C 30.008897 10.076183 32.503689 9.409516 33.842231 7.513683 L 36.831814 3.268891 C 37.357856 2.518891 38.217231 2.076183 39.133898 2.076183 C 40.050564 2.076183 40.909939 2.518891 41.435981 3.268891 Z M 41.435981 3.268891 " stroke="#10584f" stroke-width="8" stroke-opacity="1" stroke-miterlimit="4"/></g></g><g clip-path="url(#3805c9a82c)"><g clip-path="url(#e5232e89a7)"><path fill="#10584f" d="M 231.378906 187.597656 L 290.082031 187.597656 L 290.082031 246.300781 L 231.378906 246.300781 Z M 231.378906 187.597656 " fill-opacity="1" fill-rule="nonzero"/></g></g><g clip-path="url(#9d6611722d)"><g clip-path="url(#deaa796e9e)"><path stroke-linecap="butt" transform="matrix(0.75, 0, 0, 0.75, 231.377553, 187.596024)" fill="none" stroke-linejoin="miter" d="M 41.434099 3.267802 L 44.423683 7.512594 C 45.762225 9.408427 48.257016 10.075094 50.361183 9.101136 L 55.069517 6.924052 C 55.90285 6.538636 56.866392 6.580302 57.663267 7.038636 C 58.454934 7.496969 58.975767 8.314677 59.059101 9.226136 L 59.527851 14.398011 C 59.736184 16.705303 61.564309 18.533428 63.871601 18.741761 L 69.038268 19.205303 C 69.949726 19.288636 70.767435 19.80947 71.225768 20.606345 C 71.684101 21.398011 71.725768 22.366762 71.340351 23.194887 L 69.163268 27.908429 C 68.189309 30.007387 68.855976 32.507387 70.75181 33.840721 L 74.996602 36.830304 C 75.746602 37.356346 76.18931 38.215721 76.18931 39.132388 C 76.18931 40.049054 75.746602 40.908429 74.996602 41.434471 L 70.75181 44.424055 C 68.855976 45.757388 68.189309 48.257388 69.163268 50.356347 L 71.340351 55.069889 C 71.725768 55.903222 71.684101 56.866764 71.225768 57.663639 C 70.767435 58.455306 69.949726 58.976139 69.038268 59.059472 L 63.871601 59.528222 C 61.564309 59.736556 59.736184 61.564681 59.527851 63.871973 L 59.059101 69.03864 C 58.975767 69.950098 58.454934 70.767806 57.663267 71.22614 C 56.866392 71.684473 55.90285 71.72614 55.069517 71.340723 L 50.361183 69.16364 C 48.257016 68.189681 45.762225 68.856348 44.423683 70.752181 L 41.434099 74.996973 C 40.908058 75.746973 40.048683 76.189682 39.132016 76.189682 C 38.215349 76.189682 37.355974 75.746973 36.829932 74.996973 L 33.840349 70.752181 C 32.507015 68.856348 30.007015 68.189681 27.908057 69.16364 L 23.194515 71.340723 C 22.36639 71.72614 21.39764 71.684473 20.605973 71.22614 C 19.809098 70.767806 19.288265 69.950098 19.204931 69.03864 L 18.74139 63.871973 C 18.533056 61.564681 16.704931 59.736556 14.397639 59.528222 L 9.225764 59.059472 C 8.314306 58.976139 7.496597 58.455306 7.038264 57.663639 C 6.57993 56.866764 6.538264 55.903222 6.92368 55.069889 L 9.100764 50.356347 C 10.074722 48.257388 9.408056 45.757388 7.512222 44.424055 L 3.26743 41.434471 C 2.522638 40.908429 2.074722 40.049054 2.074722 39.132388 C 2.074722 38.215721 2.522638 37.356346 3.26743 36.830304 L 7.512222 33.840721 C 9.408056 32.507387 10.074722 30.007387 9.100764 27.908429 L 6.92368 23.194887 C 6.538264 22.366762 6.57993 21.398011 7.038264 20.606345 C 7.496597 19.80947 8.314306 19.288636 9.225764 19.205303 L 14.397639 18.741761 C 16.704931 18.533428 18.533056 16.705303 18.74139 14.398011 L 19.204931 9.226136 C 19.288265 8.314677 19.809098 7.496969 20.605973 7.038636 C 21.39764 6.580302 22.36639 6.538636 23.194515 6.924052 L 27.908057 9.101136 C 30.007015 10.075094 32.507015 9.408427 33.840349 7.512594 L 36.829932 3.267802 C 37.355974 2.52301 38.215349 2.075094 39.132016 2.075094 C 40.048683 2.075094 40.908058 2.52301 41.434099 3.267802 Z M 41.434099 3.267802 " stroke="#10584f" stroke-width="8" stroke-opacity="1" stroke-miterlimit="4"/></g></g><g clip-path="url(#c1a6c7c368)"><g clip-path="url(#a2f1535a3a)"><path fill="#9bd9df" d="M 241.410156 182.910156 L 300.117188 182.910156 L 300.117188 241.613281 L 241.410156 241.613281 Z M 241.410156 182.910156 " fill-opacity="1" fill-rule="nonzero"/></g></g><g clip-path="url(#b0030e37ea)"><g clip-path="url(#0748c38fa1)"><path stroke-linecap="butt" transform="matrix(0.75, 0, 0, 0.75, 241.411541, 182.910634)" fill="none" stroke-linejoin="miter" d="M 41.435656 3.270197 L 44.425239 7.514989 C 45.758573 9.405614 48.258573 10.077489 50.357531 9.103531 L 55.071073 6.921239 C 55.899198 6.535822 56.867948 6.582697 57.659615 7.041031 C 58.45649 7.499364 58.977324 8.311864 59.060657 9.228531 L 59.524199 14.395198 C 59.732532 16.70249 61.560657 18.530615 63.867949 18.738948 L 69.039824 19.207698 C 69.951283 19.291031 70.768991 19.811865 71.227324 20.603532 C 71.685658 21.395198 71.727324 22.363948 71.341908 23.197282 L 69.164824 27.905615 C 68.190866 30.009782 68.857533 32.504574 70.753366 33.837907 L 74.998158 36.827491 C 75.74295 37.358741 76.190866 38.218116 76.190866 39.134783 C 76.190866 40.05145 75.74295 40.910825 74.998158 41.436866 L 70.753366 44.42645 C 68.857533 45.759783 68.190866 48.254575 69.164824 50.358742 L 71.341908 55.067075 C 71.727324 55.900409 71.685658 56.869159 71.227324 57.660826 C 70.768991 58.457701 69.951283 58.978534 69.039824 59.056659 L 63.867949 59.525409 C 61.560657 59.733742 59.732532 61.561868 59.524199 63.869159 L 59.060657 69.041035 C 58.977324 69.952493 58.45649 70.770202 57.659615 71.223327 C 56.867948 71.68166 55.899198 71.728535 55.071073 71.343118 L 50.357531 69.160826 C 48.258573 68.186868 45.758573 68.858743 44.425239 70.754577 L 41.435656 74.99416 C 40.909614 75.74416 40.050239 76.192077 39.133572 76.192077 C 38.216906 76.192077 37.357531 75.74416 36.831489 74.99416 L 33.841905 70.754577 C 32.503364 68.858743 30.008572 68.186868 27.904405 69.160826 L 23.196071 71.343118 C 22.362738 71.728535 21.399196 71.68166 20.602321 71.223327 C 19.810654 70.770202 19.289821 69.952493 19.206488 69.041035 L 18.737738 63.869159 C 18.529404 61.561868 16.701279 59.733742 14.393987 59.525409 L 9.22732 59.056659 C 8.315862 58.978534 7.498154 58.457701 7.03982 57.660826 C 6.581487 56.869159 6.53982 55.900409 6.925237 55.067075 L 9.10232 50.358742 C 10.076279 48.254575 9.409612 45.759783 7.513779 44.42645 L 3.268987 41.436866 C 2.518987 40.910825 2.076278 40.05145 2.076278 39.134783 C 2.076278 38.218116 2.518987 37.358741 3.268987 36.827491 L 7.513779 33.837907 C 9.409612 32.504574 10.076279 30.009782 9.10232 27.905615 L 6.925237 23.197282 C 6.53982 22.363948 6.581487 21.395198 7.03982 20.603532 C 7.498154 19.811865 8.315862 19.291031 9.22732 19.207698 L 14.393987 18.738948 C 16.701279 18.530615 18.529404 16.70249 18.737738 14.395198 L 19.206488 9.228531 C 19.289821 8.311864 19.810654 7.499364 20.602321 7.041031 C 21.399196 6.582697 22.362738 6.535822 23.196071 6.921239 L 27.904405 9.103531 C 30.008572 10.077489 32.503364 9.405614 33.841905 7.514989 L 36.831489 3.270197 C 37.357531 2.520197 38.216906 2.07228 39.133572 2.07228 C 40.050239 2.07228 40.909614 2.520197 41.435656 3.270197 Z M 41.435656 3.270197 " stroke="#10584f" stroke-width="8" stroke-opacity="1" stroke-miterlimit="4"/></g></g></svg>