<?xml version="1.0" encoding="utf-8"?><!-- Uploaded to: SVG Repo, www.svgrepo.com, Generator: SVG Repo Mixer Tools -->
<svg width="800px" height="800px" viewBox="0 0 64 64" fill="none" xmlns="http://www.w3.org/2000/svg">
<path fill-rule="evenodd" clip-rule="evenodd" d="M12.0471 25.5969L28.8812 18.5442L40.6727 46.2297L23.8134 53.3824L12.0471 25.5969Z" fill="#2A2941"/>
<path fill-rule="evenodd" clip-rule="evenodd" d="M14.2297 21.4704L31.0639 14.4177L42.8554 42.1783L25.971 49.331L14.2297 21.4704Z" fill="white"/>
<path fill-rule="evenodd" clip-rule="evenodd" d="M31.4904 13.3674L13.1509 21.0454L25.5445 50.3315L43.9091 42.5535L31.4904 13.3674ZM15.2834 21.9207L30.6123 15.4932L41.7766 41.7032L26.3724 48.2057L15.2583 21.9207H15.2834Z" fill="#2A2941"/>
<path fill-rule="evenodd" clip-rule="evenodd" d="M26.3724 23.196C25.695 23.3461 25.0678 23.5962 24.4657 23.9463L24.7166 25.2718C24.2148 25.647 23.7883 26.0971 23.4622 26.6223L22.1325 26.4473C21.8315 27.0475 21.6307 27.7228 21.5304 28.398L22.7095 28.9983C22.6845 29.6235 22.7848 30.2237 23.0106 30.8239L22.0572 31.7743C22.3583 32.3995 22.7346 32.9498 23.2364 33.4499L24.4657 32.9247C24.9424 33.3249 25.4943 33.625 26.0714 33.8251L26.247 35.1506C26.9244 35.3257 27.6017 35.3507 28.2791 35.3006L28.6304 34.0002C29.2325 33.8751 29.8095 33.65 30.3364 33.3249L31.5155 34.0252C32.0424 33.6 32.519 33.0998 32.8954 32.5246L32.0674 31.4492C32.3685 30.899 32.5441 30.2987 32.5943 29.6985L33.8738 29.2483C33.8989 28.5731 33.7734 27.8978 33.5476 27.2476H32.1929C31.942 26.6724 31.5908 26.1722 31.1392 25.722L31.5908 24.4715C31.0639 24.0464 30.4618 23.6962 29.8095 23.4711L28.9314 24.4965C28.3293 24.3465 27.7021 24.2965 27.0749 24.3715L26.3724 23.196ZM26.3724 25.9221C27.2505 25.5719 28.2039 25.597 29.0819 25.9471C29.9349 26.3222 30.6374 26.9975 30.9886 27.8478C31.1643 28.273 31.2395 28.7231 31.2395 29.1983C31.2395 29.6485 31.1392 30.1237 30.9385 30.5238C30.7629 30.949 30.4869 31.3241 30.1607 31.6493C29.8346 31.9744 29.4332 32.2245 29.0067 32.3995C28.1286 32.7497 27.1752 32.7247 26.2972 32.3745C25.4442 31.9994 24.7668 31.3241 24.4155 30.4488C24.0643 29.5735 24.0894 28.6231 24.4406 27.7478C24.8169 26.8975 25.4943 26.2222 26.3724 25.8721V25.9221Z" fill="#FEC34E"/>
<path fill-rule="evenodd" clip-rule="evenodd" d="M26.8742 22.8709L26.6484 22.5208L26.247 22.5958C25.5194 22.7708 24.8169 23.046 24.1647 23.4211L23.8134 23.6212L24.0894 24.9717C23.7632 25.2718 23.4622 25.5969 23.2113 25.9471L21.8064 25.797L21.6307 26.1471C21.3046 26.8224 21.0788 27.5477 20.9785 28.2729V28.6731L22.2329 29.3233C22.258 29.7485 22.3332 30.1987 22.4336 30.6238L21.43 31.6242L21.6057 31.9994C21.9318 32.6746 22.3583 33.2999 22.8852 33.825L23.1611 34.1252L24.4406 33.5499C24.7919 33.8251 25.1933 34.0251 25.6198 34.2002L25.7954 35.5757L26.1968 35.6758C26.9244 35.8508 27.677 35.9008 28.4296 35.8258H28.8311L29.1823 34.4753C29.6088 34.3502 30.0353 34.2002 30.4116 33.9751L31.5908 34.7004L31.9169 34.4503C32.4939 33.9751 32.9957 33.4249 33.372 32.7997L33.5978 32.4495L32.7448 31.2741C32.9204 30.8739 33.0459 30.4488 33.1211 30.0236L34.4508 29.5484V29.1233C34.4759 28.373 34.3505 27.6477 34.0996 26.9224L33.9741 26.5223H32.5692C32.3685 26.1221 32.1176 25.772 31.8166 25.4469L32.2681 24.1214L31.942 23.8713C31.3399 23.3961 30.6876 23.046 29.9851 22.7708L29.6088 22.6208L28.7056 23.6712C28.2791 23.5962 27.8275 23.5461 27.3759 23.5712L26.8491 22.7458L26.8742 22.8709ZM26.3724 23.196C25.695 23.3461 25.0678 23.5962 24.4657 23.9463L24.7166 25.2718C24.2148 25.6469 23.7883 26.0971 23.4622 26.6223L22.1325 26.4723C21.8315 27.0725 21.6307 27.7227 21.5304 28.398L22.7095 29.0232C22.6845 29.6485 22.7848 30.2487 23.0106 30.8489L22.0572 31.7993C22.3583 32.4245 22.7346 32.9747 23.2364 33.4749L24.4657 32.9497C24.9424 33.3499 25.4943 33.65 26.0714 33.8501L26.247 35.1756C26.9244 35.3506 27.6017 35.3756 28.2791 35.3256L28.6304 34.0251C29.2325 33.9001 29.8346 33.675 30.3364 33.3499L31.5155 34.0501C32.0423 33.625 32.519 33.1248 32.8953 32.5496L32.0674 31.4742C32.3685 30.9239 32.5441 30.3237 32.5943 29.7235L33.8738 29.2733C33.8989 28.5981 33.7734 27.9228 33.5476 27.2726H32.1929C31.942 26.6973 31.5908 26.1971 31.1392 25.772L31.5908 24.4965C31.0388 24.0713 30.4367 23.7462 29.8095 23.4961L28.9314 24.5215C28.3293 24.3715 27.7021 24.3214 27.0749 24.3965L26.3724 23.196ZM26.3724 25.922C27.2505 25.5719 28.2039 25.5969 29.0819 25.9471C29.9349 26.3222 30.6374 26.9975 30.9886 27.8478C31.1643 28.2729 31.2395 28.7231 31.2395 29.1983C31.2395 29.6485 31.1392 30.1236 30.9385 30.5238C30.7629 30.949 30.4869 31.3241 30.1607 31.6492C29.8346 31.9743 29.4332 32.2244 29.0067 32.3995C28.5802 32.5746 28.1286 32.6746 27.6519 32.6496C27.2003 32.6496 26.7237 32.5496 26.2972 32.3745C25.8707 32.1994 25.4943 31.9243 25.1682 31.5992C24.842 31.2741 24.5912 30.8739 24.4155 30.4488C24.2399 30.0236 24.1396 29.5484 24.1396 29.0983C24.1396 28.6231 24.2399 28.1729 24.4155 27.7477C24.5912 27.3226 24.8671 26.9224 25.1933 26.6223C25.5194 26.2972 25.9208 26.0471 26.3473 25.872V25.922H26.3724ZM26.5982 26.4973C27.3258 26.1971 28.1286 26.2222 28.8311 26.5223C29.5586 26.8224 30.1106 27.3976 30.4116 28.1229C30.5621 28.473 30.6374 28.8482 30.6123 29.2483C30.6123 29.6235 30.5371 29.9986 30.3865 30.3487C30.236 30.6989 30.0102 31.024 29.7342 31.2741C29.4583 31.5492 29.1321 31.7493 28.7809 31.8743C28.0533 32.1494 27.2505 32.1494 26.548 31.8493C25.8456 31.5492 25.2685 30.974 24.9675 30.2487C24.8169 29.8986 24.7668 29.5234 24.7668 29.1233C24.7668 28.7481 24.842 28.373 25.0177 28.0228C25.1682 27.6727 25.394 27.3476 25.6699 27.0975C25.9208 26.8474 26.247 26.6223 26.5982 26.4973Z" fill="#2A2941"/>
<path fill-rule="evenodd" clip-rule="evenodd" d="M22.5339 21.0953L25.0427 20.0699L24.6664 19.1445L22.1576 20.1699L22.5339 21.0953Z" fill="#2A2941"/>
<path fill-rule="evenodd" clip-rule="evenodd" d="M41.8518 34.8254L45.3642 33.3499L48.9518 35.2506L46.6186 40.3275L41.049 38.6769L41.8518 34.7754V34.8254Z" fill="#2A2941"/>
<path fill-rule="evenodd" clip-rule="evenodd" d="M37.5116 25.0719L41.0239 23.5713L44.6115 25.497L42.2783 30.5489L36.6586 28.9733L37.4614 25.0719H37.5116Z" fill="#2A2941"/>
<path fill-rule="evenodd" clip-rule="evenodd" d="M33.372 15.118L36.8844 13.6174L40.472 15.5182L38.1388 20.5951L32.519 18.9945L33.2968 15.093H33.372V15.118Z" fill="#2A2941"/>
<path fill-rule="evenodd" clip-rule="evenodd" d="M43.608 32.6497L47.1204 31.1492L50.708 33.0499L48.3748 38.1268L42.755 36.5262L43.5327 32.6247H43.608V32.6497Z" fill="#A694FE"/>
<path fill-rule="evenodd" clip-rule="evenodd" d="M47.1957 30.2488L42.9056 32.0495L41.877 37.1264L48.8766 39.1021L51.7868 32.6997L47.1957 30.2488ZM44.3356 33.2249L47.1204 32.0495L49.6794 33.425L47.9734 37.1514L43.7586 35.976L44.3356 33.2249Z" fill="#2A2941"/>
<path fill-rule="evenodd" clip-rule="evenodd" d="M39.2176 22.8711L42.7299 21.3955L46.3175 23.2962L43.9843 28.3482L38.3646 26.7726L39.1423 22.8711H39.2176Z" fill="#FEC34E"/>
<path fill-rule="evenodd" clip-rule="evenodd" d="M42.8554 20.4951L38.5653 22.2958L37.5367 27.3477L44.5363 29.3485L47.4716 22.946L42.8554 20.4951ZM39.9953 23.4462L42.7801 22.2708L45.3391 23.6463L43.6331 27.3727L39.4434 26.2223L39.9953 23.4462Z" fill="#2A2941"/>
<path fill-rule="evenodd" clip-rule="evenodd" d="M35.1784 12.9171L38.6907 11.4165L42.2783 13.3422L39.9451 18.4192L34.3505 16.8186L35.1282 12.9171H35.1784Z" fill="#4C5EFD"/>
<path fill-rule="evenodd" clip-rule="evenodd" d="M38.766 10.5413L34.4759 12.3419L33.4473 17.3939L40.4469 19.3946L43.3571 12.9922L38.766 10.5413ZM35.9059 13.5174L38.6907 12.3419L41.2497 13.6925L39.5437 17.4189L35.3289 16.2434L35.9059 13.5174Z" fill="#2A2941"/>
<path d="M30.9134 42.9785L30.4367 42.4783L28.5049 43.2786V43.9789C28.53 44.179 28.53 44.354 28.5049 44.5541C28.4798 44.6041 28.4548 44.6541 28.4046 44.7042C28.3544 44.7542 28.3042 44.7792 28.2541 44.8042C28.1286 44.8542 28.0032 44.8542 27.8777 44.8042C27.8276 44.7792 27.7523 44.7542 27.7272 44.7042C27.677 44.6541 27.6519 44.6041 27.6268 44.5541C27.6018 44.4791 27.6018 44.404 27.6268 44.354C27.6268 44.254 27.6268 44.1289 27.6268 44.0289V40.4775V40.0774C27.6018 39.9523 27.6018 39.8273 27.6268 39.7273C27.6519 39.6272 27.7021 39.5272 27.7774 39.4271C27.8526 39.3271 27.953 39.2521 28.0784 39.2271C28.2039 39.1771 28.3293 39.152 28.4548 39.177C28.5551 39.177 28.6555 39.2271 28.7558 39.2771C28.8562 39.3271 28.9314 39.4021 29.0067 39.4772L29.3078 39.7773L31.8166 42.3032C31.9671 42.4283 32.0925 42.5783 32.1678 42.7534C32.218 42.8785 32.1929 43.0035 32.1427 43.1286C32.0925 43.2536 31.9922 43.3286 31.8668 43.3786C31.7915 43.4037 31.7162 43.4037 31.666 43.3786C31.5908 43.3786 31.5406 43.3536 31.4904 43.3286C31.4152 43.2786 31.365 43.2286 31.2897 43.1536L31.0639 42.9535L30.9134 42.9785ZM28.4548 42.4533L29.8848 41.8781L28.3544 40.2274L28.4548 42.4533Z" fill="#4C5EFD"/>
<path d="M33.949 40.2026L33.071 40.5527L33.6229 41.9032C33.6731 42.0533 33.6731 42.2284 33.6229 42.4034C33.5727 42.5285 33.4473 42.6285 33.3218 42.6785C33.1964 42.7286 33.0459 42.7286 32.9204 42.6785C32.7699 42.6035 32.6695 42.4534 32.5943 42.3034L31.1392 38.702C31.089 38.627 31.0639 38.527 31.0639 38.4519C31.0639 38.3519 31.0639 38.2769 31.1141 38.2018C31.1392 38.1268 31.2144 38.0518 31.2897 38.0018C31.365 37.9517 31.4402 37.9017 31.5406 37.9017L32.7699 37.4015C33.0459 37.2765 33.3469 37.2015 33.648 37.1514C33.8487 37.1264 34.0494 37.1264 34.2501 37.2015C34.4508 37.2515 34.6264 37.3765 34.7519 37.5266C34.9024 37.6766 35.0278 37.8767 35.1031 38.0768C35.2035 38.2769 35.2536 38.5019 35.2536 38.702C35.2536 38.9271 35.2035 39.1522 35.1031 39.3273C34.8522 39.7274 34.4508 40.0525 33.949 40.2026ZM32.795 38.1518L32.1427 38.4269L32.7448 39.8775L33.3971 39.6024C33.5978 39.5273 33.7734 39.4273 33.949 39.3022C34.0745 39.2022 34.1498 39.0772 34.1999 38.9271C34.2501 38.777 34.2501 38.602 34.1999 38.4519C34.1748 38.3519 34.1247 38.2769 34.0494 38.2018C33.9741 38.1268 33.8989 38.0768 33.7985 38.0268C33.4724 37.9517 33.1462 38.0018 32.8452 38.1518H32.795Z" fill="#4C5EFD"/>
<path d="M37.1353 40.4776L35.6049 36.7762C35.5547 36.6261 35.5547 36.4511 35.6049 36.276C35.6551 36.151 35.7554 36.0509 35.906 36.0009C36.0314 35.9509 36.1819 35.9509 36.3074 36.0009C36.4579 36.0759 36.5833 36.201 36.6335 36.376L38.1639 40.0774C38.2141 40.2275 38.2141 40.4276 38.1639 40.5776C38.1137 40.7027 37.9883 40.8027 37.8628 40.8527C37.7374 40.9028 37.5869 40.9028 37.4614 40.8527C37.3109 40.7777 37.1855 40.6277 37.1353 40.4776Z" fill="#4C5EFD"/>
</svg>