<?xml version="1.0" encoding="utf-8"?>
<!DOCTYPE svg PUBLIC "-//W3C//DTD SVG 1.1//EN" "http://www.w3.org/Graphics/SVG/1.1/DTD/svg11.dtd">
<svg version="1.1" xmlns="http://www.w3.org/2000/svg" width="282px" height="340px" viewBox="0 0 282 340" preserveAspectRatio="xMidYMid meet">
 <g fill="#ffffff">
  <path d="M106 336.30 c-6.25 -1.40 -8.55 -3.40 -7.55 -6.40 0.80 -2.35 3.30 -5.25 5.65 -6.45 1.95 -1 1.95 -1 -0.20 -2.55 -3.35 -2.40 -10.40 -9.80 -13.20 -13.90 -1.95 -2.85 -5.35 -8.75 -6 -10.40 -0.05 -0.05 -2.40 1.15 -5.25 2.70 -2.85 1.55 -7.65 4.15 -10.65 5.75 -3 1.60 -5.65 3.10 -5.95 3.40 -0.35 0.35 -1 -0.50 -1.95 -2.55 -0.75 -1.65 -2.20 -4.30 -3.10 -5.85 -2.10 -3.45 -3.90 -6.70 -7.70 -13.80 -1.60 -3 -4.15 -7.65 -5.60 -10.25 -2.50 -4.50 -7.95 -14.55 -9.15 -16.80 -0.45 -0.90 -1.10 -1.15 -3.60 -1.30 -3.60 -0.20 -6 -1.65 -7.10 -4.30 -0.95 -2.25 -0.45 -4.10 1.60 -6.10 1.70 -1.65 1.70 -1.65 0.40 -4.05 -0.70 -1.35 -1.40 -2.55 -1.60 -2.70 -0.20 -0.10 -1.45 -2.40 -2.80 -5.10 -1.30 -2.70 -2.85 -5.55 -3.40 -6.30 -0.55 -0.80 -1.65 -2.80 -2.45 -4.50 -0.85 -1.70 -1.90 -3.65 -2.40 -4.35 -0.45 -0.70 -2.05 -3.50 -3.50 -6.25 -1.45 -2.75 -3.75 -7.10 -5.10 -9.60 -1.35 -2.55 -2.65 -4.65 -2.95 -4.65 -0.25 0 -0.45 -0.45 -0.45 -1.05 0 -0.75 0.70 -1.35 2.75 -2.25 1.50 -0.70 2.90 -1.55 3.10 -1.85 0.25 -0.35 2.65 -1.75 5.40 -3.15 6.25 -3.20 13.60 -7.20 15.30 -8.35 0.70 -0.45 3.10 -1.80 5.35 -2.95 10.25 -5.40 12.45 -6.60 13.60 -7.40 0.70 -0.50 3.40 -2 6 -3.40 2.60 -1.35 7.10 -3.75 9.90 -5.30 5.30 -2.85 6.10 -3.15 6.10 -2.30 0 0.90 1.35 0.50 4.60 -1.30 1.70 -1 3.25 -1.85 3.30 -1.95 0.10 -0.10 -0.10 -4.85 -0.40 -10.60 -0.60 -9.90 -0.30 -19.85 0.80 -27.45 0.25 -1.80 0.10 -2.25 -1.20 -3.75 -0.80 -0.95 -2.75 -2.45 -4.25 -3.35 -2.55 -1.55 -2.85 -1.60 -5.10 -1.10 -2.65 0.60 -3.25 0.35 -2.35 -0.90 1.20 -1.65 1.10 -1.90 -0.90 -4 -2.60 -2.75 -4 -5.55 -4 -8 0 -2.70 3.05 -8.60 5.50 -10.75 2.55 -2.15 4.90 -2.85 9.65 -2.85 3.80 0 3.80 0 4.15 -1.90 2.40 -14 8.55 -30.35 15.05 -40.30 3.50 -5.35 8.65 -11.70 12.25 -15.10 3.25 -3.05 3.25 -3.05 3.85 -8.30 0.35 -2.85 0.80 -5.50 1 -5.80 0.20 -0.30 2.75 -1.40 5.65 -2.40 5.35 -1.85 5.35 -1.85 8.10 -0.25 1.55 0.85 3.15 1.55 3.65 1.55 0.45 0 2.25 -0.55 4 -1.25 3.90 -1.55 16.15 -4.75 18.25 -4.75 1.30 0 2.25 -0.70 5.35 -3.75 3.75 -3.75 3.75 -3.75 12.60 -3.75 8.85 0 8.85 0 12.50 3.75 2.55 2.65 3.95 3.75 4.85 3.75 3.10 0 14.80 3.10 20.95 5.55 1.50 0.60 1.90 0.50 5.05 -1 3.40 -1.65 3.40 -1.65 8.90 0.30 5.45 1.90 5.45 1.90 6.20 7.50 0.75 5.55 0.75 5.55 4.25 9.25 10.20 10.60 17.20 22.05 22 35.90 1.75 5 4.30 14.90 5 19.35 0.35 2.10 0.35 2.10 5.20 1.80 4.55 -0.25 5.10 -0.20 7.70 1 4.60 2.10 7.25 6.55 7.30 12.25 0.05 4.05 -0.70 5.80 -3.90 8.75 -2.15 2 -2.50 2.55 -2.05 3.35 0.75 1.45 0.65 1.50 -1.60 1.20 -1.90 -0.25 -2.50 -0.05 -5 1.65 -4.60 3.05 -4.65 3.20 -3.90 10.35 0.85 8.05 0.40 28.20 -1 44.05 -1.15 13.15 -1.10 16.05 0.50 36.25 0.50 6.45 1.10 13.80 1.30 16.25 0.30 4.35 0.40 4.55 2 5.90 5.70 4.75 6.10 16.65 0.75 19.75 -1.60 0.90 -2.05 2.85 -2.05 9.35 0 7.15 -1.90 19.45 -4.35 27.95 -3.85 13.45 -10 23.75 -19.65 32.95 -5 4.75 -5 4.75 -3.25 5.80 2.10 1.25 4.75 5.20 4.75 7.15 0 1.95 -1.35 3.10 -5.05 4.30 -4.55 1.45 -7.45 1.75 -11 1.10 -3.75 -0.70 -6.50 -2 -7.90 -3.80 -1 -1.30 -1 -1.30 -7.40 -0.05 -14.40 2.90 -33.60 4.20 -48.50 3.40 -14.70 -0.85 -31.15 -2.95 -38.10 -4.90 -1.05 -0.25 -1.15 -0.15 -0.85 0.60 0.80 2.10 -2.60 4.65 -7.60 5.70 -3.25 0.70 -5.55 0.65 -9.10 -0.15z"/>
 </g>
 <g fill="#e9e9e5">
  <path d="M106 336.30 c-6.25 -1.40 -8.55 -3.40 -7.55 -6.40 0.80 -2.35 3.30 -5.25 5.65 -6.45 1.95 -1 1.95 -1 -0.20 -2.55 -3.35 -2.40 -10.40 -9.80 -13.20 -13.90 -1.95 -2.85 -5.35 -8.75 -6 -10.40 -0.05 -0.05 -2.40 1.15 -5.25 2.70 -2.85 1.55 -7.65 4.15 -10.65 5.75 -3 1.60 -5.65 3.10 -5.95 3.40 -0.35 0.35 -1 -0.50 -1.95 -2.55 -0.75 -1.65 -2.20 -4.30 -3.10 -5.85 -2.10 -3.45 -3.90 -6.70 -7.70 -13.80 -1.60 -3 -4.15 -7.65 -5.60 -10.25 -2.50 -4.50 -7.95 -14.55 -9.15 -16.80 -0.45 -0.90 -1.10 -1.15 -3.60 -1.30 -3.60 -0.20 -6 -1.65 -7.10 -4.30 -0.95 -2.25 -0.45 -4.10 1.60 -6.10 1.70 -1.65 1.70 -1.65 0.40 -4.05 -0.70 -1.35 -1.40 -2.55 -1.60 -2.70 -0.20 -0.10 -1.45 -2.40 -2.80 -5.10 -1.30 -2.70 -2.85 -5.55 -3.40 -6.30 -0.55 -0.80 -1.65 -2.80 -2.45 -4.50 -0.85 -1.70 -1.90 -3.65 -2.40 -4.35 -0.45 -0.70 -2.05 -3.50 -3.50 -6.25 -1.45 -2.75 -3.75 -7.10 -5.10 -9.60 -1.35 -2.55 -2.65 -4.65 -2.95 -4.65 -0.25 0 -0.45 -0.45 -0.45 -1.05 0 -0.75 0.70 -1.35 2.75 -2.25 1.50 -0.70 2.90 -1.55 3.10 -1.85 0.25 -0.35 2.65 -1.75 5.40 -3.15 6.25 -3.20 13.60 -7.20 15.30 -8.35 0.70 -0.45 3.10 -1.80 5.35 -2.95 10.25 -5.40 12.45 -6.60 13.60 -7.40 0.70 -0.50 3.40 -2 6 -3.40 2.60 -1.35 7.10 -3.75 9.90 -5.30 5.30 -2.85 6.10 -3.15 6.10 -2.30 0 0.90 1.35 0.50 4.60 -1.30 1.70 -1 3.25 -1.85 3.30 -1.95 0.10 -0.10 -0.10 -4.85 -0.40 -10.60 -0.60 -9.90 -0.30 -19.85 0.80 -27.45 0.25 -1.80 0.10 -2.25 -1.20 -3.75 -0.80 -0.95 -2.75 -2.45 -4.25 -3.35 -2.55 -1.55 -2.85 -1.60 -5.10 -1.10 -2.65 0.60 -3.25 0.35 -2.35 -0.90 1.20 -1.65 1.10 -1.90 -0.90 -4 -2.60 -2.75 -4 -5.55 -4 -8 0 -2.70 3.05 -8.60 5.50 -10.75 2.55 -2.15 4.90 -2.85 9.65 -2.85 3.80 0 3.80 0 4.15 -1.90 2.40 -14 8.55 -30.35 15.05 -40.30 3.50 -5.35 8.65 -11.70 12.25 -15.10 3.25 -3.05 3.25 -3.05 3.85 -8.30 0.35 -2.85 0.80 -5.50 1 -5.80 0.20 -0.30 2.75 -1.40 5.65 -2.40 5.35 -1.85 5.35 -1.85 8.10 -0.25 1.55 0.85 3.15 1.55 3.65 1.55 0.45 0 2.25 -0.55 4 -1.25 3.90 -1.55 16.15 -4.75 18.25 -4.75 1.30 0 2.25 -0.70 5.35 -3.75 3.75 -3.75 3.75 -3.75 12.60 -3.75 8.85 0 8.85 0 12.50 3.75 2.55 2.65 3.95 3.75 4.85 3.75 3.10 0 14.80 3.10 20.95 5.55 1.50 0.60 1.90 0.50 5.05 -1 3.40 -1.65 3.40 -1.65 8.90 0.30 5.45 1.90 5.45 1.90 6.20 7.50 0.75 5.55 0.75 5.55 4.25 9.25 10.20 10.60 17.20 22.05 22 35.90 1.75 5 4.30 14.90 5 19.35 0.35 2.10 0.35 2.10 5.20 1.80 4.55 -0.25 5.10 -0.20 7.70 1 4.60 2.10 7.25 6.55 7.30 12.25 0.05 4.05 -0.70 5.80 -3.90 8.75 -2.15 2 -2.50 2.55 -2.05 3.35 0.75 1.45 0.65 1.50 -1.60 1.20 -1.90 -0.25 -2.50 -0.05 -5 1.65 -4.60 3.05 -4.65 3.20 -3.90 10.35 0.85 8.05 0.40 28.20 -1 44.05 -1.15 13.15 -1.10 16.05 0.50 36.25 0.50 6.45 1.10 13.80 1.30 16.25 0.30 4.35 0.40 4.55 2 5.90 5.70 4.75 6.10 16.65 0.75 19.75 -1.60 0.90 -2.05 2.85 -2.05 9.35 0 7.15 -1.90 19.45 -4.35 27.95 -3.85 13.45 -10 23.75 -19.65 32.95 -5 4.75 -5 4.75 -3.25 5.80 2.10 1.25 4.75 5.20 4.75 7.15 0 1.95 -1.35 3.10 -5.05 4.30 -4.55 1.45 -7.45 1.75 -11 1.10 -3.75 -0.70 -6.50 -2 -7.90 -3.80 -1 -1.30 -1 -1.30 -7.40 -0.05 -14.40 2.90 -33.60 4.20 -48.50 3.40 -14.70 -0.85 -31.15 -2.95 -38.10 -4.90 -1.05 -0.25 -1.15 -0.15 -0.85 0.60 0.80 2.10 -2.60 4.65 -7.60 5.70 -3.25 0.70 -5.55 0.65 -9.10 -0.15z m67.45 -140.95 c1.60 0.15 2.15 -0.10 3.75 -1.60 1.05 -0.95 1.75 -1.75 1.55 -1.75 -0.20 0 0.05 -0.35 0.50 -0.80 0.80 -0.85 0.80 -1.75 -0.25 -4.40 -0.45 -1.30 -0.45 -1.30 -7.50 -1.25 -3.85 0 -8.35 -0.15 -10 -0.35 -3 -0.35 -3 -0.35 -3.05 1.60 -0.15 5.05 0.55 6.70 3.40 8 1.25 0.65 2.45 0.75 4.80 0.50 1.70 -0.15 3.45 -0.05 3.85 0.20 0.40 0.25 0.80 0.30 0.90 0.05 0.05 -0.20 1 -0.30 2.05 -0.20z m-38.20 -29.10 c1.40 -0.50 2.90 -1.20 3.35 -1.60 0.45 -0.40 1.60 -1 2.50 -1.30 0.95 -0.35 1.70 -0.80 1.75 -1.05 0.05 -0.25 0.75 -0.75 1.55 -1.15 3.30 -1.60 10.50 -9.10 9.80 -10.20 -0.15 -0.25 0 -0.45 0.30 -0.45 0.65 0 2.60 -4.40 2.20 -5.05 -0.15 -0.25 0 -0.45 0.30 -0.45 0.30 0 0.40 -0.20 0.25 -0.50 -0.15 -0.25 -0.05 -0.50 0.25 -0.50 0.35 0 0.45 -0.40 0.25 -1 -0.20 -0.60 -0.10 -1 0.25 -1 0.35 0 0.45 -0.40 0.25 -1 -0.20 -0.60 -0.10 -1 0.25 -1 0.35 0 0.45 -0.40 0.25 -1 -0.15 -0.55 -0.15 -1 0.10 -1 0.55 0 0.35 -10.95 -0.25 -12.50 -0.60 -1.60 -1.20 -4.40 -1 -4.70 0.10 -0.10 -0.25 -0.65 -0.75 -1.15 -0.45 -0.55 -0.70 -1.15 -0.50 -1.30 0.15 -0.20 0 -0.35 -0.35 -0.35 -0.35 0 -0.55 -0.15 -0.35 -0.30 0.55 -0.55 -4.80 -6.50 -7.70 -8.45 -1.95 -1.40 -1.95 -1.40 -16.80 -1.05 -11.50 0.30 -15.20 0.55 -16.70 1.15 -1.10 0.40 -1.95 0.95 -1.95 1.15 0 0.25 -0.30 0.50 -0.70 0.60 -1.45 0.30 -6.90 7.20 -8.85 11.15 -7.85 16 -4 32.15 9.70 40.95 5.40 3.40 8.90 4.35 15.60 4.05 2.50 -0.10 5.60 -0.55 7 -1z m84.40 0.30 c1.85 -0.50 3.80 -1.30 4.30 -1.75 0.45 -0.45 1.25 -0.80 1.75 -0.80 0.45 0 0.95 -0.35 1.10 -0.75 0.20 -0.40 0.50 -0.75 0.80 -0.75 0.55 0 0.95 -0.35 5.30 -4.60 1.70 -1.70 3.10 -3.40 3.10 -3.75 0 -0.35 0.20 -0.65 0.40 -0.65 0.50 0 1.90 -2.85 3.15 -6.40 1.05 -3.05 1.75 -9.60 1.20 -10.95 -0.20 -0.50 -0.35 -1.50 -0.30 -2.25 0.10 -0.80 -0.10 -1.40 -0.35 -1.40 -0.30 0 -0.40 -0.45 -0.25 -0.95 0.15 -0.55 -0.15 -1.75 -0.60 -2.70 -0.45 -1 -0.90 -2.05 -0.95 -2.45 -0.05 -0.35 -1 -2.45 -2.05 -4.65 -2.55 -5.10 -9.45 -12.40 -12.25 -12.90 -0.95 -0.15 -8.30 -0.45 -16.25 -0.65 -12.05 -0.25 -14.70 -0.20 -15.30 0.35 -0.40 0.40 -1.75 1.50 -3 2.45 -3.60 2.75 -6.10 6.20 -7.40 10.15 -0.35 1 -0.80 1.85 -1 1.85 -0.20 0 -0.35 0.40 -0.40 0.90 0 0.45 -0.30 2.30 -0.65 4.10 -0.95 5.30 0 12.45 2.50 18.55 2.70 6.50 5.75 10.10 12.85 15.05 7.60 5.35 16.40 7.15 24.30 4.95z"/>
  <path d="M127 148.95 c0 -0.25 -0.25 -0.35 -0.55 -0.15 -0.70 0.40 -4.50 -1.30 -4.15 -1.85 0.15 -0.25 -0.15 -0.60 -0.65 -0.75 -1.50 -0.45 -2.40 -1.05 -2.40 -1.50 0 -1 -1.85 -4.20 -2.65 -4.65 -0.45 -0.30 -0.60 -0.55 -0.30 -0.55 0.35 0 0.70 -0.30 0.85 -0.70 0.20 -0.50 0 -0.60 -0.70 -0.45 -0.65 0.20 -0.95 0 -0.95 -0.60 0 -0.50 0.25 -0.75 0.65 -0.60 0.50 0.20 0.60 -0.15 0.45 -1.20 -0.10 -0.80 -0.40 -1.45 -0.65 -1.45 -0.85 0 -0.45 -1.50 0.45 -1.55 0.50 0 0.60 -0.15 0.25 -0.30 -0.90 -0.35 -0.80 -1.15 0.10 -1.15 0.40 0 0.75 0.25 0.75 0.60 0 0.30 0.15 0.40 0.35 0.20 0.25 -0.20 -0.05 -0.75 -0.60 -1.15 -1 -0.75 -1 -0.75 0.10 -0.50 0.65 0.15 1.30 0 1.50 -0.25 0.15 -0.30 0.10 -0.40 -0.15 -0.25 -0.30 0.15 -0.80 0.10 -1.20 -0.20 -0.55 -0.30 -0.35 -0.45 0.75 -0.45 1.40 -0.05 1.45 -0.10 0.60 -0.75 -0.90 -0.65 -0.85 -0.70 0.25 -0.85 0.75 -0.10 1.15 -0.50 1.15 -1.15 0 -1.25 5.25 -4.05 5.85 -3.10 0.30 0.45 0.40 0.45 0.40 0 0 -0.70 5 -0.60 5 0.10 0 0.30 0.25 0.15 0.50 -0.25 0.35 -0.55 0.50 -0.55 0.50 -0.10 0 0.35 0.25 0.50 0.50 0.35 0.30 -0.15 0.50 -0.10 0.50 0.20 0 0.30 0.35 0.40 0.75 0.25 0.40 -0.20 0.75 -0.05 0.75 0.30 0 0.30 0.25 0.40 0.50 0.25 0.30 -0.15 0.50 -0.05 0.50 0.25 0 0.30 0.25 0.40 0.55 0.25 0.30 -0.20 0.65 0.10 0.80 0.70 0.15 0.60 0.45 1.05 0.70 1.05 0.40 0 1.10 1.10 2.80 4.50 1.05 2.15 1.15 7.55 0.15 9.75 -0.35 0.85 -0.70 1.70 -0.70 1.90 -0.05 0.25 -0.40 0.70 -0.85 1 -0.45 0.35 -0.85 0.85 -0.95 1.10 -0.30 0.90 -2.50 2.35 -5.05 3.30 -2.65 1.05 -6.45 1.25 -6.45 0.40z m8.20 -15 c1.20 -0.95 1.35 -1.35 1.15 -3.05 -0.30 -2.40 -0.40 -2.50 -2.70 -2.75 -2.60 -0.30 -4.05 0.65 -4.45 2.75 -0.30 1.55 -0.15 1.95 1 2.95 1.70 1.45 3.25 1.45 5 0.10z"/>
  <path d="M208 149.05 c0 -0.65 -2.85 -1.55 -3.75 -1.25 -0.40 0.20 -0.75 0.05 -0.75 -0.25 0 -0.30 -0.35 -0.55 -0.75 -0.55 -0.45 0 -0.95 -0.40 -1.10 -0.85 -0.20 -0.50 -0.45 -1 -0.65 -1.15 -0.15 -0.15 -0.90 -1.50 -1.65 -2.95 -2.30 -4.70 -1.65 -9.60 1.95 -14.30 0.70 -0.95 1.65 -1.75 2.05 -1.75 0.60 0 0.65 -0.15 0.20 -0.70 -0.50 -0.60 -0.25 -0.80 1.25 -1.30 1.45 -0.50 1.90 -0.50 2.25 0.05 0.30 0.55 0.45 0.50 0.70 -0.15 0.25 -0.60 0.90 -0.80 2.30 -0.75 1.05 0.05 1.95 0.25 1.95 0.50 0 0.25 0.45 0.35 0.95 0.20 0.60 -0.15 1.10 0.05 1.30 0.55 0.25 0.70 0.35 0.70 0.75 0.10 0.35 -0.55 0.50 -0.60 0.50 -0.10 0 0.35 0.25 0.50 0.50 0.35 0.30 -0.15 0.50 -0.05 0.50 0.25 0 0.30 0.25 0.40 0.50 0.25 0.30 -0.15 0.50 -0.05 0.50 0.30 0 0.30 1 1.55 2.25 2.80 1.25 1.20 2.25 2.50 2.25 2.90 0 0.40 0.25 0.75 0.50 0.75 0.35 0 0.45 0.70 0.25 1.90 -0.25 1.35 -0.20 1.65 0.20 1.10 0.40 -0.60 0.55 -0.35 0.55 1.15 0 1 -0.20 1.85 -0.45 1.85 -0.25 0 -0.40 0.60 -0.40 1.30 0 0.75 -0.25 1.45 -0.50 1.65 -0.30 0.15 -0.85 1 -1.30 1.80 -1.40 2.65 -4.10 5.20 -4.95 4.70 -0.10 -0.05 -1.10 0.40 -2.25 1 -2.10 1.05 -5.65 1.45 -5.65 0.60z m1.80 -15.10 c1.25 -1.30 1.40 -3.60 0.25 -4.90 -1.25 -1.40 -4.50 -1.65 -5.70 -0.45 -1 1 -1.50 2.75 -0.85 3.15 0.30 0.15 0.40 0.50 0.25 0.75 -0.15 0.20 0.10 0.65 0.50 1 0.40 0.35 0.75 0.45 0.75 0.30 0 -0.20 0.35 -0.05 0.75 0.35 0.85 0.90 3.05 0.75 4.05 -0.20z"/>
 </g>
 <g fill="#fbf2bb">
  <path d="M105.25 336.15 c-8.20 -1.85 -9.05 -5.85 -2.50 -11.75 0.55 -0.50 1.50 -1.05 2.15 -1.20 1.50 -0.40 1.40 -0.80 -0.50 -1.95 -2.65 -1.55 -10.95 -10.20 -13.70 -14.25 -1.95 -2.85 -5.35 -8.80 -6 -10.40 -0.05 -0.05 -2.40 1.15 -5.25 2.70 -2.85 1.55 -7.65 4.15 -10.65 5.75 -3 1.60 -5.65 3.10 -5.95 3.40 -0.35 0.35 -1 -0.50 -1.95 -2.55 -0.75 -1.65 -2.20 -4.30 -3.10 -5.85 -2.10 -3.45 -3.90 -6.70 -7.70 -13.80 -1.60 -3 -4.15 -7.65 -5.60 -10.25 -2.75 -5 -8.20 -14.95 -9.20 -16.85 -0.45 -0.95 -0.95 -1.15 -2.95 -1.15 -2.70 0 -5.85 -1.40 -7.05 -3.10 -0.45 -0.60 -0.80 -2.10 -0.80 -3.25 0 -1.75 0.35 -2.50 1.70 -4.05 1.70 -1.85 1.70 -1.85 0.55 -3.95 -0.60 -1.20 -1.40 -2.45 -1.70 -2.85 -0.30 -0.35 -1.60 -2.80 -2.90 -5.35 -1.25 -2.60 -2.75 -5.35 -3.30 -6.10 -0.55 -0.80 -1.65 -2.80 -2.45 -4.50 -0.85 -1.70 -1.90 -3.65 -2.40 -4.35 -0.45 -0.70 -2.05 -3.50 -3.50 -6.25 -1.45 -2.75 -3.75 -7.10 -5.10 -9.60 -1.35 -2.55 -2.65 -4.65 -2.95 -4.65 -0.25 0 -0.45 -0.45 -0.45 -1.05 0 -0.75 0.70 -1.35 2.75 -2.25 1.50 -0.70 2.90 -1.55 3.10 -1.85 0.25 -0.35 2.65 -1.75 5.40 -3.15 6.60 -3.40 14.15 -7.50 14.90 -8.10 0.90 -0.75 6.50 -3.60 7.05 -3.60 0.25 0 1.15 -0.55 2 -1.20 0.85 -0.65 3.35 -2.10 5.55 -3.25 2.20 -1.10 5 -2.65 6.25 -3.40 1.25 -0.70 3.85 -2.15 5.75 -3.15 1.95 -1.05 5.85 -3.15 8.65 -4.70 5.30 -2.85 6.10 -3.15 6.10 -2.30 0 0.90 1.35 0.50 4.60 -1.30 1.70 -1 3.25 -1.85 3.30 -1.95 0.10 -0.10 -0.10 -4.85 -0.40 -10.60 -0.60 -9.90 -0.30 -19.85 0.80 -27.45 0.25 -1.80 0.10 -2.25 -1.20 -3.75 -0.80 -0.95 -2.75 -2.45 -4.25 -3.35 -2.55 -1.55 -2.85 -1.60 -5.10 -1.10 -2.65 0.60 -3.25 0.35 -2.35 -0.90 1.20 -1.65 1.10 -1.90 -0.90 -4 -4.45 -4.70 -5 -8 -2.20 -13.50 3 -6.10 6.40 -8.10 13.65 -8.10 3.50 0 3.50 0 3.85 -1.85 2.40 -14.05 8.55 -30.40 15.05 -40.35 3.50 -5.35 8.65 -11.70 12.25 -15.10 3.25 -3.05 3.25 -3.05 3.85 -8.30 0.35 -2.85 0.80 -5.50 1 -5.80 0.20 -0.30 2.75 -1.40 5.65 -2.40 5.35 -1.85 5.35 -1.85 8.10 -0.25 1.55 0.85 3.15 1.55 3.65 1.55 0.45 0 2.25 -0.55 4 -1.25 3.90 -1.55 16.15 -4.75 18.25 -4.75 1.30 0 2.25 -0.70 5.35 -3.75 3.75 -3.75 3.75 -3.75 12.60 -3.75 8.85 0 8.85 0 12.50 3.75 2.55 2.65 3.95 3.75 4.85 3.75 3.10 0 14.80 3.10 20.95 5.55 1.50 0.60 1.90 0.50 5.05 -1 3.40 -1.65 3.40 -1.65 8.90 0.30 5.45 1.90 5.45 1.90 6.20 7.50 0.75 5.55 0.75 5.55 4.25 9.25 10.20 10.60 17.20 22.05 22 35.90 1.85 5.35 4.40 15.30 5 19.65 0.30 1.95 0.50 2.35 1.20 2.05 0.45 -0.20 2.65 -0.45 4.85 -0.60 3.65 -0.20 4.40 -0.05 6.90 1.05 4.55 2.10 7.20 6.55 7.25 12.25 0.05 4.05 -0.70 5.80 -3.90 8.75 -2.15 2 -2.50 2.55 -2.05 3.35 0.75 1.45 0.65 1.50 -1.60 1.20 -1.90 -0.25 -2.50 -0.05 -5 1.65 -4.60 3.05 -4.65 3.20 -3.90 10.35 0.85 8.05 0.40 28.20 -1 44.05 -1.15 13.15 -1.10 16.05 0.50 36.25 0.50 6.45 1.10 13.80 1.30 16.25 0.35 4.50 0.35 4.50 2.45 6.50 2.60 2.45 3.75 5.80 3.75 10.95 0 4.15 -1 6.55 -3.30 8.05 -1.85 1.15 -2.20 2.50 -2.20 8.75 0 7.90 -1.80 19.85 -4.35 28.70 -3.85 13.45 -10 23.75 -19.70 33 -4.85 4.60 -5 4.80 -3.85 5.35 1.70 0.80 4.85 4.95 5.20 6.85 0.70 3.75 -3.90 5.85 -12.80 5.85 -6.30 0 -7.40 -0.35 -10.50 -3.25 -1.65 -1.55 -1.65 -1.55 -7.95 -0.30 -14.30 2.85 -33.55 4.15 -48.40 3.35 -14.65 -0.85 -31.15 -2.95 -38.10 -4.85 -1 -0.30 -1.10 -0.20 -0.80 0.75 0.45 1.50 -2.10 3.80 -5.40 4.80 -2.35 0.70 -9.70 0.95 -12.10 0.40z m25.30 -72.15 c1.65 -0.85 3.10 -1.85 3.25 -2.20 0.15 -0.40 -0.45 -1.90 -1.30 -3.35 -2.15 -3.75 -2.30 -4 -3.05 -5.70 -1.05 -2.25 -5.50 -9.85 -6.35 -10.90 -0.45 -0.50 -0.85 -1.30 -0.95 -1.85 -0.15 -0.90 -2.25 -5.15 -3.10 -6.20 -0.25 -0.30 -1.30 -2.25 -2.40 -4.30 -3.35 -6.35 -8.30 -15.20 -9 -16.05 -0.35 -0.45 -0.55 -0.90 -0.40 -1.05 0.15 -0.15 -0.05 -0.55 -0.50 -0.90 -0.40 -0.35 -0.75 -1 -0.75 -1.50 0 -0.45 -0.50 -1.40 -1.10 -2.10 -0.65 -0.70 -1.20 -1.60 -1.30 -1.95 -0.10 -0.40 -0.90 -1.95 -1.85 -3.45 -0.90 -1.50 -2.80 -5 -4.25 -7.75 -1.45 -2.75 -2.90 -5.25 -3.30 -5.55 -0.35 -0.30 -0.50 -0.70 -0.30 -0.90 0.20 -0.20 -0.10 -0.70 -0.60 -1.10 -0.55 -0.40 -0.80 -0.70 -0.60 -0.70 0.20 0 -0.50 -1.65 -1.60 -3.60 -1.10 -2 -2.80 -5.20 -3.85 -7.15 -1 -1.90 -2.75 -5.05 -3.85 -7 -1.10 -1.90 -2.15 -3.80 -2.35 -4.20 -0.85 -1.70 -1.90 -1.80 -4.65 -0.35 -1.45 0.80 -3.10 1.85 -3.60 2.35 -1 0.90 -0.95 0.95 0.55 3.05 0.85 1.20 1.95 3.05 2.50 4.15 1.45 2.95 4.15 7.80 5.10 9.25 0.50 0.70 1.60 2.70 2.55 4.50 2.10 4.15 3.25 6.25 4.70 8.75 0.65 1.10 1.90 3.35 2.75 5 0.80 1.65 2.10 3.90 2.80 5 0.70 1.10 1.70 2.90 2.25 4 1.80 3.60 6.80 12.95 8 15 0.65 1.10 2 3.60 3.05 5.55 1 1.95 2.40 4.45 3.10 5.50 0.65 1.10 1.95 3.30 2.80 4.95 0.90 1.65 2.20 4 2.90 5.25 0.70 1.25 2.15 3.95 3.25 6 1.05 2.05 2.80 5.15 3.80 6.85 1 1.70 2.25 3.80 2.70 4.65 0.45 0.80 1.10 1.50 1.40 1.50 0.30 0 1.90 -0.70 3.55 -1.50z m45.45 -69.05 c0 -0.25 0.30 -0.45 0.70 -0.45 0.40 0 1.25 -0.75 1.90 -1.60 1.15 -1.65 1.40 -3.90 0.70 -6.65 -0.30 -1.15 -0.55 -1.30 -1.60 -1.05 -1.90 0.50 -14.65 0.35 -16.85 -0.15 -1.25 -0.30 -1.95 -0.25 -2.20 0.10 -0.55 0.85 -0.55 5 0 6.35 0.30 0.70 0.55 1.45 0.55 1.70 0.05 0.45 0.50 0.70 2.80 1.75 2.20 0.95 14 1 14 0z m-40.80 -28.75 c1.40 -0.45 3.25 -1.40 4.20 -2.05 0.95 -0.60 2.10 -1.15 2.55 -1.15 1.05 0 3.90 -2.35 8.35 -6.75 2.65 -2.65 4 -4.50 5.40 -7.40 1 -2.15 1.70 -4.10 1.55 -4.35 -0.20 -0.30 -0.05 -0.50 0.25 -0.50 0.35 0 0.50 -0.35 0.30 -0.75 -0.15 -0.40 0 -0.75 0.25 -0.75 0.30 0 0.45 -0.45 0.30 -1 -0.15 -0.55 -0.05 -1 0.25 -1 0.30 0 0.40 -0.45 0.25 -1 -0.15 -0.55 -0.10 -1 0.15 -1 0.40 0 0.30 -11.30 -0.15 -12.50 -0.40 -1.15 -1.45 -4.50 -1.55 -5.15 -0.65 -3.05 -4.05 -7.55 -8.20 -10.75 -2.85 -2.25 -2.85 -2.25 -17.80 -1.90 -11.70 0.30 -15.35 0.55 -16.85 1.15 -1.10 0.40 -1.95 0.95 -1.95 1.20 0 0.25 -0.25 0.45 -0.60 0.45 -0.30 0 -1.65 1.20 -3 2.65 -6.45 6.95 -9.30 13.80 -9.75 23.40 -0.25 5.10 -0.15 6.30 0.85 9.50 0.60 2.05 1.05 3.75 1.05 3.85 -0.05 0.05 0.35 0.70 0.95 1.45 0.55 0.70 1 1.55 1 1.90 0 1.15 6.05 7.20 9.25 9.20 5.80 3.70 9.20 4.60 16 4.30 2.55 -0.10 5.55 -0.55 6.95 -1.05z m84.45 0.35 c1.85 -0.50 3.80 -1.30 4.30 -1.75 0.45 -0.45 1.20 -0.80 1.60 -0.80 1.45 0 9.45 -7.70 11.35 -10.95 2.80 -4.80 4.95 -14.15 3.85 -16.90 -0.20 -0.50 -0.40 -1.95 -0.50 -3.25 -0.10 -1.30 -0.55 -3.15 -1 -4.10 -0.45 -0.95 -0.90 -2 -0.95 -2.40 -0.05 -0.35 -1 -2.45 -2.05 -4.60 -1.35 -2.70 -3.20 -5.25 -5.65 -7.90 -2.05 -2.15 -3.40 -3.90 -3.05 -3.90 1.05 0 0.05 -0.60 -1.40 -0.85 -2.70 -0.45 -31.50 -1.30 -32.85 -0.95 -0.75 0.20 -1.70 0.75 -2.20 1.30 -0.45 0.55 -1 1 -1.20 1 -0.85 0 -6.95 6.80 -6.50 7.25 0.15 0.15 0 0.25 -0.35 0.25 -0.35 0 -0.50 0.20 -0.30 0.45 0.15 0.25 -0.05 0.75 -0.40 1.15 -0.40 0.35 -0.60 0.95 -0.45 1.30 0.10 0.30 -0.05 0.60 -0.35 0.60 -0.30 0 -0.40 0.35 -0.25 0.75 0.20 0.40 0.05 0.75 -0.25 0.75 -0.30 0 -0.40 0.35 -0.25 0.75 0.20 0.40 0.10 0.75 -0.15 0.75 -0.55 0 -0.60 0.45 -0.95 6.50 -0.25 3.85 -0.10 5.65 0.75 9.25 1.40 5.85 4.40 11.95 7.50 15.35 2.55 2.80 8.10 6.90 11.95 8.85 5.75 2.90 13.80 3.75 19.75 2.10z"/>
 </g>
 <g fill="#97c3e3">
  <path d="M105.25 336.15 c-8.20 -1.85 -9.05 -5.85 -2.50 -11.75 0.55 -0.50 1.50 -1.05 2.15 -1.20 1.50 -0.40 1.40 -0.80 -0.50 -1.95 -2.65 -1.55 -10.95 -10.20 -13.70 -14.25 -1.95 -2.85 -5.40 -8.85 -6 -10.40 -0.10 -0.20 -9.80 4.85 -10.65 5.55 -0.45 0.40 -2.80 1.70 -5.30 2.90 -2.45 1.20 -5 2.60 -5.60 3.15 -0.90 0.75 -1.15 0.80 -1.15 0.25 0 -0.85 -2.60 -6 -4.05 -8 -0.55 -0.75 -1.30 -2.15 -1.70 -3.05 -0.40 -0.90 -1.30 -2.55 -2 -3.65 -0.65 -1.10 -2.50 -4.55 -4.05 -7.65 -1.55 -3.10 -3.05 -5.75 -3.25 -5.90 -0.25 -0.10 -1.15 -1.75 -2 -3.60 -0.85 -1.85 -2.10 -4.05 -2.75 -4.90 -0.65 -0.90 -1.90 -3.15 -2.80 -5 -0.85 -1.90 -2.20 -4.40 -3 -5.55 -0.75 -1.15 -1.40 -2.30 -1.40 -2.60 0 -0.30 -1.05 -0.55 -2.50 -0.55 -2.85 0 -6 -1.35 -7.20 -3.10 -0.45 -0.60 -0.80 -2.10 -0.80 -3.35 0 -1.85 0.25 -2.45 1.75 -3.85 2.05 -1.90 2.05 -2.05 0.75 -3.70 -0.55 -0.70 -1 -1.55 -1 -1.95 0 -0.40 -0.40 -1.20 -0.95 -1.75 -0.95 -1.10 -5.05 -8.70 -5.05 -9.45 0 -0.20 -0.65 -1.25 -1.45 -2.25 -0.75 -1 -1.70 -2.65 -2.05 -3.60 -0.40 -0.95 -1.30 -2.65 -2 -3.75 -0.75 -1.10 -1.80 -2.90 -2.35 -4 -0.55 -1.10 -1.75 -3.35 -2.65 -5 -0.90 -1.65 -2.65 -4.90 -3.85 -7.20 -1.20 -2.35 -2.50 -4.60 -2.90 -5.05 -1.20 -1.35 -0.90 -1.85 2 -3.30 1.55 -0.70 2.90 -1.50 3.05 -1.75 0.15 -0.25 2.60 -1.60 5.45 -3 2.90 -1.40 5.35 -2.70 5.50 -2.95 0.15 -0.25 2.20 -1.35 4.50 -2.50 2.30 -1.15 4.35 -2.25 4.50 -2.50 0.15 -0.20 2 -1.25 4.15 -2.30 2.10 -1.05 4.75 -2.50 5.85 -3.20 1.10 -0.70 3.75 -2.20 5.90 -3.25 2.15 -1.05 4 -2.10 4.15 -2.30 0.10 -0.20 2.60 -1.55 5.45 -3 2.90 -1.40 5.40 -2.80 5.55 -3 0.10 -0.20 1.50 -1 3.10 -1.75 1.55 -0.75 3.70 -1.90 4.70 -2.55 1.60 -1 2.05 -1.05 2.90 -0.55 0.90 0.55 1.50 0.40 4.40 -1.15 3.35 -1.75 3.35 -1.75 3.30 -5.25 -0.40 -18.70 -0.35 -27.95 0.25 -32.15 0.80 -5.60 0.55 -6.05 -4.45 -9.45 -2.70 -1.85 -3.45 -2.10 -4.95 -1.85 -2.35 0.35 -3.35 -0.25 -2.55 -1.55 0.50 -0.80 0.30 -1.25 -1.45 -3.10 -4.30 -4.50 -5 -7.85 -2.60 -12.90 3 -6.40 5.80 -8.25 13 -8.65 4 -0.25 4.75 -0.45 4.85 -1.20 0.45 -3.10 1.95 -9.85 3.20 -14.20 4.65 -16.15 11.90 -28.90 22.85 -40.20 4.60 -4.75 4.60 -4.75 5.30 -10.10 0.40 -2.95 0.85 -5.55 1.05 -5.75 0.20 -0.20 2.70 -1.15 5.55 -2.15 5.70 -1.95 5.95 -1.90 9.85 0.70 1.35 0.90 1.40 0.90 7 -1.05 5.60 -1.95 12.50 -3.70 17 -4.35 2.15 -0.25 2.70 -0.65 5.80 -4.05 3.45 -3.70 3.45 -3.70 12 -3.70 8.60 0 8.60 0 12.45 3.70 3.70 3.65 3.90 3.75 7.35 4.35 4.50 0.75 13.10 3.15 17.20 4.80 3.15 1.25 3.15 1.25 6.35 -0.40 3.20 -1.70 3.20 -1.70 8.35 0 2.85 0.90 5.30 1.80 5.50 2 0.35 0.35 1.20 4.80 1.70 8.80 0.25 2.30 0.60 2.80 4.65 7 13.20 13.55 21.60 30.30 25.55 50.95 0.55 3.05 1.10 5.55 1.15 5.65 0.10 0.05 0.95 -0.10 1.90 -0.35 3.20 -0.95 7.95 -0.60 10.80 0.75 4.40 2 7.05 6.55 7.10 12.15 0.05 4.05 -0.70 5.80 -3.90 8.75 -1.40 1.35 -2.45 2.60 -2.30 2.90 0.20 0.25 -0.05 0.45 -0.45 0.45 -0.45 0 -0.80 0.25 -0.80 0.50 0 0.30 -0.50 0.50 -1.15 0.50 -1.35 0 -6.50 3.30 -7.65 4.95 -0.75 1.05 -0.75 1.75 -0.20 7.25 0.85 8.05 0.40 28.20 -1 44.05 -1.15 13.15 -1.10 16.05 0.50 36.25 0.50 6.45 1.10 13.80 1.30 16.25 0.35 4.50 0.35 4.50 2.45 6.50 2.60 2.45 3.75 5.80 3.75 10.95 0 4.15 -1 6.55 -3.30 8.05 -1.85 1.15 -2.20 2.50 -2.20 8.75 0 7.90 -1.80 19.85 -4.35 28.70 -3.85 13.45 -10 23.75 -19.70 33 -4.85 4.60 -5 4.80 -3.85 5.35 1.70 0.80 4.85 4.95 5.20 6.85 0.70 3.75 -3.90 5.85 -12.80 5.85 -6.30 0 -7.40 -0.35 -10.50 -3.25 -1.65 -1.55 -1.65 -1.55 -7.95 -0.30 -14.30 2.85 -33.55 4.15 -48.40 3.35 -14.65 -0.85 -31.15 -2.95 -38.10 -4.85 -1 -0.30 -1.10 -0.20 -0.80 0.75 0.45 1.50 -2.10 3.80 -5.40 4.80 -2.35 0.70 -9.70 0.95 -12.10 0.40z m25.30 -72.15 c1.65 -0.85 3.10 -1.85 3.25 -2.25 0.15 -0.35 -0.60 -2.20 -1.65 -4.10 -1.05 -1.85 -2.25 -4.05 -2.65 -4.90 -0.40 -0.80 -1.75 -3.20 -2.95 -5.25 -1.20 -2.05 -3.30 -5.85 -4.60 -8.40 -1.30 -2.55 -2.60 -4.95 -2.85 -5.25 -0.25 -0.35 -1.50 -2.55 -2.75 -4.95 -1.25 -2.35 -3.30 -6.10 -4.50 -8.25 -1.20 -2.15 -3.25 -5.80 -4.45 -8.15 -1.25 -2.35 -3.45 -6.25 -4.85 -8.65 -1.40 -2.45 -2.55 -4.50 -2.55 -4.60 0 -0.10 -0.85 -1.70 -1.95 -3.60 -1.05 -1.85 -3 -5.40 -4.30 -7.90 -1.30 -2.45 -2.95 -5.50 -3.65 -6.75 -0.70 -1.25 -2.15 -3.95 -3.25 -6 -1.10 -2.05 -2.75 -5.10 -3.70 -6.75 -0.95 -1.65 -1.90 -3.30 -2.10 -3.70 -0.90 -1.70 -1.90 -1.80 -4.65 -0.35 -1.45 0.80 -3.10 1.85 -3.60 2.35 -1 0.90 -0.95 0.95 0.50 3.05 0.80 1.20 1.80 2.85 2.20 3.65 0.40 0.85 1.10 2.10 1.60 2.85 0.50 0.70 0.90 1.55 0.90 1.80 0 0.30 0.85 1.85 1.90 3.45 1.05 1.60 2.70 4.45 3.60 6.30 0.95 1.90 1.90 3.55 2.10 3.65 0.20 0.15 0.40 0.65 0.40 1.15 0 0.50 0.45 1.30 1 1.80 0.55 0.50 1 1.30 1 1.75 0 0.50 0.30 1.15 0.70 1.45 0.40 0.35 1.40 2 2.25 3.70 0.85 1.70 2.10 4.10 2.85 5.35 2.10 3.50 3.40 5.85 6.15 11.25 1.45 2.75 3.20 6 3.90 7.25 0.75 1.25 2.15 3.85 3.20 5.80 1 1.95 2.40 4.45 3.10 5.50 0.65 1.10 1.95 3.30 2.80 4.95 0.90 1.65 2.20 4 2.90 5.25 2.45 4.35 4.15 7.75 4.15 8.20 0 0.25 0.45 0.95 0.95 1.50 0.50 0.60 1.80 2.65 2.80 4.55 2.05 3.85 2.65 4.75 3.35 4.75 0.20 0 1.80 -0.70 3.45 -1.50z m-36.05 -8.50 c0 -0.25 0.30 -0.50 0.70 -0.50 0.90 0 3.40 -2.95 3 -3.55 -0.15 -0.25 0 -0.45 0.30 -0.45 0.30 0 0.40 -0.20 0.25 -0.50 -0.15 -0.25 -0.10 -0.50 0.20 -0.50 0.65 0 2.60 -3.75 2.20 -4.20 -0.20 -0.15 0 -0.30 0.35 -0.30 0.35 0 0.55 -0.15 0.40 -0.30 -0.20 -0.15 0.15 -0.75 0.70 -1.30 0.55 -0.55 0.85 -1.30 0.70 -1.70 -0.15 -0.40 -0.05 -0.70 0.20 -0.70 0.30 0 0.50 -0.65 0.50 -1.50 0 -0.80 -0.20 -1.50 -0.40 -1.50 -0.25 0 -0.70 -0.55 -1.05 -1.20 -0.80 -1.40 -2.55 -2.40 -36.65 -21.05 -24.70 -13.45 -26.50 -14.35 -28.20 -14 -1.85 0.30 -6 3.80 -5.35 4.45 0.20 0.15 0.05 0.30 -0.30 0.30 -0.35 0 -0.45 0.20 -0.30 0.50 0.35 0.60 -2.15 5 -2.85 5 -0.25 0 -0.35 0.20 -0.20 0.45 0.15 0.25 -0.05 1.10 -0.45 1.85 -0.90 1.75 -0.95 3.70 -0.20 5.40 0.55 1.15 3.20 3.25 4.95 3.90 0.65 0.25 50.90 27.65 56.25 30.65 2.05 1.20 5.25 1.65 5.25 0.75z m81.50 -60.55 c0 -0.25 0.30 -0.45 0.70 -0.45 0.40 0 1.25 -0.75 1.90 -1.60 1.15 -1.65 1.40 -3.90 0.70 -6.65 -0.30 -1.15 -0.55 -1.30 -1.60 -1.05 -1.90 0.50 -14.65 0.35 -16.85 -0.15 -1.25 -0.30 -1.95 -0.25 -2.20 0.10 -0.55 0.85 -0.55 5 0 6.35 0.30 0.70 0.55 1.45 0.55 1.70 0.05 0.45 0.50 0.70 2.80 1.75 2.20 0.95 14 1 14 0z m-40.80 -28.75 c1.40 -0.45 3.25 -1.40 4.20 -2.05 0.95 -0.60 2.10 -1.15 2.55 -1.15 1.05 0 3.90 -2.35 8.35 -6.75 2.65 -2.65 4 -4.50 5.40 -7.40 1 -2.15 1.70 -4.10 1.55 -4.35 -0.20 -0.30 -0.05 -0.50 0.25 -0.50 0.35 0 0.50 -0.35 0.30 -0.75 -0.15 -0.40 0 -0.75 0.25 -0.75 0.30 0 0.45 -0.45 0.30 -1 -0.15 -0.55 -0.05 -1 0.25 -1 0.30 0 0.40 -0.45 0.25 -1 -0.15 -0.55 -0.10 -1 0.15 -1 0.40 0 0.30 -11.30 -0.15 -12.50 -0.40 -1.15 -1.45 -4.50 -1.55 -5.15 -0.65 -3.05 -4.05 -7.55 -8.20 -10.75 -2.85 -2.25 -2.85 -2.25 -17.80 -1.90 -11.70 0.30 -15.35 0.55 -16.85 1.15 -1.10 0.40 -1.95 0.95 -1.95 1.20 0 0.25 -0.25 0.45 -0.60 0.45 -0.30 0 -1.65 1.20 -3 2.65 -6.45 6.95 -9.30 13.80 -9.75 23.40 -0.25 5.10 -0.15 6.30 0.85 9.50 0.60 2.05 1.05 3.75 1.05 3.85 -0.05 0.05 0.35 0.70 0.95 1.45 0.55 0.70 1 1.55 1 1.90 0 1.15 6.05 7.20 9.25 9.20 5.80 3.70 9.20 4.60 16 4.30 2.55 -0.10 5.55 -0.55 6.95 -1.05z m84.45 0.35 c1.85 -0.50 3.80 -1.30 4.30 -1.75 0.45 -0.45 1.20 -0.80 1.60 -0.80 1.45 0 9.45 -7.70 11.35 -10.95 2.80 -4.80 4.95 -14.15 3.85 -16.90 -0.20 -0.50 -0.40 -1.95 -0.50 -3.25 -0.10 -1.30 -0.55 -3.15 -1 -4.10 -0.45 -0.95 -0.90 -2 -0.95 -2.40 -0.05 -0.35 -1 -2.45 -2.05 -4.60 -1.35 -2.70 -3.20 -5.25 -5.65 -7.90 -2.05 -2.15 -3.40 -3.90 -3.05 -3.90 0.40 0 0.30 -0.25 -0.30 -0.60 -0.55 -0.30 -1.15 -0.80 -1.35 -1.10 -0.20 -0.30 -0.55 -0.30 -1 0 -0.40 0.30 -6.05 0.30 -15.50 0 -8.15 -0.25 -15.40 -0.30 -16.15 -0.10 -0.70 0.20 -1.65 0.75 -2.15 1.30 -0.45 0.55 -1 1 -1.20 1 -0.85 0 -6.95 6.80 -6.50 7.25 0.15 0.15 0 0.25 -0.35 0.25 -0.35 0 -0.50 0.20 -0.30 0.45 0.15 0.25 -0.05 0.75 -0.40 1.15 -0.40 0.35 -0.60 0.95 -0.45 1.30 0.10 0.30 -0.05 0.60 -0.35 0.60 -0.30 0 -0.40 0.35 -0.25 0.75 0.20 0.40 0.05 0.75 -0.25 0.75 -0.30 0 -0.40 0.35 -0.25 0.75 0.20 0.40 0.10 0.75 -0.15 0.75 -0.55 0 -0.60 0.45 -0.95 6.50 -0.25 3.85 -0.10 5.65 0.75 9.25 1.40 5.85 4.40 11.95 7.50 15.35 2.55 2.80 8.10 6.90 11.95 8.85 5.75 2.90 13.80 3.75 19.75 2.10z"/>
 </g>
 <g fill="#eee34b">
  <path d="M65.65 112.10 c-0.85 -0.55 0.20 -3 1.45 -3.40 0.50 -0.15 2.10 -1.65 3.60 -3.30 2.15 -2.45 2.65 -3.25 2.25 -3.95 -1.45 -2.75 0.05 -5.80 3.45 -7 1.20 -0.40 1.60 -0.85 1.60 -1.75 0 -1.60 1.70 -10.50 3.35 -17.45 4.15 -17.70 12.10 -32.55 24 -44.80 4.60 -4.75 4.60 -4.75 5.30 -10.10 0.40 -2.95 0.85 -5.55 1.05 -5.75 0.20 -0.20 2.70 -1.15 5.55 -2.15 5.70 -1.95 5.95 -1.90 9.85 0.70 1.35 0.90 1.40 0.90 7 -1.05 5.60 -1.95 12.50 -3.70 17 -4.35 2.15 -0.25 2.70 -0.65 5.80 -4.05 3.45 -3.70 3.45 -3.70 12 -3.70 8.60 0 8.60 0 12.45 3.70 3.70 3.65 3.90 3.75 7.35 4.35 4.50 0.75 13.10 3.15 17.20 4.80 3.15 1.25 3.15 1.25 6.35 -0.40 3.20 -1.70 3.20 -1.70 8.35 0 2.85 0.90 5.30 1.80 5.50 2 0.35 0.35 1.20 4.80 1.70 8.80 0.25 2.30 0.60 2.80 4.65 7 13.20 13.55 21.50 30.10 25.55 51 1.10 5.55 1.20 6.10 1.75 10.40 0.30 2.10 0.45 2.35 1.55 2.35 1.85 0 4.45 1.25 5.40 2.55 1 1.45 1 2.80 0 4.70 -1.10 2.15 -0.65 3.15 3.10 6.75 2.40 2.35 3.15 3.30 2.55 3.40 -0.50 0.10 -0.85 0.40 -0.85 0.70 0 0.35 -0.70 0.40 -1.85 0.25 -1.05 -0.20 -3.15 -0.45 -4.65 -0.60 -1.50 -0.15 -3.40 -0.40 -4.25 -0.50 -5 -0.75 -16.90 -1.70 -26 -2.05 -5 -0.20 -8.65 -0.55 -8.85 -0.85 -0.20 -0.35 -0.55 -0.35 -1 -0.05 -0.40 0.30 -4.30 0.35 -10.90 0.05 -13.75 -0.55 -79 -0.55 -90.25 0.05 -4.95 0.25 -14.05 0.60 -20.25 0.80 -6.20 0.15 -11.75 0.40 -12.40 0.50 -0.60 0.15 -3.75 0.50 -7 0.80 -5.90 0.50 -12.85 1.30 -16.10 1.75 -0.95 0.15 -2.05 0.10 -2.35 -0.15z"/>
 </g>
 <g fill="#f0da4e">
  <path d="M65.65 112.10 c-0.85 -0.55 0.20 -3 1.45 -3.40 0.50 -0.15 2.10 -1.65 3.60 -3.30 2.15 -2.45 2.65 -3.25 2.25 -3.95 -1.45 -2.75 0.05 -5.80 3.45 -7 1.20 -0.40 1.60 -0.85 1.60 -1.75 0 -1.60 1.70 -10.50 3.35 -17.45 4.15 -17.70 12.10 -32.55 24 -44.80 4.60 -4.75 4.60 -4.75 5.30 -10.10 0.40 -2.95 0.85 -5.55 1.05 -5.75 0.20 -0.20 2.70 -1.15 5.55 -2.15 5.70 -1.95 5.95 -1.90 9.85 0.70 1.35 0.90 1.40 0.90 7 -1.05 5.60 -1.95 12.50 -3.70 17 -4.35 2.15 -0.25 2.70 -0.65 5.80 -4.05 3.45 -3.70 3.45 -3.70 12.20 -3.70 8.75 0 8.75 0 9.95 2.25 0.65 1.25 1.35 2.25 1.50 2.25 0.15 0 0.30 0.35 0.30 0.75 0 0.55 -0.20 0.60 -0.70 0.20 -0.50 -0.45 -0.65 -0.25 -0.70 1.10 -0.15 4.25 0.20 8.85 1.35 16.90 0.65 4.80 1.20 9.30 1.20 10.10 0 0.75 0.25 1.55 0.50 1.70 0.35 0.20 0.55 -3.15 0.60 -9.60 0.10 -12.55 -0.10 -18.35 -0.65 -18.55 -0.25 -0.10 -0.45 -0.40 -0.45 -0.65 0 -0.70 1.30 -0.55 1.95 0.25 0.30 0.35 2.30 0.95 4.40 1.30 4.65 0.75 13.25 3.10 17.55 4.85 3.15 1.25 3.15 1.25 6.35 -0.40 3.20 -1.70 3.20 -1.70 8.35 0 2.85 0.90 5.30 1.80 5.50 2 0.35 0.35 1.20 4.80 1.70 8.80 0.25 2.30 0.60 2.80 4.65 7 13.20 13.55 21.50 30.10 25.55 51 1.10 5.55 1.20 6.10 1.75 10.40 0.30 2.10 0.45 2.35 1.55 2.35 1.85 0 4.45 1.25 5.40 2.55 1 1.45 1 2.80 0 4.70 -1.10 2.15 -0.65 3.15 3.10 6.75 2.40 2.35 3.15 3.30 2.55 3.40 -0.50 0.10 -0.85 0.40 -0.85 0.70 0 0.35 -0.70 0.40 -1.85 0.25 -1.05 -0.20 -3.15 -0.45 -4.65 -0.60 -1.50 -0.15 -3.40 -0.40 -4.25 -0.50 -5 -0.75 -16.90 -1.70 -26 -2.05 -5 -0.20 -8.65 -0.55 -8.85 -0.85 -0.20 -0.35 -0.55 -0.35 -1 -0.05 -0.40 0.30 -4.30 0.35 -10.90 0.05 -13.75 -0.55 -79 -0.55 -90.25 0.05 -4.95 0.25 -14.05 0.60 -20.25 0.80 -6.20 0.15 -11.75 0.40 -12.40 0.50 -0.60 0.15 -3.75 0.50 -7 0.80 -5.90 0.50 -12.85 1.30 -16.10 1.75 -0.95 0.15 -2.05 0.10 -2.35 -0.15z m158.80 -80.95 c1.20 -3.80 1.35 -5.15 0.45 -4.25 -0.30 0.30 -0.70 1.50 -0.90 2.70 -0.20 1.20 -0.55 2.75 -0.75 3.55 -0.75 2.80 0.20 1.25 1.20 -2z m-92.20 -4.05 c-0.90 -0.20 -1.35 -2.25 -0.60 -2.70 0.45 -0.30 0.40 -0.40 -0.15 -0.40 -1.10 0 -2.30 -4 -1.40 -4.55 0.50 -0.35 0.45 -0.45 -0.20 -0.45 -0.50 0 -0.90 -0.35 -0.90 -0.75 0 -0.40 -0.45 -1 -1 -1.35 -0.55 -0.35 -1 -1.05 -1 -1.50 0 -0.50 -0.20 -0.90 -0.50 -0.90 -1.10 0 -0.40 2.40 2.30 8.05 2.25 4.65 2.95 5.75 3.45 5.30 0.55 -0.50 0.55 -0.65 0 -0.75z"/>
 </g>
 <g fill="#f2c263">
  <path d="M62 308.45 c0 -0.85 -2.60 -6 -4.05 -8 -0.55 -0.75 -1.30 -2.15 -1.70 -3.05 -0.40 -0.90 -1.30 -2.55 -2 -3.65 -0.65 -1.10 -2.50 -4.55 -4.05 -7.65 -1.55 -3.10 -3.05 -5.75 -3.25 -5.90 -0.25 -0.10 -1.15 -1.75 -2 -3.60 -0.85 -1.85 -2.10 -4.05 -2.75 -4.90 -0.65 -0.90 -1.90 -3.15 -2.80 -5 -0.85 -1.90 -2.20 -4.40 -3 -5.55 -0.75 -1.15 -1.40 -2.30 -1.40 -2.60 0 -0.30 -1.05 -0.55 -2.50 -0.55 -2.85 0 -6 -1.35 -7.20 -3.10 -0.45 -0.60 -0.80 -2.10 -0.80 -3.35 0 -1.85 0.25 -2.45 1.75 -3.85 2.05 -1.90 2.05 -2.05 0.75 -3.70 -0.55 -0.70 -1 -1.55 -1 -1.95 0 -0.40 -0.40 -1.20 -0.95 -1.75 -0.95 -1.10 -5.05 -8.70 -5.05 -9.45 0 -0.20 -0.65 -1.25 -1.45 -2.25 -0.75 -1 -1.70 -2.65 -2.05 -3.60 -0.40 -0.95 -1.30 -2.65 -2 -3.75 -0.75 -1.10 -1.80 -2.90 -2.35 -4 -0.55 -1.10 -1.75 -3.35 -2.65 -5 -0.90 -1.65 -2.65 -4.90 -3.85 -7.20 -1.20 -2.35 -2.50 -4.60 -2.90 -5.05 -1.20 -1.35 -0.90 -1.85 2 -3.30 1.55 -0.70 2.90 -1.50 3.05 -1.75 0.15 -0.25 2.60 -1.60 5.45 -3 2.90 -1.40 5.35 -2.70 5.50 -2.95 0.15 -0.25 2.20 -1.35 4.50 -2.50 2.30 -1.15 4.35 -2.25 4.50 -2.50 0.15 -0.20 2 -1.25 4.15 -2.30 2.10 -1.05 4.75 -2.50 5.85 -3.20 1.10 -0.70 3.75 -2.20 5.90 -3.25 2.15 -1.05 4 -2.10 4.15 -2.30 0.10 -0.20 2.60 -1.55 5.45 -3 2.90 -1.40 5.40 -2.80 5.55 -3 0.10 -0.20 1.50 -1 3.10 -1.75 1.55 -0.75 3.70 -1.90 4.70 -2.55 1.60 -1 2.05 -1.05 2.90 -0.55 1.05 0.70 2.15 0.20 10.25 -4.35 8.45 -4.75 9.70 -5.30 10.70 -4.75 0.95 0.45 2.30 2.75 6.45 10.50 1.10 2.10 2.70 4.90 3.55 6.25 0.85 1.35 1.55 2.90 1.55 3.40 0 0.55 -1 2.30 -2.25 3.95 -1.25 1.65 -2.25 3.30 -2.25 3.65 0 0.80 10.05 19.60 14.30 26.75 0.40 0.70 1.45 2.60 2.30 4.25 0.85 1.65 2.80 5.25 4.40 8 1.55 2.75 4.05 7.25 5.50 10 2.60 4.90 3.30 6.20 7 12.75 1.95 3.50 6.95 12.50 8.75 15.75 0.60 1.10 1.20 2.50 1.35 3.10 0.35 1.35 -0.30 1.85 -6.70 5.40 -2.45 1.35 -4.40 2.55 -4.40 2.70 0 1.40 -5 5 -11.50 8.30 -2.05 1.05 -4.30 2.30 -5 2.80 -0.70 0.45 -3.15 1.85 -5.50 3.05 -2.35 1.25 -5.15 2.75 -6.25 3.40 -1.10 0.65 -2.90 1.60 -4 2.15 -1.10 0.55 -2.90 1.55 -4 2.25 -1.10 0.70 -3.80 2.20 -6 3.35 -2.20 1.15 -6 3.10 -8.45 4.40 -2.40 1.25 -4.75 2.60 -5.25 3 -0.45 0.40 -2.80 1.70 -5.30 2.90 -2.45 1.20 -5 2.60 -5.60 3.15 -0.90 0.75 -1.15 0.80 -1.15 0.25z m68.55 -44.45 c1.65 -0.85 3.10 -1.85 3.25 -2.25 0.15 -0.35 -0.60 -2.20 -1.65 -4.10 -1.05 -1.85 -2.25 -4.05 -2.65 -4.90 -0.40 -0.80 -1.75 -3.20 -2.95 -5.25 -1.20 -2.05 -3.30 -5.85 -4.60 -8.40 -1.30 -2.55 -2.60 -4.95 -2.85 -5.25 -0.25 -0.35 -1.50 -2.55 -2.75 -4.95 -1.25 -2.35 -3.30 -6.10 -4.50 -8.25 -1.20 -2.15 -3.25 -5.80 -4.45 -8.15 -1.25 -2.35 -3.45 -6.25 -4.85 -8.65 -1.40 -2.45 -2.55 -4.50 -2.55 -4.60 0 -0.10 -0.85 -1.70 -1.95 -3.60 -1.05 -1.85 -3 -5.40 -4.30 -7.90 -1.30 -2.45 -2.95 -5.50 -3.65 -6.75 -0.70 -1.25 -2.15 -3.95 -3.25 -6 -1.10 -2.05 -2.75 -5.10 -3.70 -6.75 -0.95 -1.65 -1.90 -3.30 -2.10 -3.70 -0.90 -1.70 -1.90 -1.80 -4.65 -0.35 -1.45 0.80 -3.10 1.85 -3.60 2.35 -1 0.90 -0.95 0.95 0.50 3.05 0.80 1.20 1.80 2.85 2.20 3.65 0.40 0.85 1.10 2.10 1.60 2.85 0.50 0.70 0.90 1.55 0.90 1.80 0 0.30 0.85 1.85 1.90 3.45 1.05 1.60 2.70 4.45 3.60 6.30 0.95 1.90 1.90 3.55 2.10 3.65 0.20 0.15 0.40 0.65 0.40 1.15 0 0.50 0.45 1.30 1 1.80 0.55 0.50 1 1.30 1 1.75 0 0.50 0.30 1.15 0.70 1.45 0.40 0.35 1.40 2 2.25 3.70 0.85 1.70 2.10 4.10 2.85 5.35 2.10 3.50 3.40 5.85 6.15 11.25 1.45 2.75 3.20 6 3.90 7.25 0.75 1.25 2.15 3.85 3.20 5.80 1 1.95 2.40 4.45 3.10 5.50 0.65 1.10 1.95 3.30 2.80 4.95 0.90 1.65 2.20 4 2.90 5.25 2.45 4.35 4.15 7.75 4.15 8.20 0 0.25 0.45 0.95 0.95 1.50 0.50 0.60 1.80 2.65 2.80 4.55 2.05 3.85 2.65 4.75 3.35 4.75 0.20 0 1.80 -0.70 3.45 -1.50z m-36.05 -8.50 c0 -0.25 0.30 -0.50 0.70 -0.50 0.90 0 3.40 -2.95 3 -3.55 -0.15 -0.25 0 -0.45 0.30 -0.45 0.30 0 0.40 -0.20 0.25 -0.50 -0.15 -0.25 -0.10 -0.50 0.20 -0.50 0.65 0 2.60 -3.75 2.20 -4.20 -0.20 -0.15 0 -0.30 0.35 -0.30 0.35 0 0.55 -0.15 0.40 -0.30 -0.20 -0.15 0.15 -0.75 0.70 -1.30 0.55 -0.55 0.85 -1.30 0.70 -1.70 -0.15 -0.40 -0.05 -0.70 0.20 -0.70 0.30 0 0.50 -0.65 0.50 -1.50 0 -0.80 -0.20 -1.50 -0.40 -1.50 -0.25 0 -0.70 -0.55 -1.05 -1.20 -0.80 -1.40 -2.55 -2.40 -36.65 -21.05 -24.70 -13.45 -26.50 -14.35 -28.20 -14 -1.85 0.30 -6 3.80 -5.35 4.45 0.20 0.15 0.05 0.30 -0.30 0.30 -0.35 0 -0.45 0.20 -0.30 0.50 0.35 0.60 -2.15 5 -2.85 5 -0.25 0 -0.35 0.20 -0.20 0.45 0.15 0.25 -0.05 1.10 -0.45 1.85 -0.90 1.75 -0.95 3.70 -0.20 5.40 0.55 1.15 3.20 3.25 4.95 3.90 0.65 0.25 50.90 27.65 56.25 30.65 2.05 1.20 5.25 1.65 5.25 0.75z"/>
  <path d="M65.75 112.05 c-0.45 -0.80 0.40 -2 4.20 -5.95 2.95 -3.05 3.45 -3.85 3.05 -4.60 -1.50 -2.80 0 -5.85 3.40 -7.05 1.20 -0.40 1.60 -0.85 1.60 -1.75 0 -1.60 1.70 -10.50 3.35 -17.45 4.15 -17.70 12.10 -32.55 24 -44.80 4.60 -4.75 4.60 -4.75 5.30 -10.15 0.40 -2.95 0.90 -5.55 1.15 -5.75 0.55 -0.50 9.65 -3.55 10.60 -3.55 0.30 0 0.60 0.25 0.60 0.60 0 0.85 10.65 22.40 11.05 22.40 0.20 0 0.20 -0.70 -0.05 -1.55 -0.25 -0.90 -0.35 -1.75 -0.25 -2 0.15 -0.20 0.05 -0.45 -0.25 -0.55 -0.25 -0.05 -0.55 -0.80 -0.60 -1.65 -0.05 -0.80 -0.30 -1.65 -0.60 -1.85 -0.25 -0.15 -0.45 -1 -0.40 -1.85 0 -0.85 -0.20 -1.55 -0.50 -1.55 -0.25 0 -0.40 -0.35 -0.20 -0.75 0.15 -0.40 0.05 -0.75 -0.25 -0.75 -0.30 0 -0.40 -0.20 -0.20 -0.45 0.15 -0.25 0.05 -0.60 -0.20 -0.80 -0.30 -0.15 -0.40 -0.60 -0.20 -1 0.15 -0.40 0 -0.75 -0.35 -0.75 -0.35 0 -0.50 -0.30 -0.35 -0.65 0.15 -0.35 -0.05 -1.05 -0.45 -1.60 -0.40 -0.50 -0.70 -1.20 -0.70 -1.50 0 -1.20 12.60 -5.30 20.25 -6.55 4.50 -0.75 4.50 -0.75 8.05 -4.45 3.55 -3.75 3.55 -3.75 12.45 -3.75 8.25 0 8.85 0.05 8.50 0.85 -0.45 1.20 2.55 27.05 4.25 36.60 0.30 1.50 0.50 3.40 0.50 4.25 0 0.95 0.20 1.30 0.45 1.05 0.30 -0.30 0.60 -8 0.75 -17.70 0.15 -9.45 0.35 -17.30 0.50 -17.40 0.85 -0.85 15.35 2.65 21.70 5.20 3.15 1.25 3.15 1.25 6.35 -0.40 3.20 -1.70 3.20 -1.70 8.35 0 2.85 0.90 5.30 1.80 5.45 2 0.20 0.15 0.50 1.05 0.70 1.95 0.25 1.20 0.15 1.60 -0.40 1.60 -0.45 0 -0.90 1.15 -1.35 3.65 -0.35 1.95 -0.85 4.15 -1.10 4.85 -0.55 1.40 -2.40 11.15 -2.40 12.60 0 0.55 0.20 0.85 0.45 0.70 0.45 -0.30 3.20 -7.80 4.05 -11.20 0.30 -1.20 0.90 -2.30 1.30 -2.45 0.95 -0.35 7.55 6.05 11.45 11.10 9.70 12.70 15.90 26.80 19.25 44 1.10 5.55 1.20 6.10 1.75 10.40 0.30 2.10 0.45 2.35 1.55 2.35 1.85 0 4.45 1.25 5.40 2.55 1 1.45 1 2.80 0 4.70 -1.05 2.05 -0.65 3.10 2.50 6.25 1.45 1.50 2.60 3 2.45 3.35 -0.20 0.55 -2 1.45 -2.65 1.30 -0.15 -0.05 -1.80 -0.20 -3.75 -0.40 -1.90 -0.15 -3.95 -0.40 -4.50 -0.50 -3.05 -0.60 -16.95 -1.70 -26.10 -2.05 -4.75 -0.20 -8.65 -0.50 -8.65 -0.70 0 -0.15 -2.70 -0.20 -6 -0.10 -4.55 0.15 -6 0.05 -6 -0.40 0 -0.40 -0.65 -0.50 -2.10 -0.35 -1.20 0.15 -7.45 0.25 -13.90 0.25 -33.50 -0.20 -75.50 -0.10 -75.50 0.15 0 0.45 -5.10 0.75 -19 1.15 -6.20 0.15 -11.70 0.40 -12.25 0.50 -0.55 0.10 -2.55 0.35 -4.50 0.55 -7.10 0.65 -17.55 1.75 -19.10 2 -0.85 0.15 -1.70 0.05 -1.90 -0.20z m101.25 -18.20 c19.65 0 40.60 0.20 46.50 0.40 5.90 0.20 10.65 0.25 10.50 0.10 -1.10 -1.10 -29.85 -2.35 -53.80 -2.35 -22.30 -0.05 -53.20 1.30 -54.15 2.30 -0.15 0.15 3.20 0.15 7.45 -0.05 4.25 -0.25 23.85 -0.40 43.50 -0.40z"/>
 </g>
 <g fill="#f4ce49">
  <path d="M65.75 112.05 c-0.45 -0.80 0.35 -2 4.20 -5.95 2.95 -3.05 3.45 -3.85 3.05 -4.60 -1.50 -2.80 0 -5.85 3.40 -7.05 1.20 -0.40 1.60 -0.85 1.60 -1.75 0 -3.65 3.95 -21 6.35 -27.95 4.70 -13.40 11.45 -24.35 21.30 -34.60 4.45 -4.60 4.45 -4.60 5.10 -9.95 0.35 -2.90 0.85 -5.50 1.10 -5.70 0.40 -0.40 7.40 -2.70 9.80 -3.20 0.85 -0.20 1.35 -0.10 1.35 0.30 0 0.85 10.65 22.40 11.05 22.40 0.20 0 0.20 -0.70 -0.05 -1.55 -0.25 -0.90 -0.35 -1.75 -0.25 -2 0.15 -0.20 0.05 -0.45 -0.25 -0.55 -0.25 -0.05 -0.55 -0.80 -0.60 -1.65 -0.05 -0.80 -0.30 -1.65 -0.60 -1.85 -0.25 -0.15 -0.45 -1 -0.40 -1.85 0 -0.85 -0.20 -1.55 -0.50 -1.55 -0.25 0 -0.40 -0.35 -0.20 -0.75 0.15 -0.40 0.05 -0.75 -0.25 -0.75 -0.30 0 -0.40 -0.20 -0.20 -0.45 0.15 -0.25 0.05 -0.60 -0.20 -0.80 -0.30 -0.15 -0.40 -0.60 -0.20 -1 0.15 -0.40 0 -0.75 -0.30 -0.75 -0.35 0 -0.55 -0.30 -0.50 -0.60 0.05 -0.35 -0.20 -1.25 -0.55 -2.05 -0.35 -0.75 -0.55 -1.45 -0.45 -1.55 0.10 -0.10 2 -0.85 4.20 -1.70 5.25 -1.95 10.45 -3.40 16 -4.35 4.50 -0.75 4.50 -0.75 8.20 -4.50 3.65 -3.75 3.65 -3.75 12.40 -3.75 8.15 0 8.75 0.05 8.40 0.85 -0.45 1.20 2.55 27.05 4.25 36.60 0.30 1.50 0.50 3.40 0.50 4.25 0 0.95 0.20 1.30 0.45 1.05 0.30 -0.30 0.60 -8 0.75 -17.70 0.15 -9.45 0.30 -17.20 0.40 -17.30 0.30 -0.25 9.55 1.30 10.40 1.75 0.55 0.30 1.45 0.50 2.10 0.50 0.65 0 1.40 0.20 1.70 0.40 0.25 0.25 1.45 0.70 2.70 1.05 1.25 0.35 3.20 1.10 4.35 1.60 2.80 1.30 3.70 1.20 6.80 -0.55 2.60 -1.45 2.60 -1.45 6.60 -0.20 2.20 0.70 4.75 1.60 5.75 2.05 0.95 0.45 1.80 0.85 1.85 0.85 0.05 0.05 0.20 0.65 0.40 1.45 0.25 1 0.15 1.35 -0.35 1.35 -0.50 0 -0.95 1.10 -1.40 3.65 -0.35 1.95 -0.85 4.15 -1.10 4.85 -0.60 1.50 -2.40 11.25 -2.40 12.70 0.05 1.95 1.20 -0.35 2.95 -5.80 2.30 -7.10 2.40 -7.40 3.30 -7.40 0.45 0 0.65 0.25 0.50 0.50 -0.15 0.30 0.10 0.65 0.60 0.85 1.20 0.40 4.65 3.70 4.40 4.20 -0.15 0.20 0.60 1.10 1.70 2.05 1.05 0.90 2 1.90 2.10 2.15 0.05 0.30 0.65 0.90 1.30 1.40 0.65 0.50 1.05 1.10 0.90 1.35 -0.15 0.20 0.05 0.50 0.45 0.65 1 0.40 3.90 4.75 3.55 5.35 -0.15 0.30 0 0.50 0.40 0.50 0.80 0 1.50 1.35 1.05 2.05 -0.15 0.25 0.10 0.45 0.50 0.45 0.80 0 5.35 8.90 7.55 14.70 1.95 5.25 4.05 12.95 5.25 19.05 1.10 5.55 1.20 6.10 1.75 10.40 0.30 2.10 0.45 2.35 1.55 2.35 1.85 0 4.45 1.25 5.40 2.55 1 1.45 1 2.80 0 4.70 -1.05 2.05 -0.65 3.10 2.50 6.25 1.45 1.50 2.60 3 2.45 3.35 -0.20 0.55 -2 1.45 -2.65 1.30 -0.15 -0.05 -1.80 -0.20 -3.75 -0.40 -1.90 -0.15 -3.95 -0.40 -4.50 -0.50 -3.05 -0.60 -16.95 -1.70 -26.10 -2.05 -4.75 -0.20 -8.65 -0.50 -8.65 -0.70 0 -0.15 -2.70 -0.20 -6 -0.10 -4.55 0.15 -6 0.05 -6 -0.40 0 -0.40 -0.65 -0.50 -2.10 -0.35 -1.20 0.15 -7.45 0.25 -13.90 0.25 -38.60 -0.25 -75.50 -0.10 -75.50 0.30 0 0.25 -1.90 0.30 -4.30 0.15 -3.10 -0.15 -4.20 -0.10 -4.05 0.35 0.15 0.40 -1.75 0.55 -6.85 0.55 -8.75 0 -15.05 0.25 -19.30 0.80 -1.80 0.20 -6.85 0.75 -11.25 1.20 -4.40 0.45 -8.60 0.90 -9.35 1.05 -0.70 0.15 -1.45 0.05 -1.65 -0.25z m101.25 -18.20 c19.65 0 40.60 0.20 46.50 0.40 5.90 0.20 10.65 0.25 10.50 0.10 -1.10 -1.10 -29.85 -2.35 -53.80 -2.35 -22.30 -0.05 -53.20 1.30 -54.15 2.30 -0.15 0.15 3.20 0.15 7.45 -0.05 4.25 -0.25 23.85 -0.40 43.50 -0.40z"/>
 </g>
 <g fill="#f5c544">
  <path d="M265 111.20 c0 -0.30 -0.70 -0.70 -1.55 -0.90 -2.10 -0.40 -2.45 -0.40 -2.45 0.15 0 0.25 0.45 0.35 1 0.20 0.55 -0.15 1 0 1 0.30 0 0.95 -2.45 0.60 -3.35 -0.45 -1.10 -1.30 -3.40 -1.40 -2.95 -0.10 0.25 0.75 0.25 0.75 -0.30 0.05 -0.90 -1.10 -2.20 -1.45 -2.85 -0.80 -0.45 0.45 -0.70 0.40 -1.05 -0.15 -0.40 -0.65 -0.50 -0.60 -0.50 0.20 0 0.55 -0.25 0.80 -0.70 0.65 -0.40 -0.15 -5.30 -0.55 -10.90 -0.80 -12 -0.65 -13.30 -0.80 -15.20 -1.80 -1.90 -1 -15.20 -1.10 -15.20 -0.10 0 0.40 -0.15 0.35 -0.50 -0.15 -0.35 -0.60 -2 -0.80 -8 -0.90 -6.50 -0.15 -7.55 -0.10 -7.80 0.60 -0.35 0.95 -2.20 1.10 -2.20 0.20 0 -0.45 -0.20 -0.40 -0.50 0.10 -0.40 0.65 -0.50 0.60 -0.50 -0.10 0 -0.50 -0.20 -0.90 -0.50 -0.90 -0.25 0 -0.35 0.30 -0.20 0.65 0.35 0.95 -38.75 0.90 -39.75 -0.05 -0.55 -0.50 -4.05 -0.60 -17.15 -0.35 -9.10 0.15 -17.05 0.40 -17.75 0.55 -0.80 0.20 -1.15 0.60 -1 1.15 0.15 0.70 -0.85 0.80 -9.85 0.90 -9.45 0.05 -12.15 0.20 -17.90 0.95 -2 0.30 -2.40 0.20 -2.40 -0.50 0 -1 -0.70 -1.05 -1.70 0 -0.45 0.40 -0.80 0.55 -0.80 0.25 0 -0.30 -0.25 -0.55 -0.55 -0.55 -0.30 0 -0.45 0.35 -0.25 0.75 0.30 0.85 -0.60 0.80 -1.60 -0.10 -0.90 -0.85 -1.35 -0.80 -2.40 0.20 -1 1 -3.85 1.05 -9.80 0.20 -0.90 -0.10 -0.20 -1.10 3.10 -4.50 2.90 -3.05 3.40 -3.80 3 -4.55 -1.50 -2.80 0 -5.85 3.40 -7.05 1.20 -0.40 1.60 -0.85 1.60 -1.75 0 -3.65 3.95 -21 6.35 -27.95 4.70 -13.40 11.45 -24.35 21.30 -34.60 4.45 -4.60 4.45 -4.60 5.10 -9.95 0.35 -2.90 0.85 -5.50 1.10 -5.70 0.45 -0.40 7.80 -2.85 9.40 -3.10 0.80 -0.15 1.60 1.15 4.90 7.85 2.15 4.40 4.20 8.15 4.50 8.35 0.35 0.20 0.45 0.40 0.20 0.40 -0.20 0 0.60 1.85 1.70 4.15 2.05 3.95 3.10 4.65 2 1.20 -0.65 -1.85 -1 -3.40 -1.40 -5.50 -0.15 -0.75 -0.45 -1.50 -0.70 -1.65 -0.25 -0.15 -0.45 -0.90 -0.45 -1.65 0 -0.75 -0.15 -1.55 -0.35 -1.75 -0.20 -0.15 -0.40 -0.60 -0.45 -0.95 -0.05 -0.35 -0.55 -2 -1.15 -3.70 -0.60 -1.70 -1.05 -3.35 -1.05 -3.60 0 -1.15 12 -4.95 19.75 -6.30 4.50 -0.75 4.50 -0.75 8.20 -4.50 3.70 -3.75 3.70 -3.75 11.75 -3.65 8.05 0.15 8.05 0.15 8.95 5.90 0.45 3.15 0.75 6.15 0.65 6.60 -0.10 0.50 0.10 2.95 0.45 5.50 2.20 15.30 3.15 22.40 3.40 25.10 0.15 1.80 1.20 2.30 1.60 0.70 0.15 -0.65 0.35 -9 0.40 -18.65 0.10 -9.60 0.30 -17.45 0.40 -17.45 0.10 0.05 1.80 0.25 3.70 0.45 1.95 0.20 4.40 0.70 5.50 1.05 1.10 0.40 2.45 0.70 3 0.70 0.60 0 1.25 0.20 1.50 0.40 0.30 0.25 1.50 0.70 2.75 1.05 1.25 0.35 3.20 1.10 4.35 1.60 2.80 1.30 3.70 1.20 6.80 -0.55 2.60 -1.45 2.60 -1.45 6.40 -0.25 5.55 1.75 7.85 2.85 8.10 3.85 0.15 0.50 0 0.90 -0.35 0.90 -0.80 0 -4.30 14.25 -5.30 21.50 -0.25 2.05 -0.65 4.25 -0.80 4.90 -0.40 1.45 0.65 1.45 1.30 0 1.40 -3.40 4.80 -13.85 5.20 -15.90 0.15 -0.65 0.90 -1.50 1.35 -1.50 0.30 0 0.35 0.25 0.20 0.50 -0.15 0.30 0.10 0.65 0.60 0.85 1.20 0.40 4.65 3.70 4.40 4.20 -0.15 0.20 0.60 1.10 1.70 2.05 1.05 0.90 1.90 1.80 1.85 2 0 0.15 0.55 0.80 1.35 1.40 0.75 0.60 1.25 1.25 1.10 1.50 -0.15 0.20 0.05 0.50 0.45 0.65 1 0.40 3.90 4.75 3.55 5.35 -0.15 0.30 0 0.50 0.40 0.50 0.80 0 1.50 1.35 1.05 2.05 -0.15 0.25 0.10 0.45 0.50 0.45 0.80 0 5.35 8.90 7.55 14.70 1.95 5.25 4.05 12.95 5.25 19.05 1.10 5.55 1.20 6.10 1.75 10.40 0.30 2.10 0.45 2.35 1.55 2.35 1.85 0 4.45 1.25 5.40 2.55 1 1.45 1 2.80 0 4.70 -1 2 -0.65 3.05 2.10 5.85 1.25 1.30 2.15 2.60 1.95 2.90 -0.15 0.25 -1.20 0.50 -2.25 0.50 -1.40 0 -1.90 0.20 -1.70 0.65 0.15 0.40 -0.15 0.65 -0.80 0.65 -0.55 0 -1 -0.30 -1 -0.60z m-142.50 -16.05 c20.05 -0.60 88.15 -0.40 100.10 0.30 8.65 0.45 16.40 0.35 15.75 -0.25 -0.30 -0.30 -8.80 -1.20 -18.10 -1.90 -18.05 -1.40 -37.40 -1.95 -59 -1.65 -18.25 0.25 -43.45 1.35 -48 2.05 -0.80 0.15 -3.30 0.40 -5.50 0.55 -2.20 0.15 -4.65 0.45 -5.50 0.60 -1.50 0.30 -1.50 0.30 -0.25 0.70 0.70 0.25 2.60 0.30 4.25 0.20 1.65 -0.15 8.95 -0.40 16.25 -0.60z"/>
 </g>
 <g fill="#f3b53f">
  <path d="M64.85 298.10 c-0.70 -0.85 -2.25 -3.55 -9.10 -16.10 -1.85 -3.45 -4.50 -8.20 -5.85 -10.60 -1.35 -2.45 -2.40 -4.80 -2.30 -5.25 0.15 -0.95 5.25 -4.10 6.95 -4.25 0.95 -0.15 1.80 1.15 6.30 9.35 10.75 19.50 12.15 22.15 12.15 22.90 0 1 -0.95 1.70 -4.45 3.35 -2.75 1.30 -3 1.35 -3.70 0.60z"/>
  <path d="M262.75 101 c-1.35 -1.10 -2.55 -2.20 -2.55 -2.50 -0.05 -0.25 -0.10 -0.70 -0.15 -0.95 -0.10 -0.70 -12.90 -2.55 -24.05 -3.55 -22.50 -1.90 -47.85 -3.05 -66.50 -3 -28.70 0.10 -68.95 2.50 -85 5.05 -1.80 0.25 -3.85 0.55 -4.55 0.60 -0.85 0.05 -2.20 1.05 -3.85 2.85 -2.85 3.05 -3.60 2.95 -3.60 -0.55 0 -2.05 1.35 -3.60 3.90 -4.50 1.20 -0.40 1.60 -0.85 1.60 -1.75 0 -3.65 3.95 -21 6.35 -27.95 4.70 -13.40 11.45 -24.35 21.30 -34.60 4.45 -4.60 4.45 -4.60 5.10 -9.95 0.35 -2.90 0.85 -5.50 1.10 -5.70 0.55 -0.55 8.20 -3 9.25 -3 0.65 0 2.05 2.25 4.90 8 2.20 4.40 4.25 8 4.55 8 0.25 0 0.40 0.20 0.20 0.50 -0.30 0.50 3.90 9.25 4.75 9.75 0.85 0.50 0.60 -0.65 -1.40 -7 -5.65 -17.60 -5.50 -16.40 -2.25 -17.80 3.65 -1.55 11.90 -3.85 16.90 -4.70 4.50 -0.75 4.50 -0.75 8.20 -4.50 3.65 -3.75 3.65 -3.75 11.35 -3.75 4.20 0 7.75 0.20 7.90 0.40 0.25 0.40 1.80 10.20 1.80 11.40 0 0.35 -1.50 1.10 -3.35 1.65 -7.40 2.30 -10.80 5.50 -11.95 11.20 -0.80 3.80 -0.35 6.05 2.25 11.60 2.35 5.05 6.20 9.80 11.45 14.30 5.20 4.40 8.85 6.75 15.80 10.15 10.25 5 18.90 7.30 27.75 7.30 8.50 0 13.65 -1.50 17.45 -5.15 2.95 -2.80 3.85 -5.10 3.80 -9.60 -0.05 -6.60 -2.95 -12.25 -10.30 -20 -4.20 -4.45 -5.15 -6.65 -2.50 -6 1.45 0.35 5.20 3.65 4.85 4.30 -0.15 0.20 0.60 1.10 1.70 2.05 1.05 0.90 2 1.90 2.10 2.15 0.05 0.30 0.65 0.90 1.30 1.40 0.65 0.50 1.05 1.10 0.90 1.35 -0.15 0.20 0.05 0.50 0.45 0.65 1 0.40 3.90 4.75 3.55 5.35 -0.15 0.30 0 0.50 0.40 0.50 0.80 0 1.50 1.35 1.05 2.05 -0.15 0.25 0.10 0.45 0.50 0.45 0.80 0 5.35 8.90 7.55 14.70 1.95 5.25 4.05 12.95 5.25 19.05 1.10 5.55 1.20 6.10 1.75 10.40 0.30 2.10 0.45 2.35 1.55 2.35 2.95 0 6.20 2.45 6.20 4.65 0 1.10 -1.45 4.35 -1.95 4.30 -0.15 0 -1.40 -0.90 -2.80 -1.95z"/>
  <path d="M201.75 36 c0.20 -0.70 1 -3.25 1.75 -5.75 3.70 -11.90 3.75 -12.40 1.15 -13.55 -3.80 -1.55 -12.50 -3.75 -16.25 -4.05 -3.90 -0.30 -3.90 -0.30 -3.90 -2.50 0 -2.25 0 -2.25 3.65 -1.90 1.95 0.20 4.50 0.65 5.60 1.05 1.10 0.40 2.45 0.70 3 0.70 0.60 0 1.25 0.20 1.50 0.40 0.30 0.25 1.50 0.70 2.75 1.05 1.25 0.35 3.20 1.10 4.35 1.60 2.80 1.30 3.70 1.20 6.80 -0.55 2.60 -1.45 2.60 -1.45 6.40 -0.25 5.30 1.65 7.95 2.90 7.95 3.60 0 0.35 -0.30 0.65 -0.65 0.65 -0.60 0 -1 1.50 -2.10 7.35 -0.20 0.90 -0.55 1.80 -0.80 1.95 -0.30 0.15 -1.70 -0.50 -3.15 -1.45 -3.30 -2.20 -7.55 -4.35 -8.55 -4.35 -0.45 0 -2.20 2.95 -4.75 8.10 -3.95 7.90 -5.55 10.60 -4.75 7.90z"/>
 </g>
 <g fill="#e5b746">
  <path d="M128.60 270.15 c-0.65 -0.25 -2.10 -2.70 -2.10 -3.55 0 -0.25 1.55 -1.30 3.50 -2.30 1.90 -1 3.60 -2.05 3.80 -2.35 0.30 -0.50 -1.55 -5.40 -2.25 -5.95 -0.15 -0.15 -0.85 -1.30 -1.55 -2.55 -0.70 -1.30 -2.30 -4.20 -3.60 -6.45 -1.35 -2.25 -2.40 -4.30 -2.40 -4.60 0 -0.25 -0.75 -1.65 -1.70 -3.15 -0.95 -1.45 -2.35 -3.95 -3.05 -5.60 -0.75 -1.60 -1.65 -3.10 -2.05 -3.30 -0.40 -0.20 -0.70 -0.75 -0.70 -1.15 0 -0.45 -0.45 -1.45 -1 -2.20 -0.60 -0.80 -1.60 -2.75 -2.30 -4.35 -0.70 -1.60 -1.45 -3 -1.70 -3.15 -0.20 -0.15 -0.90 -1.45 -1.50 -2.85 -0.60 -1.45 -1.25 -2.65 -1.45 -2.65 -0.15 0 -0.60 -0.75 -1 -1.60 -0.40 -0.90 -1.45 -2.85 -2.40 -4.30 -0.95 -1.40 -2.20 -3.75 -2.75 -5.10 -0.55 -1.40 -1.20 -2.50 -1.35 -2.50 -0.20 0 -0.65 -0.80 -1.05 -1.75 -0.40 -0.95 -0.85 -1.75 -1.05 -1.75 -0.20 0 -0.75 -1 -1.30 -2.25 -0.50 -1.25 -1.05 -2.25 -1.20 -2.25 -0.15 0 -0.95 -1.40 -1.75 -3.10 -0.80 -1.75 -1.60 -3.25 -1.75 -3.40 -0.15 -0.15 -1.45 -2.40 -2.85 -5 -7 -12.95 -8.95 -16.45 -9.65 -17.30 -0.65 -0.80 -4.45 -0.80 -4.15 0 0.40 1.05 -2.85 2.20 -4.65 1.70 -1.85 -0.50 -2.30 -2.20 -0.75 -2.75 0.45 -0.20 2 -1 3.35 -1.80 1.40 -0.85 3.65 -2.10 5 -2.85 1.40 -0.75 4.25 -2.30 6.35 -3.45 3.10 -1.70 4.05 -2 4.85 -1.60 0.95 0.50 2.30 2.75 6.45 10.55 1.10 2.10 2.70 4.90 3.55 6.25 0.85 1.35 1.55 2.90 1.55 3.40 0 0.55 -1 2.30 -2.25 3.95 -1.25 1.65 -2.25 3.30 -2.25 3.65 0 0.80 10.05 19.60 14.30 26.75 0.40 0.70 1.45 2.60 2.30 4.25 0.85 1.65 2.80 5.25 4.40 8 1.55 2.75 4.05 7.25 5.50 10 2.60 4.90 3.30 6.20 7 12.75 1.95 3.50 6.95 12.50 8.75 15.75 0.60 1.10 1.20 2.50 1.35 3.10 0.35 1.35 -0.35 1.95 -6.25 5.15 -2.20 1.20 -4.30 2.55 -4.75 3 -0.50 0.50 -1.15 0.75 -1.50 0.65z"/>
  <path d="M73 111 c0 -0.25 0.45 -0.50 1 -0.50 0.55 0 1 0.25 1 0.50 0 0.30 -0.45 0.50 -1 0.50 -0.55 0 -1 -0.20 -1 -0.50z"/>
  <path d="M261 111 c1 -0.65 2 -0.65 2 0 0 0.30 -0.60 0.50 -1.35 0.50 -1.10 0 -1.25 -0.10 -0.65 -0.50z"/>
  <path d="M84 110 c0 -0.25 0.35 -0.50 0.75 -0.50 0.40 0 0.75 0.25 0.75 0.50 0 0.30 -0.35 0.50 -0.75 0.50 -0.40 0 -0.75 -0.20 -0.75 -0.50z"/>
  <path d="M87.50 109.50 c0 -0.25 0.35 -0.50 0.75 -0.50 0.40 0 0.75 0.25 0.75 0.50 0 0.30 -0.35 0.50 -0.75 0.50 -0.40 0 -0.75 -0.20 -0.75 -0.50z"/>
  <path d="M245.50 109.80 c0 -0.10 0.55 -0.30 1.25 -0.40 0.70 -0.15 1.25 -0.05 1.25 0.15 0 0.25 -0.55 0.45 -1.25 0.45 -0.70 0 -1.25 -0.10 -1.25 -0.20z"/>
  <path d="M96.50 109 c0 -0.25 0.35 -0.50 0.75 -0.50 0.40 0 0.75 0.25 0.75 0.50 0 0.30 -0.35 0.50 -0.75 0.50 -0.40 0 -0.75 -0.20 -0.75 -0.50z"/>
  <path d="M112.75 109 c-1.15 -0.30 -1.25 -0.40 -0.40 -0.45 0.60 0 1.15 -0.35 1.25 -0.65 0.15 -0.35 0.35 -0.10 0.50 0.50 0.20 0.60 0.25 1.05 0.25 1.05 -0.05 -0.05 -0.75 -0.25 -1.60 -0.45z"/>
  <path d="M237.50 109 c1.80 -0.55 2.50 -0.55 2.50 0 0 0.30 -0.85 0.50 -1.85 0.45 -1.70 -0.05 -1.75 -0.10 -0.65 -0.45z"/>
  <path d="M105.50 108.50 c0 -0.25 0.35 -0.50 0.75 -0.50 0.40 0 0.75 0.25 0.75 0.50 0 0.30 -0.35 0.50 -0.75 0.50 -0.40 0 -0.75 -0.20 -0.75 -0.50z"/>
  <path d="M228.05 108.80 c0.60 -0.50 2.95 -0.75 2.95 -0.30 0 0.25 -0.70 0.50 -1.60 0.50 -0.85 0 -1.45 -0.10 -1.35 -0.20z"/>
  <path d="M188.50 107.50 c0 -0.25 0.35 -0.50 0.75 -0.50 0.40 0 0.75 0.25 0.75 0.50 0 0.30 -0.35 0.50 -0.75 0.50 -0.40 0 -0.75 -0.20 -0.75 -0.50z"/>
  <path d="M262.75 101 c-1.35 -1.10 -2.55 -2.20 -2.55 -2.50 -0.05 -0.25 -0.10 -0.70 -0.15 -0.95 0 -0.25 -1.35 -0.70 -2.90 -0.95 -2.15 -0.40 -2.35 -0.50 -0.75 -0.35 1.15 0.05 2.10 -0.05 2.10 -0.30 0 -0.25 0.35 -0.45 0.75 -0.45 0.40 0 0.75 -0.35 0.75 -0.75 0 -0.95 2 -1 4.20 -0.05 1.85 0.75 3.30 2.50 3.30 3.95 0 1.10 -1.45 4.35 -1.95 4.30 -0.15 0 -1.40 -0.90 -2.80 -1.95z"/>
  <path d="M72.80 101.20 c-1.15 -2.95 0.20 -5.40 3.80 -6.85 1.80 -0.75 1.80 -0.75 2 0.70 0.20 1.20 -0.25 1.95 -2.25 4.20 -2.60 2.95 -3.05 3.20 -3.55 1.95z"/>
  <path d="M88.15 95.15 c0.45 -0.10 1.25 -0.10 1.75 0 0.45 0.15 0.05 0.25 -0.90 0.25 -0.95 0 -1.35 -0.10 -0.85 -0.25z"/>
  <path d="M248.15 95.15 c0.45 -0.10 1.25 -0.10 1.75 0 0.45 0.15 0.05 0.25 -0.90 0.25 -0.95 0 -1.35 -0.10 -0.85 -0.25z"/>
  <path d="M233.40 93.65 c0.60 -0.10 1.50 -0.10 2 0 0.45 0.15 -0.05 0.25 -1.15 0.20 -1.10 0 -1.50 -0.10 -0.85 -0.20z"/>
  <path d="M109.15 93.15 c0.45 -0.10 1.25 -0.10 1.75 0 0.45 0.15 0.05 0.25 -0.90 0.25 -0.95 0 -1.35 -0.10 -0.85 -0.25z"/>
  <path d="M124.90 92.15 c0.60 -0.10 1.60 -0.10 2.25 0 0.60 0.10 0.10 0.20 -1.15 0.20 -1.25 0 -1.75 -0.10 -1.10 -0.20z"/>
  <path d="M136.65 91.65 c0.45 -0.10 1.25 -0.10 1.75 0 0.45 0.15 0.05 0.25 -0.90 0.25 -0.95 0 -1.35 -0.10 -0.85 -0.25z"/>
  <path d="M202.40 91.65 c0.60 -0.10 1.60 -0.10 2.25 0 0.60 0.10 0.10 0.20 -1.15 0.20 -1.25 0 -1.75 -0.10 -1.10 -0.20z"/>
  <path d="M148.90 91.15 c0.90 -0.10 2.25 -0.10 3 0 0.75 0.10 0 0.20 -1.65 0.20 -1.65 0 -2.25 -0.10 -1.35 -0.20z"/>
  <path d="M188.65 91.15 c1 -0.10 2.70 -0.10 3.75 0 1 0.10 0.15 0.20 -1.90 0.20 -2.05 0 -2.90 -0.10 -1.85 -0.20z"/>
  <path d="M217.40 68.15 c1.15 -0.10 2.95 -0.10 4 0 1 0.10 0.05 0.20 -2.15 0.20 -2.20 0 -3.05 -0.10 -1.85 -0.20z"/>
  <path d="M204.25 66 c-0.65 -0.25 -0.70 -0.45 -0.25 -0.45 0.40 0 1.20 0.20 1.75 0.45 0.65 0.25 0.70 0.45 0.25 0.45 -0.40 0 -1.20 -0.20 -1.75 -0.45z"/>
  <path d="M200.10 64.65 c-1.20 -0.40 -2.05 -0.85 -1.95 -0.95 0.20 -0.25 4.85 1.30 4.85 1.60 0 0.30 -0.55 0.20 -2.90 -0.65z"/>
  <path d="M237.50 62.75 c0.95 -0.95 1.80 -1.75 1.95 -1.75 0.15 0 -0.50 0.80 -1.45 1.75 -0.95 0.95 -1.80 1.75 -1.95 1.75 -0.15 0 0.50 -0.80 1.45 -1.75z"/>
  <path d="M240.40 47.75 c-0.15 -0.55 -0.45 -1.45 -0.65 -2 -0.15 -0.55 0.05 -0.35 0.50 0.40 0.45 0.80 0.75 1.65 0.60 2 -0.10 0.30 -0.30 0.15 -0.45 -0.40z"/>
  <path d="M201.75 36 c0.20 -0.70 1 -3.25 1.75 -5.75 3.65 -11.70 3.70 -12.45 1.40 -13.45 -1.65 -0.70 -1.65 -0.70 0.40 -0.65 1.60 0.05 2.35 -0.20 3 -1 0.55 -0.55 2 -1.65 3.35 -2.40 2.80 -1.60 2.90 -1.20 0.90 2.70 -1.35 2.60 -1.35 2.75 -0.50 3.60 0.50 0.50 1.80 1.35 2.95 1.95 1.10 0.55 2 1.15 2 1.25 0 0.15 -1.10 -0.30 -2.50 -1 -1.35 -0.70 -2.80 -1.25 -3.25 -1.25 -0.45 0 -2.20 2.95 -4.75 8.10 -3.95 7.90 -5.55 10.60 -4.75 7.90z"/>
  <path d="M230.25 32.40 c-2.50 -2.65 -2.50 -2.65 0.15 -0.15 1.40 1.35 2.60 2.55 2.60 2.60 0 0.40 -0.45 -0.05 -2.75 -2.45z"/>
  <path d="M220.25 24.70 c-1.10 -0.75 -2.20 -1.55 -2.50 -1.85 -0.45 -0.50 0.85 0.25 3.60 2.05 0.60 0.35 1.40 0.50 1.70 0.30 0.40 -0.20 0.45 -0.15 0.25 0.20 -0.50 0.85 -0.80 0.75 -3.05 -0.70z"/>
  <path d="M123.25 14.95 c-0.45 -0.85 -0.75 -1.65 -0.65 -1.75 0.15 -0.10 0.60 0.60 1.05 1.55 1.05 2.15 0.65 2.35 -0.40 0.20z"/>
  <path d="M224.85 15.55 c-0.15 -0.70 0 -0.85 0.70 -0.70 1.10 0.30 1.30 1.65 0.25 1.65 -0.35 0 -0.80 -0.40 -0.95 -0.95z"/>
  <path d="M177.60 11 c0 -0.95 0.10 -1.35 0.25 -0.85 0.10 0.45 0.10 1.25 0 1.75 -0.15 0.45 -0.25 0.05 -0.25 -0.90z"/>
 </g>
 <g fill="#b29482">
  <path d="M105.25 336.15 c-2.60 -0.60 -5.40 -1.90 -6.20 -3 -2.45 -3.05 3.05 -10.15 7.90 -10.15 2.95 0 15.55 7.30 15.55 9 0 1.20 -2.45 2.95 -5.35 3.80 -2.15 0.65 -9.65 0.85 -11.90 0.35z"/>
  <path d="M222.80 335 c-3.05 -0.95 -6.25 -3.85 -5.55 -5 0.30 -0.50 9.35 -5.85 11.90 -7 4 -1.85 6.90 -1.10 10.05 2.55 4.95 5.80 1.40 9.35 -9.70 9.75 -2.90 0.10 -5.90 -0.05 -6.70 -0.30z"/>
  <path d="M264.05 249.20 c-0.05 -0.75 -0.50 -1.15 -1.50 -1.35 -1.70 -0.35 -3.90 -2.35 -4.65 -4.30 -0.80 -1.95 -0.60 -8.30 0.40 -11.30 0.45 -1.45 1.45 -3.30 2.25 -4.05 4.30 -4.10 8.95 1.35 8.95 10.50 0 4.20 -1 6.55 -3.35 8.05 -0.90 0.55 -1.65 1.55 -1.80 2.25 -0.15 1.05 -0.20 1.10 -0.30 0.20z"/>
  <path d="M165.25 185.40 c-8.55 -0.60 -13.85 -2.50 -16.30 -5.95 -2.45 -3.45 -1.60 -9.10 1.75 -11.65 2.05 -1.55 6.55 -3.80 7.60 -3.80 0.45 0 1.60 -0.65 2.50 -1.50 4.35 -3.80 12.20 -3.90 17.25 -0.25 1.25 0.95 2.60 1.75 2.95 1.75 0.30 0 2.10 1 4 2.20 4.55 2.95 7 6.45 7 10.05 0 2.20 -0.20 2.75 -1.60 4.10 -4.10 3.95 -13.65 5.85 -25.15 5.05z"/>
 </g>
 <g fill="#be9176">
  <path d="M27.90 257 c-2.45 -1.35 -3.40 -2.80 -3.40 -5.40 0 -1.95 0.25 -2.45 2.20 -4.35 2.05 -1.95 2.40 -2.10 5.15 -2.20 5 -0.10 6.95 0.40 9.20 2.40 1.75 1.55 2.10 2.15 2.10 3.80 0.10 2.60 -1.50 4.90 -4.15 5.95 -2.90 1.15 -8.70 1.05 -11.10 -0.20z"/>
  <path d="M90.90 247.95 c-1.15 -1.15 -2.15 -1.70 -3.30 -1.70 -2.90 -0.15 -3 -0.85 -0.90 -4.95 1 -2.05 2.15 -3.95 2.50 -4.25 0.90 -0.75 6.45 2.45 6.80 4 0.50 1.95 -0.05 3.50 -1.30 3.95 -0.95 0.40 -1.15 0.70 -0.90 1.90 0.20 0.95 0.05 1.60 -0.50 2.05 -0.65 0.55 -1 0.40 -2.40 -1z"/>
 </g>
 <g fill="#d69853">
  <path d="M64.30 297.40 c-0.35 -0.65 -2.65 -4.75 -5.05 -9.15 -7.35 -13.45 -10.10 -18.45 -11.05 -20.05 -0.45 -0.85 -0.75 -1.85 -0.60 -2.30 0.40 -1 7.05 -4.45 7.75 -4 0.70 0.45 17.65 31.50 17.65 32.35 0 0.85 -1.10 1.70 -4.05 3.10 -3.15 1.45 -3.75 1.45 -4.65 0.05z"/>
  <path d="M39.25 256.55 c-0.15 -0.25 0.20 -0.65 0.80 -0.80 1.40 -0.45 1.80 0.05 0.50 0.70 -0.60 0.35 -1.10 0.35 -1.30 0.10z"/>
  <path d="M28.50 245.50 c0 -0.25 0.50 -0.50 1.15 -0.50 0.90 0 0.95 0.10 0.35 0.50 -0.95 0.65 -1.50 0.65 -1.50 0z"/>
 </g>
 <g fill="#daa339">
  <path d="M70.50 296.30 c0 -0.10 0.60 -0.60 1.40 -1.05 1.35 -0.90 1.35 -0.90 0.40 0.15 -0.85 1 -1.80 1.45 -1.80 0.90z"/>
  <path d="M70 289 c-0.55 -1.10 -0.90 -2 -0.75 -2 0.10 0 0.70 0.90 1.25 2 0.55 1.10 0.90 2 0.75 2 -0.10 0 -0.70 -0.90 -1.25 -2z"/>
  <path d="M58 286 c-0.55 -1.10 -0.90 -2 -0.75 -2 0.10 0 0.70 0.90 1.25 2 0.55 1.10 0.90 2 0.75 2 -0.10 0 -0.70 -0.90 -1.25 -2z"/>
  <path d="M66.75 283 c-0.45 -0.80 -0.65 -1.50 -0.55 -1.50 0.15 0 0.60 0.70 1.05 1.50 0.45 0.85 0.65 1.50 0.55 1.50 -0.15 0 -0.60 -0.65 -1.05 -1.50z"/>
  <path d="M55.25 281 c-0.45 -0.80 -0.65 -1.50 -0.55 -1.50 0.15 0 0.60 0.70 1.05 1.50 0.45 0.85 0.65 1.50 0.55 1.50 -0.15 0 -0.60 -0.65 -1.05 -1.50z"/>
  <path d="M64 278 c-0.55 -1.10 -0.90 -2 -0.75 -2 0.10 0 0.70 0.90 1.25 2 0.55 1.10 0.90 2 0.75 2 -0.10 0 -0.70 -0.90 -1.25 -2z"/>
  <path d="M52.75 276.50 c-0.70 -1.35 -1.15 -2.50 -1 -2.50 0.10 0 0.80 1.15 1.50 2.50 0.70 1.40 1.15 2.50 1 2.50 -0.10 0 -0.80 -1.10 -1.50 -2.50z"/>
  <path d="M60.50 271.50 c-0.55 -1.10 -0.90 -2 -0.75 -2 0.10 0 0.70 0.90 1.25 2 0.55 1.10 0.90 2 0.75 2 -0.10 0 -0.70 -0.90 -1.25 -2z"/>
  <path d="M49.75 271 c-0.45 -0.80 -0.65 -1.50 -0.55 -1.50 0.15 0 0.60 0.70 1.05 1.50 0.45 0.85 0.65 1.50 0.55 1.50 -0.15 0 -0.60 -0.65 -1.05 -1.50z"/>
  <path d="M48 268.05 c-0.60 -1.20 -0.65 -2.40 -0.05 -2.75 0.25 -0.20 0.35 0.15 0.20 0.65 -0.15 0.50 0 1.40 0.30 2 0.35 0.60 0.45 1.05 0.35 1.05 -0.15 0 -0.50 -0.45 -0.80 -0.95z"/>
  <path d="M58 267 c-0.55 -1.10 -0.90 -2 -0.75 -2 0.10 0 0.70 0.90 1.25 2 0.55 1.10 0.90 2 0.75 2 -0.10 0 -0.70 -0.90 -1.25 -2z"/>
  <path d="M153.85 42.65 c-0.15 -0.20 -0.40 -8.15 -0.60 -17.65 -0.35 -17.25 -0.35 -17.25 2.95 -20.45 1.80 -1.80 3.35 -3.15 3.45 -3 0.25 0.25 -0.25 4.40 -2.65 21.70 -0.55 4.15 -1.35 10.20 -1.80 13.50 -0.75 6 -0.90 6.65 -1.35 5.90z"/>
  <path d="M112.80 34.45 c-2.80 -7.55 -2.80 -7.55 -2.20 -12.50 0.30 -2.75 0.65 -4.90 0.75 -4.75 0.10 0.10 1.20 5.30 2.45 11.60 1.20 6.30 2.35 11.85 2.50 12.30 0.15 0.50 0.05 0.90 -0.20 0.90 -0.25 0 -1.75 -3.40 -3.30 -7.55z"/>
  <path d="M208.60 18 c-1.55 -1.45 -0.80 -2.95 2.35 -4.65 1.45 -0.80 2.75 -1.35 2.90 -1.20 0.35 0.35 -2.95 6.50 -3.60 6.70 -0.30 0.10 -1.05 -0.30 -1.65 -0.85z"/>
 </g>
 <g fill="#ce3e37">
  <path d="M90.90 247.95 c-1.15 -1.15 -2.15 -1.70 -3.30 -1.70 -2.90 -0.15 -3 -0.85 -0.90 -4.95 1 -2.05 2.15 -3.95 2.50 -4.25 0.90 -0.75 6.45 2.45 6.80 4 0.50 1.95 -0.05 3.50 -1.30 3.95 -0.95 0.40 -1.15 0.70 -0.90 1.90 0.20 0.95 0.05 1.60 -0.50 2.05 -0.65 0.55 -1 0.40 -2.40 -1z m1.60 -5.65 c0 -0.80 -0.90 -1.55 -1.35 -1.10 -0.40 0.40 0.25 1.80 0.85 1.80 0.25 0 0.50 -0.30 0.50 -0.70z"/>
  <path d="M79.90 242.60 c-1.30 -0.75 -2.40 -1.65 -2.40 -2 0 -0.95 4 -8.10 4.55 -8.10 1 0 5.95 3.15 5.95 3.80 0 0.40 -0.45 0.95 -1 1.30 -0.55 0.35 -1 1.15 -1 1.75 0 1.55 -0.75 1.85 -2.25 0.85 -0.70 -0.45 -1.25 -0.60 -1.25 -0.35 0 0.25 0.55 0.80 1.25 1.15 1.35 0.75 1.55 1.50 0.65 2.40 -0.90 0.90 -1.85 0.70 -4.50 -0.80z"/>
  <path d="M70.15 237.10 c-0.90 -0.45 -1.65 -0.95 -1.65 -1.20 0 -0.55 1.85 -4.15 3.35 -6.55 1.15 -1.85 1.15 -1.85 3.60 -0.60 2.70 1.35 4.55 3.35 4.55 4.85 0 0.55 -0.70 1.65 -1.50 2.50 -1.25 1.20 -1.80 1.45 -2.90 1.15 -0.75 -0.15 -1.85 -0.45 -2.45 -0.55 -0.70 -0.20 -1.10 -0.05 -1.25 0.45 -0.15 0.60 -0.35 0.60 -1.75 -0.05z m5.85 -3.85 c0 -0.40 -0.35 -0.75 -0.75 -0.75 -0.40 0 -0.75 0.35 -0.75 0.75 0 0.40 0.35 0.75 0.75 0.75 0.40 0 0.75 -0.35 0.75 -0.75z"/>
  <path d="M64.70 234.25 c-0.90 -0.65 -0.90 -0.75 -0.10 -2.25 0.80 -1.45 0.80 -1.50 -0.10 -1.50 -0.50 0 -1.10 -0.20 -1.25 -0.50 -0.50 -0.80 -0.95 -0.60 -1.50 0.65 -0.55 1.20 -2 1.25 -3.25 0.05 -0.65 -0.65 -0.50 -1.15 1.25 -4.50 1.10 -2.10 2.30 -3.90 2.65 -4.05 0.95 -0.40 3.10 0.85 3.10 1.80 0 0.45 0.25 1.15 0.50 1.55 0.40 0.60 0.65 0.65 1.50 0.10 0.85 -0.50 1.30 -0.50 2.50 0.15 0.85 0.45 1.50 1 1.50 1.30 0 0.25 -0.90 2.15 -2.05 4.20 -2.10 3.90 -2.90 4.40 -4.75 3z"/>
  <path d="M54.15 228.40 c-1.45 -0.75 -2.15 -1.45 -2.15 -2.10 0 -1 3.20 -7.05 3.95 -7.55 0.70 -0.40 3.05 0.65 3.05 1.35 0 0.35 -0.50 1.60 -1.10 2.80 -1.10 2.10 -1.10 2.20 -0.20 2.85 0.75 0.55 0.80 0.95 0.45 2.10 -0.60 1.75 -1.35 1.85 -4 0.55z"/>
  <path d="M46.90 224.45 c-1.60 -0.80 -2.90 -1.65 -2.90 -1.85 0 -0.45 2.60 -5.45 3.85 -7.50 0.70 -1.10 0.70 -1.10 3.65 0.50 2.95 1.60 3.60 2.60 2.45 3.75 -0.45 0.45 -0.95 0.40 -2 -0.15 -0.85 -0.40 -1.45 -0.50 -1.45 -0.20 0 0.25 0.55 0.60 1.25 0.80 1.35 0.35 1.50 0.75 0.75 2.25 -0.50 0.90 -0.65 0.90 -1.65 0.20 -1.40 -0.95 -2.15 -0.95 -1.35 0 0.35 0.40 0.95 0.75 1.30 0.75 0.75 0 0.90 0.90 0.40 2.20 -0.40 1.10 -1 1 -4.30 -0.75z"/>
  <path d="M41.10 221.35 c-1 -0.45 -1.15 -0.80 -0.95 -2.20 0.35 -2.05 -0.50 -2.65 -1.70 -1.20 -1 1.20 -2.35 1.10 -3.45 -0.20 -0.50 -0.60 -0.25 -1.40 1.25 -4.10 2.50 -4.60 2.75 -4.85 4.45 -4.10 1.20 0.55 1.35 0.85 1.05 2.25 -0.35 2 0.55 2.70 1.55 1.25 0.90 -1.25 1.35 -1.30 2.95 -0.25 1.20 0.80 1.20 0.80 -1 4.85 -1.20 2.25 -2.40 4.15 -2.60 4.20 -0.20 0.05 -0.95 -0.15 -1.55 -0.50z"/>
 </g>
 <g fill="#000000">
  <path d="M164 173.25 c-5 -1.40 -6.65 -4.55 -4.50 -8.80 3.55 -6.90 18.10 -6.25 21.15 0.95 1.20 2.85 1.25 3.25 0.60 4.60 -1.65 3.20 -11 4.95 -17.25 3.25z"/>
  <path d="M125.70 148.10 c-1.65 -0.45 -3.10 -1.45 -4.90 -3.25 -2.15 -2.20 -2.70 -3.10 -3.25 -5.50 -1 -4.55 0.15 -8.50 3.50 -11.80 2.25 -2.25 4.25 -3.15 7.70 -3.40 8.45 -0.65 15.10 7.75 12.65 15.95 -0.70 2.30 -3.85 6.10 -6.05 7.25 -2.40 1.20 -6.85 1.55 -9.65 0.75z m9.50 -14.15 c2.75 -2.15 1.15 -6.45 -2.45 -6.45 -2.30 0 -3.75 1.45 -3.75 3.70 0 1.95 1.85 3.80 3.75 3.80 0.60 0 1.70 -0.45 2.45 -1.05z"/>
  <path d="M206.40 148 c-8.80 -3.35 -11.25 -13.70 -4.75 -20.40 1.75 -1.80 6 -3.60 8.60 -3.60 4.90 0 10.60 4.15 11.75 8.60 0.30 1.15 0.65 2.45 0.75 2.80 0.35 0.90 -0.70 4.95 -1.80 7.10 -2.45 4.95 -9.30 7.50 -14.55 5.50z m3.05 -13.85 c2.70 -2.30 1.10 -6.85 -2.40 -6.75 -2.85 0.05 -4.45 2.35 -3.50 5 0.85 2.45 3.95 3.35 5.90 1.75z"/>
  <path d="M262.55 100.30 c-2.10 -2.25 -2.55 -3.05 -2.55 -4.50 0 -1.60 0.15 -1.80 1.25 -1.80 3 0 6.25 2.40 6.25 4.65 0 1.15 -1.45 4.35 -2 4.35 -0.20 0 -1.50 -1.20 -2.95 -2.70z"/>
  <path d="M72.80 101.20 c-0.80 -2 -0.30 -4.10 1.25 -5.40 0.85 -0.70 1.70 -1.30 1.95 -1.30 0.25 0 0.75 -0.15 1.20 -0.30 0.65 -0.25 0.80 0.05 0.80 1.50 0 1.45 -0.45 2.30 -2.05 4.05 -2.25 2.45 -2.70 2.65 -3.15 1.45z"/>
 </g>
</svg>