<?xml version="1.0" encoding="utf-8"?><!-- Uploaded to: SVG Repo, www.svgrepo.com, Generator: SVG Repo Mixer Tools -->
<svg width="800px" height="800px" viewBox="0 0 64 64" fill="none" xmlns="http://www.w3.org/2000/svg">
<path fill-rule="evenodd" clip-rule="evenodd" d="M30.5131 36.9038L19.3237 41.7807L23.8647 52.9099L35.1293 48.0581L30.4629 36.9038H30.5131Z" fill="#2A2941"/>
<path fill-rule="evenodd" clip-rule="evenodd" d="M35.0038 35.0033C34.5523 34.9033 34.1258 34.6782 33.7996 34.3281C33.4735 34.0029 33.2477 33.5778 33.1473 33.1276C33.047 32.6774 33.072 32.2023 33.2226 31.7771C33.3731 31.3519 33.6491 30.9518 34.0254 30.6767C34.3766 30.3766 34.8282 30.2015 35.2798 30.1515C35.7314 30.1015 36.2081 30.1765 36.6346 30.3766C37.0611 30.5766 37.4123 30.9018 37.6632 31.2769C37.9141 31.6771 38.0395 32.1272 38.0395 32.5774C38.0395 33.0026 37.9392 33.4277 37.7134 33.8029L41.8278 32.0022L46.4942 43.1564L35.2296 48.0583L33.4484 43.7316C33.3229 44.1818 33.072 44.582 32.7208 44.9071C32.3696 45.2322 31.9431 45.4323 31.4915 45.5073C31.0399 45.5823 30.5632 45.5323 30.1116 45.3823C29.6851 45.2072 29.2837 44.9321 29.0078 44.557C28.7318 44.1818 28.5562 43.7316 28.506 43.2815C28.4558 42.8063 28.5562 42.3561 28.7569 41.931C28.9576 41.5058 29.2837 41.1557 29.6851 40.9306C30.0866 40.6805 30.5381 40.5554 31.0148 40.5554C31.4162 40.5554 31.8176 40.6555 32.194 40.8555L30.5883 36.9541L35.0038 35.0033Z" fill="#2A2941"/>
<path fill-rule="evenodd" clip-rule="evenodd" d="M27.4272 28.3258C28.1046 28.4508 27.8788 29.3762 27.8788 29.3762L26.2982 32.3023L21.958 30.1014C22.234 30.6516 22.3092 31.2519 22.1587 31.8521C22.0082 32.4523 21.6318 32.9525 21.1301 33.3027C20.6283 33.6278 20.0011 33.7778 19.399 33.6778C18.7969 33.5778 18.2449 33.2776 17.8686 32.8025C17.4421 32.3023 17.2414 31.652 17.2916 31.0018C17.3418 30.3515 17.6428 29.7513 18.1446 29.3261C18.4707 29.051 18.8721 28.876 19.3237 28.826L15.3347 26.8002L21.0297 16.1711L31.9933 21.7483L30.5131 24.4993C30.5131 24.4993 29.8608 25.3246 29.3339 24.7494C29.0579 24.3493 28.7318 24.0241 28.3555 23.749C28.0795 23.574 27.7534 23.4489 27.4272 23.3739C27.1011 23.3239 26.7498 23.3239 26.4237 23.3989C26.0975 23.4739 25.7965 23.624 25.5205 23.8241C25.2445 24.0241 25.0187 24.2742 24.8431 24.5743C24.6675 24.8745 24.5672 25.1996 24.517 25.5247C24.4668 25.8498 24.517 26.2 24.5922 26.5251C24.6926 26.8502 24.8431 27.1503 25.0689 27.4004C25.2947 27.6505 25.5456 27.8756 25.8467 28.0257C26.3986 28.2007 26.9255 28.3258 27.4272 28.3258Z" fill="#2A2941"/>
<path fill-rule="evenodd" clip-rule="evenodd" d="M31.7926 33.7278L20.6032 38.6046L25.1442 49.7589L36.4088 44.907L31.7424 33.7528H31.7926V33.7278Z" fill="#32EDBB"/>
<path fill-rule="evenodd" clip-rule="evenodd" d="M38.1148 45.5571L32.495 32.002L18.9223 37.9042L24.4417 51.4594L38.1148 45.5571ZM31.7926 33.7276L20.6032 38.6045L25.1442 49.7587L36.4088 44.9069L31.7424 33.7526H31.7926V33.7276Z" fill="#2A2941"/>
<path fill-rule="evenodd" clip-rule="evenodd" d="M36.2834 31.8271C35.8318 31.727 35.4053 31.5019 35.0791 31.1518C34.753 30.8267 34.5272 30.4015 34.4268 29.9513C34.3265 29.5012 34.3516 29.026 34.5021 28.6008C34.6526 28.1757 34.9286 27.7755 35.3049 27.5004C35.6561 27.2003 36.1077 27.0252 36.5593 26.9752C37.0109 26.9252 37.4876 27.0002 37.9141 27.2003C38.3406 27.4004 38.6918 27.7255 38.9427 28.1006C39.1936 28.5008 39.319 28.951 39.319 29.4011C39.319 29.8013 39.1936 30.2014 38.9929 30.5766L43.0823 28.7759L47.7487 39.9301L36.4841 44.832L34.6526 40.5554C34.477 41.0556 34.1509 41.4807 33.7244 41.8058C33.2979 42.106 32.771 42.281 32.2442 42.281C31.5919 42.281 30.9647 42.0309 30.5131 41.5558C30.0615 41.1056 29.7855 40.4803 29.7855 39.8301C29.7855 39.1799 30.0364 38.5546 30.5131 38.1044C30.9897 37.6543 31.5919 37.3792 32.2442 37.3792C32.6456 37.3792 33.047 37.4792 33.4233 37.6793L31.8176 33.7778L36.2834 31.8271Z" fill="#FFB800"/>
<path fill-rule="evenodd" clip-rule="evenodd" d="M31.3911 36.1535C30.8643 36.2786 30.3625 36.5037 29.9109 36.8538C29.4844 37.1789 29.1332 37.6041 28.8823 38.1043C28.6314 38.6045 28.4809 39.1297 28.4558 39.6799C28.4307 40.2301 28.5311 40.7803 28.7318 41.2805C28.9325 41.7807 29.2587 42.2308 29.6601 42.606C30.0615 42.9811 30.5381 43.2562 31.065 43.4313C31.5919 43.6064 32.1438 43.6564 32.6957 43.5814C33.2477 43.5063 33.7745 43.3313 34.2261 43.0562L35.7063 46.6575L49.3794 40.7053L43.7596 27.1251L40.4982 28.5506C40.2724 27.6503 39.7204 26.875 38.9678 26.3248C38.1901 25.7996 37.2618 25.5745 36.3335 25.6745C35.4053 25.7746 34.5523 26.2248 33.9251 26.9C33.2979 27.6003 32.9466 28.4756 32.9215 29.401C32.9215 30.1763 33.1473 30.9265 33.5989 31.5518L30.0866 33.0774L31.3911 36.1535ZM36.2833 31.8269C35.8318 31.7268 35.4053 31.5018 35.0791 31.1516C34.753 30.8015 34.5272 30.4013 34.4268 29.9512C34.3265 29.501 34.3516 29.0258 34.5021 28.6007C34.6526 28.1755 34.9286 27.7753 35.3049 27.5002C35.6561 27.2001 36.1077 27.0251 36.5593 26.975C37.0109 26.925 37.4876 27 37.9141 27.2001C38.3406 27.4002 38.6918 27.7253 38.9427 28.1005C39.1936 28.5006 39.319 28.9508 39.319 29.401C39.2939 29.8011 39.1936 30.2013 38.9929 30.5764L43.0823 28.7757L47.7487 39.93L36.4841 44.8318L34.6526 40.5552C34.477 41.0554 34.1509 41.4806 33.7244 41.8057C33.2979 42.1058 32.771 42.2809 32.2441 42.2809C31.5919 42.2809 30.9646 42.0308 30.5131 41.5556C30.0615 41.1054 29.7855 40.4802 29.7855 39.8299C29.7855 39.1797 30.0364 38.5544 30.5131 38.1043C30.9646 37.6541 31.5919 37.379 32.2441 37.379C32.6456 37.379 33.047 37.479 33.4233 37.6791L31.8176 33.7776L36.2833 31.8269Z" fill="#2A2941"/>
<path fill-rule="evenodd" clip-rule="evenodd" d="M28.7067 25.1495C29.3841 25.2745 29.1583 26.1999 29.1583 26.1999L27.5777 29.126L23.2375 26.9252C23.4382 27.3503 23.5385 27.8005 23.4884 28.2757C23.4382 28.7259 23.2626 29.176 22.9866 29.5512C22.7106 29.9263 22.3092 30.2014 21.8827 30.3515C21.4562 30.5015 20.9795 30.5515 20.528 30.4515C20.0764 30.3515 19.6499 30.1264 19.3237 29.8013C18.9976 29.4761 18.7467 29.076 18.6463 28.6258C18.546 28.1756 18.546 27.7005 18.6965 27.2753C18.847 26.8251 19.123 26.45 19.4742 26.1499C19.8004 25.8748 20.2018 25.6997 20.6534 25.6497L16.6644 23.6239L22.3594 12.9949L33.2978 18.572L31.8176 21.323C31.8176 21.323 31.1653 22.1484 30.6385 21.5481C30.3625 21.173 30.0364 20.8228 29.6601 20.5477C29.3841 20.3727 29.0579 20.2476 28.7318 20.1726C28.4056 20.1226 28.0544 20.1226 27.7283 20.1976C27.4021 20.2726 27.1011 20.4227 26.8251 20.6228C26.5491 20.8229 26.3233 21.0729 26.1477 21.3731C25.9721 21.6732 25.8717 21.9983 25.8216 22.3234C25.7714 22.6485 25.8216 22.9987 25.8968 23.3238C25.9721 23.6489 26.1477 23.949 26.3735 24.1991C26.5993 24.4492 26.8502 24.6743 27.1512 24.8244C27.653 25.0244 28.1799 25.1495 28.7067 25.1495Z" fill="#4C5EFD"/>
<path fill-rule="evenodd" clip-rule="evenodd" d="M18.0944 25.7247C17.5425 26.45 17.2665 27.3753 17.3167 28.2756C17.3919 29.201 17.7933 30.0513 18.4456 30.7016C19.0979 31.3518 19.976 31.727 20.9043 31.777C21.8325 31.827 22.7357 31.5269 23.4633 30.9767C24.0403 30.4765 24.4668 29.8012 24.6424 29.0509L28.0795 30.7766L30.3124 26.625V26.45C30.3876 26.0498 30.3876 25.6246 30.3124 25.1995C30.2371 24.8744 30.0615 24.5742 29.8106 24.3241C29.5597 24.0991 29.2336 23.924 28.9074 23.874C28.6816 23.874 28.4057 23.7989 28.1799 23.7739C28.0293 23.7739 27.8788 23.7239 27.7283 23.6739C27.5777 23.5989 27.4523 23.4738 27.377 23.3488C27.2767 23.2237 27.2014 23.0737 27.1512 22.9236C27.1011 22.7736 27.1011 22.5985 27.1262 22.4484C27.1512 22.2984 27.2014 22.1233 27.2767 21.9983C27.3519 21.8482 27.4774 21.7232 27.6028 21.6481C27.7283 21.5481 27.8788 21.4731 28.0293 21.423C28.1799 21.373 28.3555 21.373 28.506 21.398C28.6565 21.423 28.8322 21.4731 28.9576 21.5481C29.2837 21.7232 29.4092 22.0483 29.635 22.3234C29.9109 22.6735 30.3124 22.8736 30.7389 22.9486C31.1654 22.9986 31.6169 22.8986 31.9682 22.6735C32.2441 22.4985 32.495 22.2734 32.7208 22.0233L32.7961 21.9232L34.9286 17.9467L21.7071 11.2942L14.8078 24.074L17.994 25.6747L18.0944 25.7247ZM28.7067 25.1495C29.3841 25.2745 29.1583 26.1999 29.1583 26.1999L27.5777 29.126L23.2375 26.9251C23.4382 27.3503 23.5385 27.8005 23.4884 28.2756C23.4382 28.7258 23.2626 29.176 22.9866 29.5511C22.7106 29.9263 22.3092 30.2014 21.8827 30.3514C21.4562 30.5015 20.9795 30.5515 20.528 30.4515C20.0764 30.3514 19.6499 30.1264 19.3237 29.8012C18.9976 29.4761 18.7467 29.076 18.6463 28.6258C18.546 28.1756 18.546 27.7004 18.6965 27.2753C18.847 26.8251 19.123 26.45 19.4743 26.1498C19.8004 25.8747 20.2018 25.6997 20.6534 25.6496L16.6644 23.6239L22.3594 12.9948L33.2978 18.572L31.8176 21.323C31.8176 21.323 31.1654 22.1483 30.6385 21.5731C30.3625 21.198 30.0364 20.8478 29.6601 20.5727C29.3841 20.3977 29.0579 20.2726 28.7318 20.1976C28.4057 20.1476 28.0544 20.1476 27.7283 20.2226C27.4021 20.2976 27.1011 20.4477 26.8251 20.6477C26.5491 20.8478 26.3233 21.0979 26.1477 21.398C25.9721 21.6981 25.8717 22.0233 25.8216 22.3484C25.7714 22.6735 25.8216 23.0236 25.8968 23.3488C25.9972 23.6739 26.1477 23.974 26.3735 24.2241C26.5993 24.4742 26.8502 24.6993 27.1512 24.8493C27.653 25.0244 28.1799 25.1244 28.7067 25.1495Z" fill="#2A2941"/>
</svg>