<svg xmlns="http://www.w3.org/2000/svg" xmlns:xlink="http://www.w3.org/1999/xlink" width="500" zoomAndPan="magnify" viewBox="0 0 375 374.999991" height="500" preserveAspectRatio="xMidYMid meet" version="1.0"><defs><clipPath id="f3460d4db7"><path d="M 112.773438 112.5 L 262.023438 112.5 L 262.023438 262.5 L 112.773438 262.5 Z M 112.773438 112.5 " clip-rule="nonzero"/></clipPath><clipPath id="377c84633b"><path d="M 112.773438 134 L 228 134 L 228 262.5 L 112.773438 262.5 Z M 112.773438 134 " clip-rule="nonzero"/></clipPath><clipPath id="ca0fb9231b"><path d="M 186 112.5 L 262.023438 112.5 L 262.023438 191 L 186 191 Z M 186 112.5 " clip-rule="nonzero"/></clipPath><clipPath id="156b651e3a"><path d="M 116 194 L 173 194 L 173 262.5 L 116 262.5 Z M 116 194 " clip-rule="nonzero"/></clipPath></defs><g clip-path="url(#f3460d4db7)"><path fill="#ffbc77" d="M 168.925781 149.609375 C 168.851562 152.179688 169.105469 154.734375 169.351562 157.285156 C 169.433594 158.109375 169.5 158.9375 169.527344 159.765625 C 169.582031 161.289062 169.859375 162.792969 169.882812 164.316406 C 169.890625 164.726562 170.109375 164.789062 170.453125 164.785156 C 171.84375 164.769531 173.238281 164.707031 174.628906 164.78125 C 176.90625 164.90625 179.058594 165.507812 180.925781 166.886719 C 182.777344 168.253906 183.847656 170.136719 184.320312 172.351562 C 184.871094 174.941406 183.964844 177.148438 182.308594 179.085938 C 180.410156 181.300781 177.894531 182.277344 175.0625 182.617188 C 173.8125 182.765625 172.558594 182.785156 171.308594 182.886719 C 170.976562 182.914062 170.824219 183.019531 170.835938 183.367188 C 170.917969 185.667969 170.78125 187.96875 170.949219 190.269531 C 171.007812 191.0625 171.007812 191.867188 170.90625 192.671875 C 170.835938 193.195312 170.84375 193.742188 170.890625 194.273438 C 171.039062 195.871094 170.980469 197.476562 171.183594 199.070312 C 171.203125 199.226562 171.183594 199.390625 171.183594 199.550781 C 171.183594 199.8125 171.058594 199.933594 170.796875 199.949219 C 170.15625 199.988281 169.519531 200.066406 168.878906 200.089844 C 166.847656 200.164062 164.835938 200.425781 162.824219 200.703125 C 162.164062 200.792969 161.496094 200.84375 160.832031 200.898438 C 158.945312 201.054688 157.054688 201.21875 155.164062 201.351562 C 154.496094 201.398438 153.824219 201.367188 153.15625 201.386719 C 152.867188 201.398438 152.722656 201.277344 152.632812 201.007812 C 152.40625 200.324219 152.148438 199.648438 151.917969 198.964844 C 151.132812 196.640625 149.90625 194.597656 148.050781 192.96875 C 146.445312 191.558594 144.550781 190.828125 142.445312 190.632812 C 141.277344 190.523438 140.109375 190.523438 138.945312 190.765625 C 136.921875 191.183594 135.285156 192.195312 133.988281 193.792969 C 132.707031 195.375 131.734375 197.113281 131.257812 199.097656 C 130.984375 200.242188 130.890625 201.417969 130.855469 202.59375 C 130.832031 203.289062 130.835938 203.292969 130.125 203.300781 C 129.164062 203.308594 128.199219 203.300781 127.234375 203.316406 C 125.308594 203.34375 123.402344 203.578125 121.488281 203.753906 C 119.996094 203.886719 118.515625 204.070312 117.03125 204.265625 C 116.703125 204.308594 116.578125 204.1875 116.519531 203.839844 C 116.335938 202.78125 116.335938 201.707031 116.265625 200.648438 C 116.148438 198.859375 115.996094 197.078125 115.878906 195.292969 C 115.726562 193 115.53125 190.710938 115.378906 188.421875 C 115.210938 185.890625 114.910156 183.371094 114.734375 180.839844 C 114.605469 178.921875 114.441406 177.003906 114.265625 175.089844 C 114.023438 172.484375 113.914062 169.871094 113.683594 167.261719 C 113.519531 165.375 113.441406 163.476562 113.304688 161.585938 C 113.179688 159.882812 112.972656 158.183594 112.898438 156.476562 C 112.824219 154.796875 112.773438 153.105469 112.859375 151.421875 C 112.886719 150.878906 112.949219 150.847656 113.480469 150.804688 C 115.664062 150.632812 117.847656 150.496094 120.027344 150.277344 C 121.992188 150.078125 123.945312 149.78125 125.902344 149.542969 C 126.671875 149.449219 127.445312 149.40625 128.21875 149.335938 C 129.359375 149.230469 130.503906 149.136719 131.644531 149.007812 C 132.246094 148.941406 132.324219 148.808594 132.246094 148.21875 C 132.039062 146.671875 132.078125 145.125 132.328125 143.585938 C 132.554688 142.1875 132.851562 140.808594 133.394531 139.484375 C 134.539062 136.683594 136.636719 135.019531 139.558594 134.410156 C 142.230469 133.855469 144.496094 134.808594 146.519531 136.5 C 148.828125 138.429688 149.84375 140.957031 149.953125 143.902344 C 149.984375 144.757812 149.96875 145.613281 149.984375 146.472656 C 149.996094 147.089844 150.050781 147.140625 150.625 147.046875 C 152.367188 146.769531 154.128906 146.664062 155.875 146.433594 C 157.992188 146.152344 160.125 146.039062 162.253906 145.851562 C 163.34375 145.757812 164.441406 145.757812 165.535156 145.675781 C 166.28125 145.621094 167.019531 145.488281 167.769531 145.496094 C 168.660156 145.503906 168.910156 145.738281 168.921875 146.636719 C 168.933594 147.628906 168.925781 148.621094 168.925781 149.609375 Z M 193.324219 262.152344 C 195.484375 262.003906 197.65625 262.152344 199.820312 261.984375 C 201.070312 261.882812 202.332031 261.878906 203.585938 261.84375 C 206.125 261.773438 208.648438 261.476562 211.191406 261.433594 C 212.121094 261.414062 213.0625 261.367188 213.992188 261.273438 C 215.375 261.132812 216.753906 260.984375 218.144531 260.984375 C 218.761719 260.988281 219.390625 261.050781 219.992188 260.949219 C 222.109375 260.59375 224.257812 260.746094 226.386719 260.53125 C 227.191406 260.445312 227.367188 260.335938 227.378906 259.511719 C 227.421875 256.996094 227.476562 254.480469 227.496094 251.964844 C 227.546875 246.027344 227.667969 240.082031 227.414062 234.140625 C 227.328125 232.113281 227.171875 230.082031 227.203125 228.046875 C 227.207031 227.996094 227.199219 227.941406 227.199219 227.886719 C 227.050781 225.515625 226.902344 223.140625 226.757812 220.769531 C 226.6875 219.621094 226.679688 218.46875 226.550781 217.328125 C 226.28125 214.988281 226.28125 212.632812 226.144531 210.289062 C 226.035156 208.394531 226.101562 206.488281 226.089844 204.585938 C 226.089844 204.398438 226.089844 204.210938 226.09375 204.023438 C 226.097656 203.757812 225.976562 203.628906 225.707031 203.636719 C 225.332031 203.652344 224.949219 203.621094 224.585938 203.683594 C 223.445312 203.886719 222.292969 203.828125 221.148438 203.921875 C 219.3125 204.078125 217.460938 204.078125 215.617188 204.144531 C 215.539062 204.148438 215.457031 204.148438 215.378906 204.15625 C 213.191406 204.339844 211.007812 204.488281 208.8125 204.453125 C 208.652344 204.449219 208.488281 204.464844 208.332031 204.449219 C 207.957031 204.417969 207.820312 204.582031 207.789062 204.953125 C 207.695312 206.074219 207.429688 207.167969 207.128906 208.25 C 206.292969 211.289062 204.320312 213.222656 201.320312 214.125 C 200.367188 214.414062 199.394531 214.523438 198.394531 214.308594 C 196.179688 213.828125 194.644531 212.433594 193.457031 210.609375 C 192.410156 208.996094 191.8125 207.199219 191.460938 205.3125 C 191.292969 204.417969 191.285156 204.394531 190.375 204.433594 C 187.757812 204.542969 185.140625 204.667969 182.523438 204.792969 C 182.363281 204.800781 182.207031 204.855469 182.046875 204.859375 C 180.742188 204.914062 179.433594 205.144531 178.128906 205.042969 C 177.300781 204.976562 176.472656 204.945312 175.644531 204.917969 C 174.820312 204.894531 174.796875 204.90625 174.847656 205.761719 C 174.949219 207.386719 175.046875 209.015625 175.136719 210.640625 C 175.25 212.695312 175.441406 214.746094 175.546875 216.800781 C 175.601562 217.832031 175.632812 218.878906 175.765625 219.914062 C 175.917969 221.105469 175.761719 222.320312 175.949219 223.515625 C 175.992188 223.789062 175.84375 223.90625 175.558594 223.828125 C 175.144531 223.714844 174.734375 223.597656 174.304688 223.574219 C 171.976562 223.449219 169.78125 223.886719 167.769531 225.105469 C 166 226.175781 164.457031 227.453125 163.640625 229.441406 C 163.140625 230.664062 162.949219 231.902344 163.261719 233.203125 C 163.929688 235.976562 165.679688 237.804688 168.273438 238.835938 C 170.023438 239.53125 171.847656 239.878906 173.761719 239.664062 C 174.507812 239.582031 175.25 239.53125 175.972656 239.328125 C 176.292969 239.242188 176.484375 239.328125 176.5 239.703125 C 176.515625 240.132812 176.601562 240.554688 176.597656 240.980469 C 176.578125 242.480469 176.75 243.972656 176.828125 245.46875 C 176.925781 247.226562 177.113281 248.980469 177.28125 250.734375 C 177.40625 252.0625 177.578125 253.386719 177.707031 254.714844 C 177.875 256.441406 178.144531 258.15625 178.253906 259.890625 C 178.296875 260.582031 178.363281 261.273438 178.523438 261.953125 C 178.617188 262.332031 178.8125 262.453125 179.210938 262.445312 C 180.867188 262.421875 182.527344 262.4375 183.792969 262.4375 C 187.238281 262.488281 190.28125 262.355469 193.324219 262.152344 Z M 198.601562 163.667969 C 197.832031 162.964844 197.273438 162.175781 196.699219 161.414062 C 194.859375 158.980469 192.890625 156.648438 191.160156 154.136719 C 189.65625 151.957031 188.164062 149.769531 186.792969 147.503906 C 186.628906 147.230469 186.472656 146.945312 186.359375 146.648438 C 186.265625 146.398438 185.96875 146.222656 186.015625 145.945312 C 186.066406 145.644531 186.367188 145.488281 186.566406 145.277344 C 188.425781 143.269531 190.5625 141.566406 192.632812 139.789062 C 193.628906 138.9375 194.605469 138.0625 195.585938 137.195312 C 197.027344 135.917969 198.464844 134.640625 199.910156 133.367188 C 200.347656 132.984375 200.417969 132.996094 200.796875 133.472656 C 201.773438 134.691406 202.863281 135.808594 204.179688 136.644531 C 206.964844 138.414062 209.972656 138.761719 213.085938 137.675781 C 215.3125 136.902344 216.484375 135.191406 216.957031 132.941406 C 217.164062 131.949219 217.101562 130.984375 216.859375 130.007812 C 216.179688 127.238281 214.792969 124.925781 212.511719 123.175781 C 212.050781 122.820312 212.054688 122.789062 212.5 122.425781 C 215.277344 120.160156 218.054688 117.898438 220.828125 115.628906 C 221.574219 115.019531 222.324219 114.414062 223.03125 113.761719 C 223.570312 113.257812 224.246094 113 224.859375 112.632812 C 225.09375 112.488281 225.265625 112.605469 225.433594 112.753906 C 226.273438 113.5 227.191406 114.152344 227.980469 114.957031 C 230.027344 117.039062 232.125 119.066406 234.136719 121.179688 C 235.9375 123.082031 237.648438 125.070312 239.402344 127.015625 C 240.496094 128.226562 241.574219 129.453125 242.691406 130.640625 C 245.855469 133.988281 248.800781 137.519531 251.648438 141.132812 C 254.179688 144.347656 256.644531 147.609375 259.242188 150.773438 C 260.210938 151.949219 261.058594 153.21875 261.953125 154.453125 C 262.214844 154.820312 262.171875 155.097656 261.839844 155.441406 C 259.542969 157.796875 257.191406 160.097656 254.652344 162.203125 C 252.882812 163.671875 251.140625 165.167969 249.390625 166.664062 C 248.917969 167.066406 248.816406 167.085938 249.300781 167.660156 C 250.984375 169.660156 251.832031 172.039062 252.296875 174.570312 C 252.484375 175.574219 252.488281 176.578125 252.339844 177.597656 C 252.023438 179.808594 249.796875 182.230469 247.121094 182.765625 C 244.734375 183.242188 242.609375 182.699219 240.621094 181.429688 C 239.21875 180.53125 237.960938 179.453125 236.945312 178.117188 C 236.617188 177.6875 236.535156 177.675781 236.105469 178.015625 C 235.203125 178.730469 234.320312 179.46875 233.425781 180.1875 C 231.691406 181.574219 229.929688 182.921875 228.230469 184.351562 C 226.328125 185.953125 224.402344 187.527344 222.59375 189.234375 C 222.273438 189.535156 221.933594 189.78125 221.53125 189.9375 C 221.234375 190.050781 220.941406 190.03125 220.722656 189.769531 C 219.914062 188.804688 218.941406 188.007812 218.105469 187.066406 C 215.53125 184.167969 212.863281 181.351562 210.382812 178.367188 C 209.988281 177.894531 209.988281 177.890625 210.488281 177.539062 C 212.195312 176.34375 213.640625 174.914062 214.730469 173.113281 C 216.855469 169.59375 216.429688 166.03125 214.132812 162.832031 C 212.191406 160.125 209.472656 159.078125 206.238281 159.335938 C 204.160156 159.503906 202.324219 160.363281 200.691406 161.65625 C 199.957031 162.238281 199.277344 162.878906 198.601562 163.667969 Z M 118.300781 255 C 118.300781 253.632812 118.382812 252.261719 118.277344 250.902344 C 118.152344 249.273438 118.253906 247.640625 118.105469 246.023438 C 117.980469 244.660156 118.09375 243.296875 117.964844 241.941406 C 117.707031 239.191406 117.96875 236.429688 117.789062 233.6875 C 117.640625 231.46875 117.808594 229.246094 117.628906 227.039062 C 117.476562 225.167969 117.628906 223.292969 117.472656 221.433594 C 117.351562 220.042969 117.449219 218.652344 117.308594 217.273438 C 117.203125 216.230469 117.296875 215.183594 117.148438 214.160156 C 116.992188 213.066406 117.085938 211.972656 116.960938 210.886719 C 116.914062 210.5 116.972656 210.089844 117.035156 209.703125 C 117.09375 209.34375 117.417969 209.273438 117.71875 209.273438 C 118.546875 209.277344 119.367188 209.234375 120.191406 209.117188 C 121.347656 208.945312 122.511719 208.820312 123.671875 208.683594 C 124.835938 208.546875 126 208.421875 127.164062 208.28125 C 128.300781 208.140625 129.449219 208.117188 130.585938 208.035156 C 132.097656 207.929688 133.632812 207.855469 135.148438 208.101562 C 135.226562 208.113281 135.304688 208.125 135.386719 208.128906 C 135.914062 208.160156 136.007812 208.054688 135.917969 207.546875 C 135.652344 206.101562 135.453125 204.644531 135.515625 203.179688 C 135.570312 201.796875 135.699219 200.410156 136.042969 199.066406 C 136.457031 197.441406 137.492188 196.285156 138.992188 195.566406 C 140.058594 195.054688 141.175781 194.734375 142.390625 194.792969 C 143.878906 194.863281 145.082031 195.480469 146.003906 196.597656 C 147.449219 198.351562 148.25 200.386719 148.523438 202.644531 C 148.648438 203.648438 148.816406 204.640625 148.851562 205.660156 C 148.875 206.503906 149.089844 206.613281 149.902344 206.480469 C 151.136719 206.277344 152.382812 206.175781 153.625 206.042969 C 154.605469 205.9375 155.59375 205.957031 156.566406 205.765625 C 156.796875 205.722656 157.046875 205.730469 157.285156 205.738281 C 159.71875 205.816406 162.148438 205.613281 164.574219 205.515625 C 166.035156 205.457031 167.511719 205.570312 168.96875 205.316406 C 169.199219 205.277344 169.328125 205.410156 169.363281 205.613281 C 169.394531 205.796875 169.386719 205.988281 169.386719 206.175781 C 169.390625 207.511719 169.351562 208.851562 169.414062 210.1875 C 169.460938 211.222656 169.578125 212.257812 169.667969 213.289062 C 169.777344 214.617188 169.953125 215.945312 169.890625 217.285156 C 169.875 217.613281 169.730469 217.742188 169.449219 217.847656 C 168.175781 218.339844 166.914062 218.863281 165.730469 219.539062 C 164.167969 220.4375 162.808594 221.585938 161.648438 222.976562 C 160.804688 223.988281 160.085938 225.070312 159.53125 226.265625 C 158.480469 228.523438 158.054688 230.910156 158.335938 233.371094 C 158.699219 236.539062 160.246094 239.066406 162.691406 241.125 C 164.832031 242.929688 167.359375 243.757812 169.980469 244.441406 C 170.082031 244.46875 170.191406 244.480469 170.292969 244.503906 C 171.453125 244.785156 171.457031 244.785156 171.617188 245.960938 C 171.648438 246.199219 171.644531 246.441406 171.636719 246.683594 C 171.546875 248.742188 171.726562 250.796875 171.832031 252.847656 C 171.929688 254.683594 172.0625 256.519531 172.160156 258.355469 C 172.203125 259.171875 172.203125 260.007812 172.40625 260.816406 C 172.457031 261.019531 172.433594 261.242188 172.449219 261.453125 C 172.46875 261.777344 172.351562 261.96875 171.996094 261.953125 C 171.917969 261.949219 171.835938 261.953125 171.757812 261.957031 C 168.070312 262.152344 164.378906 262.132812 160.691406 262.113281 C 159.191406 262.109375 157.707031 262.398438 156.210938 262.269531 C 154.074219 262.089844 151.929688 262.234375 149.804688 262.082031 C 148.117188 261.960938 146.4375 261.972656 144.757812 261.972656 C 142.59375 261.976562 140.433594 261.796875 138.269531 261.753906 C 137.074219 261.730469 135.859375 261.757812 134.675781 261.609375 C 132.992188 261.402344 131.308594 261.472656 129.628906 261.488281 C 127.464844 261.511719 125.304688 261.320312 123.144531 261.273438 C 122.027344 261.25 120.90625 261.195312 119.785156 261.152344 C 118.835938 261.113281 118.554688 260.882812 118.371094 259.972656 C 118.320312 259.710938 118.316406 259.441406 118.316406 259.175781 C 118.308594 257.78125 118.3125 256.390625 118.3125 255 C 118.308594 255 118.304688 255 118.300781 255 Z M 118.300781 255 " fill-opacity="1" fill-rule="nonzero"/></g><g clip-path="url(#377c84633b)"><path fill="#10584f" d="M 168.925781 149.609375 C 168.851562 152.179688 169.105469 154.734375 169.351562 157.285156 C 169.433594 158.109375 169.5 158.9375 169.527344 159.765625 C 169.582031 161.289062 169.859375 162.792969 169.882812 164.316406 C 169.890625 164.726562 170.109375 164.789062 170.453125 164.785156 C 171.84375 164.769531 173.238281 164.707031 174.628906 164.78125 C 176.90625 164.90625 179.058594 165.507812 180.925781 166.886719 C 182.777344 168.253906 183.847656 170.136719 184.320312 172.351562 C 184.871094 174.941406 183.964844 177.148438 182.308594 179.085938 C 180.410156 181.300781 177.894531 182.277344 175.0625 182.617188 C 173.8125 182.765625 172.558594 182.785156 171.308594 182.886719 C 170.976562 182.914062 170.824219 183.019531 170.835938 183.367188 C 170.917969 185.667969 170.78125 187.96875 170.949219 190.269531 C 171.007812 191.0625 171.007812 191.867188 170.90625 192.671875 C 170.835938 193.195312 170.84375 193.742188 170.890625 194.273438 C 171.039062 195.871094 170.980469 197.476562 171.183594 199.070312 C 171.203125 199.226562 171.183594 199.390625 171.183594 199.550781 C 171.183594 199.8125 171.058594 199.933594 170.796875 199.949219 C 170.15625 199.988281 169.519531 200.066406 168.878906 200.089844 C 166.847656 200.164062 164.835938 200.425781 162.824219 200.703125 C 162.164062 200.792969 161.496094 200.84375 160.832031 200.898438 C 158.945312 201.054688 157.054688 201.21875 155.164062 201.351562 C 154.496094 201.398438 153.824219 201.367188 153.15625 201.386719 C 152.867188 201.398438 152.722656 201.277344 152.632812 201.007812 C 152.40625 200.324219 152.148438 199.648438 151.917969 198.964844 C 151.132812 196.640625 149.90625 194.597656 148.050781 192.96875 C 146.445312 191.558594 144.550781 190.828125 142.445312 190.632812 C 141.277344 190.523438 140.109375 190.523438 138.945312 190.765625 C 136.921875 191.183594 135.285156 192.195312 133.988281 193.792969 C 132.707031 195.375 131.734375 197.113281 131.257812 199.097656 C 130.984375 200.242188 130.890625 201.417969 130.855469 202.59375 C 130.832031 203.289062 130.835938 203.292969 130.125 203.300781 C 129.164062 203.308594 128.199219 203.300781 127.234375 203.316406 C 125.308594 203.34375 123.402344 203.578125 121.488281 203.753906 C 119.996094 203.886719 118.515625 204.070312 117.03125 204.265625 C 116.703125 204.308594 116.578125 204.1875 116.519531 203.839844 C 116.335938 202.78125 116.335938 201.707031 116.265625 200.648438 C 116.148438 198.859375 115.996094 197.078125 115.878906 195.292969 C 115.726562 193 115.53125 190.710938 115.378906 188.421875 C 115.210938 185.890625 114.910156 183.371094 114.734375 180.839844 C 114.605469 178.921875 114.441406 177.003906 114.265625 175.089844 C 114.023438 172.484375 113.914062 169.871094 113.683594 167.261719 C 113.519531 165.375 113.441406 163.476562 113.304688 161.585938 C 113.179688 159.882812 112.972656 158.183594 112.898438 156.476562 C 112.824219 154.796875 112.773438 153.105469 112.859375 151.421875 C 112.886719 150.878906 112.949219 150.847656 113.480469 150.804688 C 115.664062 150.632812 117.847656 150.496094 120.027344 150.277344 C 121.992188 150.078125 123.945312 149.78125 125.902344 149.542969 C 126.671875 149.449219 127.445312 149.40625 128.21875 149.335938 C 129.359375 149.230469 130.503906 149.136719 131.644531 149.007812 C 132.246094 148.941406 132.324219 148.808594 132.246094 148.21875 C 132.039062 146.671875 132.078125 145.125 132.328125 143.585938 C 132.554688 142.1875 132.851562 140.808594 133.394531 139.484375 C 134.539062 136.683594 136.636719 135.019531 139.558594 134.410156 C 142.230469 133.855469 144.496094 134.808594 146.519531 136.5 C 148.828125 138.429688 149.84375 140.957031 149.953125 143.902344 C 149.984375 144.757812 149.96875 145.613281 149.984375 146.472656 C 149.996094 147.089844 150.050781 147.140625 150.625 147.046875 C 152.367188 146.769531 154.128906 146.664062 155.875 146.433594 C 157.992188 146.152344 160.125 146.039062 162.253906 145.851562 C 163.34375 145.757812 164.441406 145.757812 165.535156 145.675781 C 166.28125 145.621094 167.019531 145.488281 167.769531 145.496094 C 168.660156 145.503906 168.910156 145.738281 168.921875 146.636719 C 168.933594 147.628906 168.925781 148.621094 168.925781 149.609375 Z M 193.324219 262.152344 C 195.484375 262.003906 197.65625 262.152344 199.820312 261.984375 C 201.070312 261.882812 202.332031 261.878906 203.585938 261.84375 C 206.125 261.773438 208.648438 261.476562 211.191406 261.433594 C 212.121094 261.414062 213.0625 261.367188 213.992188 261.273438 C 215.375 261.132812 216.753906 260.984375 218.144531 260.984375 C 218.761719 260.988281 219.390625 261.050781 219.992188 260.949219 C 222.109375 260.59375 224.257812 260.746094 226.386719 260.53125 C 227.191406 260.445312 227.367188 260.335938 227.378906 259.511719 C 227.421875 256.996094 227.476562 254.480469 227.496094 251.964844 C 227.546875 246.027344 227.667969 240.082031 227.414062 234.140625 C 227.328125 232.113281 227.171875 230.082031 227.203125 228.046875 C 227.207031 227.996094 227.199219 227.941406 227.199219 227.886719 C 227.050781 225.515625 226.902344 223.140625 226.757812 220.769531 C 226.6875 219.621094 226.679688 218.46875 226.550781 217.328125 C 226.28125 214.988281 226.28125 212.632812 226.144531 210.289062 C 226.035156 208.394531 226.101562 206.488281 226.089844 204.585938 C 226.089844 204.398438 226.089844 204.210938 226.09375 204.023438 C 226.097656 203.757812 225.976562 203.628906 225.707031 203.636719 C 225.332031 203.652344 224.949219 203.621094 224.585938 203.683594 C 223.445312 203.886719 222.292969 203.828125 221.148438 203.921875 C 219.3125 204.078125 217.460938 204.078125 215.617188 204.144531 C 215.539062 204.148438 215.457031 204.148438 215.378906 204.15625 C 213.191406 204.339844 211.007812 204.488281 208.8125 204.453125 C 208.652344 204.449219 208.488281 204.464844 208.332031 204.449219 C 207.957031 204.417969 207.820312 204.582031 207.789062 204.953125 C 207.695312 206.074219 207.429688 207.167969 207.128906 208.25 C 206.292969 211.289062 204.320312 213.222656 201.320312 214.125 C 200.367188 214.414062 199.394531 214.523438 198.394531 214.308594 C 196.179688 213.828125 194.644531 212.433594 193.457031 210.609375 C 192.410156 208.996094 191.8125 207.199219 191.460938 205.3125 C 191.292969 204.417969 191.285156 204.394531 190.375 204.433594 C 187.757812 204.542969 185.140625 204.667969 182.523438 204.792969 C 182.363281 204.800781 182.207031 204.855469 182.046875 204.859375 C 180.742188 204.914062 179.433594 205.144531 178.128906 205.042969 C 177.300781 204.976562 176.472656 204.945312 175.644531 204.917969 C 174.820312 204.894531 174.796875 204.90625 174.847656 205.761719 C 174.949219 207.386719 175.046875 209.015625 175.136719 210.640625 C 175.25 212.695312 175.441406 214.746094 175.546875 216.800781 C 175.601562 217.832031 175.632812 218.878906 175.765625 219.914062 C 175.917969 221.105469 175.761719 222.320312 175.949219 223.515625 C 175.992188 223.789062 175.84375 223.90625 175.558594 223.828125 C 175.144531 223.714844 174.734375 223.597656 174.304688 223.574219 C 171.976562 223.449219 169.78125 223.886719 167.769531 225.105469 C 166 226.175781 164.457031 227.453125 163.640625 229.441406 C 163.140625 230.664062 162.949219 231.902344 163.261719 233.203125 C 163.929688 235.976562 165.679688 237.804688 168.273438 238.835938 C 170.023438 239.53125 171.847656 239.878906 173.761719 239.664062 C 174.507812 239.582031 175.25 239.53125 175.972656 239.328125 C 176.292969 239.242188 176.484375 239.328125 176.5 239.703125 C 176.515625 240.132812 176.601562 240.554688 176.597656 240.980469 C 176.578125 242.480469 176.75 243.972656 176.828125 245.46875 C 176.925781 247.226562 177.113281 248.980469 177.28125 250.734375 C 177.40625 252.0625 177.578125 253.386719 177.707031 254.714844 C 177.875 256.441406 178.144531 258.15625 178.253906 259.890625 C 178.296875 260.582031 178.363281 261.273438 178.523438 261.953125 C 178.617188 262.332031 178.8125 262.453125 179.210938 262.445312 C 180.867188 262.421875 182.527344 262.4375 183.792969 262.4375 C 187.238281 262.488281 190.28125 262.355469 193.324219 262.152344 Z M 193.324219 262.152344 " fill-opacity="1" fill-rule="nonzero"/></g><g clip-path="url(#ca0fb9231b)"><path fill="#139ba8" d="M 198.601562 163.667969 C 197.832031 162.964844 197.273438 162.175781 196.699219 161.414062 C 194.859375 158.980469 192.890625 156.648438 191.160156 154.136719 C 189.65625 151.957031 188.164062 149.769531 186.792969 147.503906 C 186.628906 147.230469 186.472656 146.945312 186.359375 146.648438 C 186.265625 146.398438 185.96875 146.222656 186.015625 145.945312 C 186.066406 145.644531 186.367188 145.488281 186.566406 145.277344 C 188.425781 143.269531 190.5625 141.566406 192.632812 139.789062 C 193.628906 138.9375 194.605469 138.0625 195.585938 137.195312 C 197.027344 135.917969 198.464844 134.640625 199.910156 133.367188 C 200.347656 132.984375 200.417969 132.996094 200.796875 133.472656 C 201.773438 134.691406 202.863281 135.808594 204.179688 136.644531 C 206.964844 138.414062 209.972656 138.761719 213.085938 137.675781 C 215.3125 136.902344 216.484375 135.191406 216.957031 132.941406 C 217.164062 131.949219 217.101562 130.984375 216.859375 130.007812 C 216.179688 127.238281 214.792969 124.925781 212.511719 123.175781 C 212.050781 122.820312 212.054688 122.789062 212.5 122.425781 C 215.277344 120.160156 218.054688 117.898438 220.828125 115.628906 C 221.574219 115.019531 222.324219 114.414062 223.03125 113.761719 C 223.570312 113.257812 224.246094 113 224.859375 112.632812 C 225.09375 112.488281 225.265625 112.605469 225.433594 112.753906 C 226.273438 113.5 227.191406 114.152344 227.980469 114.957031 C 230.027344 117.039062 232.125 119.066406 234.136719 121.179688 C 235.9375 123.082031 237.648438 125.070312 239.402344 127.015625 C 240.496094 128.226562 241.574219 129.453125 242.691406 130.640625 C 245.855469 133.988281 248.800781 137.519531 251.648438 141.132812 C 254.179688 144.347656 256.644531 147.609375 259.242188 150.773438 C 260.210938 151.949219 261.058594 153.21875 261.953125 154.453125 C 262.214844 154.820312 262.171875 155.097656 261.839844 155.441406 C 259.542969 157.796875 257.191406 160.097656 254.652344 162.203125 C 252.882812 163.671875 251.140625 165.167969 249.390625 166.664062 C 248.917969 167.066406 248.816406 167.085938 249.300781 167.660156 C 250.984375 169.660156 251.832031 172.039062 252.296875 174.570312 C 252.484375 175.574219 252.488281 176.578125 252.339844 177.597656 C 252.023438 179.808594 249.796875 182.230469 247.121094 182.765625 C 244.734375 183.242188 242.609375 182.699219 240.621094 181.429688 C 239.21875 180.53125 237.960938 179.453125 236.945312 178.117188 C 236.617188 177.6875 236.535156 177.675781 236.105469 178.015625 C 235.203125 178.730469 234.320312 179.46875 233.425781 180.1875 C 231.691406 181.574219 229.929688 182.921875 228.230469 184.351562 C 226.328125 185.953125 224.402344 187.527344 222.59375 189.234375 C 222.273438 189.535156 221.933594 189.78125 221.53125 189.9375 C 221.234375 190.050781 220.941406 190.03125 220.722656 189.769531 C 219.914062 188.804688 218.941406 188.007812 218.105469 187.066406 C 215.53125 184.167969 212.863281 181.351562 210.382812 178.367188 C 209.988281 177.894531 209.988281 177.890625 210.488281 177.539062 C 212.195312 176.34375 213.640625 174.914062 214.730469 173.113281 C 216.855469 169.59375 216.429688 166.03125 214.132812 162.832031 C 212.191406 160.125 209.472656 159.078125 206.238281 159.335938 C 204.160156 159.503906 202.324219 160.363281 200.691406 161.65625 C 199.957031 162.238281 199.277344 162.878906 198.601562 163.667969 Z M 198.601562 163.667969 " fill-opacity="1" fill-rule="nonzero"/></g><g clip-path="url(#156b651e3a)"><path fill="#ffbc77" d="M 118.300781 255 C 118.300781 253.632812 118.382812 252.261719 118.277344 250.902344 C 118.152344 249.273438 118.253906 247.640625 118.105469 246.023438 C 117.980469 244.660156 118.09375 243.296875 117.964844 241.941406 C 117.707031 239.191406 117.96875 236.429688 117.789062 233.6875 C 117.640625 231.46875 117.808594 229.246094 117.628906 227.039062 C 117.476562 225.167969 117.628906 223.292969 117.472656 221.433594 C 117.351562 220.042969 117.449219 218.652344 117.308594 217.273438 C 117.203125 216.230469 117.296875 215.183594 117.148438 214.160156 C 116.992188 213.066406 117.085938 211.972656 116.960938 210.886719 C 116.914062 210.5 116.972656 210.089844 117.035156 209.703125 C 117.09375 209.34375 117.417969 209.273438 117.71875 209.273438 C 118.546875 209.277344 119.367188 209.234375 120.191406 209.117188 C 121.347656 208.945312 122.511719 208.820312 123.671875 208.683594 C 124.835938 208.546875 126 208.421875 127.164062 208.28125 C 128.300781 208.140625 129.449219 208.117188 130.585938 208.035156 C 132.097656 207.929688 133.632812 207.855469 135.148438 208.101562 C 135.226562 208.113281 135.304688 208.125 135.386719 208.128906 C 135.914062 208.160156 136.007812 208.054688 135.917969 207.546875 C 135.652344 206.101562 135.453125 204.644531 135.515625 203.179688 C 135.570312 201.796875 135.699219 200.410156 136.042969 199.066406 C 136.457031 197.441406 137.492188 196.285156 138.992188 195.566406 C 140.058594 195.054688 141.175781 194.734375 142.390625 194.792969 C 143.878906 194.863281 145.082031 195.480469 146.003906 196.597656 C 147.449219 198.351562 148.25 200.386719 148.523438 202.644531 C 148.648438 203.648438 148.816406 204.640625 148.851562 205.660156 C 148.875 206.503906 149.089844 206.613281 149.902344 206.480469 C 151.136719 206.277344 152.382812 206.175781 153.625 206.042969 C 154.605469 205.9375 155.59375 205.957031 156.566406 205.765625 C 156.796875 205.722656 157.046875 205.730469 157.285156 205.738281 C 159.71875 205.816406 162.148438 205.613281 164.574219 205.515625 C 166.035156 205.457031 167.511719 205.570312 168.96875 205.316406 C 169.199219 205.277344 169.328125 205.410156 169.363281 205.613281 C 169.394531 205.796875 169.386719 205.988281 169.386719 206.175781 C 169.390625 207.511719 169.351562 208.851562 169.414062 210.1875 C 169.460938 211.222656 169.578125 212.257812 169.667969 213.289062 C 169.777344 214.617188 169.953125 215.945312 169.890625 217.285156 C 169.875 217.613281 169.730469 217.742188 169.449219 217.847656 C 168.175781 218.339844 166.914062 218.863281 165.730469 219.539062 C 164.167969 220.4375 162.808594 221.585938 161.648438 222.976562 C 160.804688 223.988281 160.085938 225.070312 159.53125 226.265625 C 158.480469 228.523438 158.054688 230.910156 158.335938 233.371094 C 158.699219 236.539062 160.246094 239.066406 162.691406 241.125 C 164.832031 242.929688 167.359375 243.757812 169.980469 244.441406 C 170.082031 244.46875 170.191406 244.480469 170.292969 244.503906 C 171.453125 244.785156 171.457031 244.785156 171.617188 245.960938 C 171.648438 246.199219 171.644531 246.441406 171.636719 246.683594 C 171.546875 248.742188 171.726562 250.796875 171.832031 252.847656 C 171.929688 254.683594 172.0625 256.519531 172.160156 258.355469 C 172.203125 259.171875 172.203125 260.007812 172.40625 260.816406 C 172.457031 261.019531 172.433594 261.242188 172.449219 261.453125 C 172.46875 261.777344 172.351562 261.96875 171.996094 261.953125 C 171.917969 261.949219 171.835938 261.953125 171.757812 261.957031 C 168.070312 262.152344 164.378906 262.132812 160.691406 262.113281 C 159.191406 262.109375 157.707031 262.398438 156.210938 262.269531 C 154.074219 262.089844 151.929688 262.234375 149.804688 262.082031 C 148.117188 261.960938 146.4375 261.972656 144.757812 261.972656 C 142.59375 261.976562 140.433594 261.796875 138.269531 261.753906 C 137.074219 261.730469 135.859375 261.757812 134.675781 261.609375 C 132.992188 261.402344 131.308594 261.472656 129.628906 261.488281 C 127.464844 261.511719 125.304688 261.320312 123.144531 261.273438 C 122.027344 261.25 120.90625 261.195312 119.785156 261.152344 C 118.835938 261.113281 118.554688 260.882812 118.371094 259.972656 C 118.320312 259.710938 118.316406 259.441406 118.316406 259.175781 C 118.308594 257.78125 118.3125 256.390625 118.3125 255 C 118.308594 255 118.304688 255 118.300781 255 Z M 118.300781 255 " fill-opacity="1" fill-rule="nonzero"/></g></svg>