<?xml version="1.0" encoding="utf-8"?><!-- Uploaded to: SVG Repo, www.svgrepo.com, Generator: SVG Repo Mixer Tools -->
<svg width="800px" height="800px" viewBox="0 0 64 64" fill="none" xmlns="http://www.w3.org/2000/svg">
<path fill-rule="evenodd" clip-rule="evenodd" d="M27.2272 27.5333L29.8363 26.2578C31.2162 24.4322 32.1695 22.3314 32.6211 20.1055C33.2483 16.7292 31.3416 15.2036 31.7932 14.6784C33.3738 12.8027 36.0833 14.9535 37.0367 17.0293C37.4381 18.705 37.4381 20.4306 37.0367 22.1063L44.8893 18.9801C47.097 19.6553 46.1437 22.1313 46.1437 22.1313C46.6454 22.2063 47.097 22.4564 47.3981 22.8315C47.7242 23.2067 47.8999 23.7069 47.8748 24.1821C47.8497 24.5322 47.7493 24.8573 47.5988 25.1574C47.4483 25.4575 47.2225 25.7326 46.9465 25.9327C46.9465 25.9327 49.3801 27.7084 47.0719 29.4841C48.0504 30.4845 48.6023 31.4598 47.7995 32.7103C41.3769 35.3113 38.6423 37.312 35.8073 36.5618L31.8936 38.2874L27.2272 27.5333Z" fill="white"/>
<path fill-rule="evenodd" clip-rule="evenodd" d="M28.9834 25.1825L25.4961 26.8831L31.1409 40.0381L35.9077 37.9623C37.2123 38.1624 38.567 38.0374 39.7964 37.5622C41.8285 36.8869 44.3875 35.5364 48.2762 33.9608L48.6776 33.8108L48.9034 33.4356C49.355 32.7854 49.5557 31.9851 49.4553 31.1848C49.3801 30.6095 49.1543 30.0343 48.803 29.5591C49.1292 29.109 49.3048 28.5838 49.355 28.0336C49.3801 27.3083 49.1794 26.608 48.7779 26.0078C48.7278 25.9578 48.7027 25.9078 48.6776 25.8577C48.9786 25.3575 49.1543 24.8073 49.1794 24.2321C49.2044 23.6319 49.0539 23.0567 48.7779 22.5315C48.502 22.0063 48.0755 21.5811 47.5737 21.256C47.6991 20.4807 47.5235 19.6554 47.097 19.0051C46.6705 18.3299 45.9932 17.8547 45.2154 17.6546L44.7638 17.5046L38.5921 19.9555C38.7176 18.78 38.5921 17.5796 38.2158 16.4542C37.4883 14.7785 36.1335 13.453 34.4526 12.7778C33.8003 12.5277 33.0978 12.4776 32.4204 12.6527C31.7431 12.8278 31.1409 13.2279 30.7144 13.7531C30.5137 13.9782 30.3883 14.2783 30.3381 14.5534C30.2879 14.8285 30.313 15.1537 30.4134 15.4288C31.166 16.7293 31.4671 18.2298 31.2413 19.7054C30.8399 21.7062 30.0621 23.5319 28.9834 25.1825ZM27.2272 27.5334L29.8364 26.2579C31.2162 24.4572 32.1696 22.3314 32.5961 20.1055C33.2233 16.7293 31.3166 15.2037 31.7681 14.6785C33.3487 12.8028 36.0582 14.9536 37.0116 17.0294C37.413 18.705 37.413 20.4307 37.0116 22.1063L44.8642 18.9801C47.0719 19.6554 46.1186 22.1313 46.1186 22.1313C46.6204 22.2063 47.0719 22.4564 47.373 22.8316C47.6992 23.2067 47.8748 23.7069 47.8497 24.1821C47.8246 24.5322 47.7242 24.8574 47.5486 25.1575C47.3981 25.4576 47.1723 25.7327 46.8963 25.9328C46.8963 25.9328 49.3299 27.7084 47.0218 29.4841C48.0253 30.4845 48.5521 31.4599 47.7744 32.7103C41.3518 35.3113 38.6172 37.3121 35.7572 36.5618L31.8434 38.2875L27.2272 27.5334Z" fill="#2A2941"/>
<path fill-rule="evenodd" clip-rule="evenodd" d="M41.6278 24.9324L47.5737 22.3314L47.0469 21.106L41.0759 23.7069L41.6278 24.9324Z" fill="#2A2941"/>
<path fill-rule="evenodd" clip-rule="evenodd" d="M43.3087 28.6089L48.5522 26.358L48.0253 25.1326L42.7568 27.3834L43.3087 28.6089Z" fill="#2A2941"/>
<path fill-rule="evenodd" clip-rule="evenodd" d="M45.0147 30.8346L47.097 29.9092L47.8748 29.6091" fill="#FAA2A2"/>
<path fill-rule="evenodd" clip-rule="evenodd" d="M44.6635 31.7099L47.3479 30.5345L48.778 30.0093L48.3013 28.7588L46.8713 29.309L44.1617 30.4844L44.6635 31.7099Z" fill="#2A2941"/>
<path fill-rule="evenodd" clip-rule="evenodd" d="M26.9261 25.8328L24.066 27.0582L29.9116 40.6634L32.7716 39.4379L26.9261 25.8328Z" fill="#31CEA8"/>
<path fill-rule="evenodd" clip-rule="evenodd" d="M33.8505 39.8881L27.3526 24.7573L23.0626 26.608L29.5604 41.7388L33.8505 39.8881ZM26.9261 25.8327L24.0661 27.0582L29.9116 40.6634L32.7717 39.4379L26.9261 25.8327Z" fill="#2A2941"/>
<path fill-rule="evenodd" clip-rule="evenodd" d="M21.758 33.1355C23.3385 32.5102 25.0696 32.3852 26.7254 32.7603C28.3813 33.1105 29.8866 33.9608 31.0657 35.1863C32.2448 36.4117 33.0226 37.9373 33.3487 39.5879C33.6498 41.2386 33.4491 42.9642 32.7968 44.5148C32.1194 46.0654 31.0155 47.3909 29.5855 48.3163C28.1555 49.2416 26.4996 49.7168 24.8187 49.6918C23.1127 49.6668 21.482 49.1666 20.0771 48.2162C18.6721 47.2658 17.5933 45.9153 16.941 44.3647C16.5145 43.3143 16.2888 42.1889 16.3138 41.0385C16.3389 39.888 16.5647 38.7876 17.0163 37.7372C17.4679 36.6868 18.1202 35.7615 18.9481 34.9612C19.7258 34.1859 20.7043 33.5606 21.758 33.1355Z" fill="#A694FE"/>
<path fill-rule="evenodd" clip-rule="evenodd" d="M21.0053 31.2597C19.0735 32.085 17.4428 33.4605 16.2887 35.1862C15.1347 36.9369 14.5325 38.9876 14.5576 41.0634C14.5827 43.1392 15.2099 45.19 16.3891 46.9156C17.5682 48.6413 19.224 49.9918 21.1558 50.7671C23.0876 51.5674 25.2201 51.7675 27.2774 51.3423C29.3346 50.9422 31.2162 49.9168 32.6964 48.4412C34.1766 46.9657 35.1801 45.09 35.6066 43.0392C36.008 40.9884 35.8073 38.8626 35.0296 36.9369C33.9257 34.3359 31.8434 32.2601 29.2091 31.2097C26.5749 30.1593 23.6145 30.1843 21.0053 31.2597ZM21.758 33.1354C23.3385 32.5102 25.0696 32.3851 26.7254 32.7603C28.3812 33.1354 29.8865 33.9607 31.0657 35.1862C32.2448 36.4117 33.0226 37.9372 33.3487 39.5879C33.6498 41.2385 33.4491 42.9641 32.7968 44.5147C32.1194 46.0653 31.0155 47.3908 29.5855 48.3162C28.1554 49.2415 26.4996 49.7167 24.8187 49.6917C23.1127 49.6667 21.482 49.1665 20.077 48.2161C18.6721 47.2658 17.5933 45.9153 16.941 44.3647C16.5145 43.3143 16.2887 42.1888 16.3138 41.0384C16.3138 39.913 16.5647 38.7876 17.0163 37.7372C17.4679 36.6868 18.1202 35.7614 18.9481 34.9611C19.7258 34.1858 20.7042 33.5606 21.758 33.1354Z" fill="#2A2941"/>
<path fill-rule="evenodd" clip-rule="evenodd" d="M24.5678 40.8885L21.5573 42.164L21.9085 42.9893L25.7721 41.3887L24.0912 37.1621L23.2382 37.5122L24.5678 40.8885Z" fill="white"/>
<path fill-rule="evenodd" clip-rule="evenodd" d="M23.2381 35.5113L21.9586 32.4102L21.206 32.7353L22.4604 35.8115L23.2381 35.5113Z" fill="#2A2941"/>
<path fill-rule="evenodd" clip-rule="evenodd" d="M18.371 38.1625L16.4894 37.3872L16.1633 38.1375L18.0449 38.9128L18.371 38.1625Z" fill="#2A2941"/>
<path fill-rule="evenodd" clip-rule="evenodd" d="M28.4816 34.7611L29.2342 32.8854L28.4816 32.5603L27.7289 34.436L28.4816 34.7611Z" fill="#2A2941"/>
<path fill-rule="evenodd" clip-rule="evenodd" d="M21.7329 47.3159L20.8799 49.1666L21.6074 49.5168L22.4604 47.666L21.7329 47.3159Z" fill="#2A2941"/>
<path fill-rule="evenodd" clip-rule="evenodd" d="M31.4169 43.9645L33.2233 44.9149L33.5996 44.1896L31.7933 43.2393L31.4169 43.9645Z" fill="#2A2941"/>
<path fill-rule="evenodd" clip-rule="evenodd" d="M19.9014 42.8892L16.4644 44.4147L16.7905 45.165L20.2527 43.6645L19.9014 42.8892Z" fill="#2A2941"/>
<path fill-rule="evenodd" clip-rule="evenodd" d="M33.6497 37.3372L30.1625 38.7627L30.4886 39.513L33.9759 38.0874L33.6497 37.3372Z" fill="#2A2941"/>
<path fill-rule="evenodd" clip-rule="evenodd" d="M28.9332 49.1916L27.6537 46.1155L26.9011 46.4156L28.1555 49.5168L28.9332 49.1916Z" fill="#2A2941"/>
<path fill-rule="evenodd" clip-rule="evenodd" d="M23.4389 21.8062C22.8618 21.231 22.4604 20.5308 22.2346 19.7555C22.335 19.5054 22.5106 19.3053 22.7615 19.1802C23.0124 19.0802 23.2883 19.0552 23.5392 19.1552C24.0159 19.8055 24.3169 20.5808 24.3922 21.3811C24.3922 21.7312 23.7399 22.0063 23.4389 21.8062Z" fill="#4C5EFD"/>
<path fill-rule="evenodd" clip-rule="evenodd" d="M22.9622 22.4564C23.1629 22.6064 23.4138 22.6815 23.6647 22.6815C23.9155 22.7065 24.1664 22.6565 24.3922 22.5314C24.618 22.4314 24.8187 22.2813 24.9693 22.0812C25.1198 21.8812 25.2201 21.6561 25.2452 21.406C25.195 20.7808 25.0445 20.1805 24.7936 19.6053C24.6431 19.1801 24.3922 18.805 24.0661 18.5049C23.8152 18.3548 23.5643 18.2798 23.2633 18.2548C22.9873 18.2298 22.7113 18.3048 22.4604 18.4299C22.2096 18.5299 21.9587 18.705 21.8081 18.93C21.6325 19.1551 21.5322 19.4052 21.482 19.7053C21.482 20.0555 21.5823 20.3806 21.7329 20.6807C22.0339 21.331 22.4604 21.9312 22.9873 22.4564H22.9622ZM23.4389 21.7811C22.8618 21.2059 22.4604 20.5056 22.2346 19.7304C22.335 19.4803 22.5106 19.2802 22.7615 19.1551C23.0124 19.0551 23.2883 19.0301 23.5392 19.1301C24.0159 19.7804 24.317 20.5557 24.3922 21.356C24.3922 21.7061 23.7399 22.0062 23.4389 21.7811Z" fill="#2A2941"/>
<path fill-rule="evenodd" clip-rule="evenodd" d="M19.8763 24.9823C19.0986 24.7822 18.3711 24.3821 17.794 23.8319C17.5682 23.4567 18.1453 22.6064 18.6219 22.6564C19.3495 22.9565 20.0018 23.4567 20.4785 24.082C20.6541 24.4571 20.2276 25.0323 19.8763 24.9823Z" fill="#4C5EFD"/>
<path fill-rule="evenodd" clip-rule="evenodd" d="M19.776 25.7577C20.0268 25.7577 20.2526 25.7076 20.4784 25.6076C20.7042 25.5076 20.8798 25.3325 21.0304 25.1324C21.1809 24.9323 21.2812 24.6822 21.3063 24.4322C21.3314 24.1821 21.3063 23.932 21.206 23.7069C20.8297 23.2067 20.4032 22.7565 19.8763 22.3814C19.5251 22.1063 19.1237 21.9062 18.6972 21.8062C18.4212 21.8062 18.1452 21.8812 17.8943 22.0062C17.6435 22.1313 17.4428 22.3314 17.2671 22.5814C17.0915 22.8065 16.9912 23.0816 16.9661 23.3567C16.941 23.6318 16.9661 23.932 17.0664 24.1821C17.2421 24.4572 17.4929 24.7073 17.794 24.8823C18.3961 25.2825 19.0735 25.5826 19.776 25.7577ZM19.8763 24.9323C19.0986 24.7323 18.371 24.3321 17.794 23.7819C17.5682 23.4068 18.1452 22.5564 18.6219 22.6065C19.3495 22.9066 20.0018 23.4068 20.4784 24.032C20.654 24.4572 20.2275 25.0324 19.8763 24.9824V24.9323Z" fill="#2A2941"/>
<path fill-rule="evenodd" clip-rule="evenodd" d="M18.4714 29.309C17.7187 29.5591 16.8908 29.6341 16.1131 29.4841C15.7117 29.284 15.7368 28.2586 16.1131 28.0585C16.9159 27.9335 17.7187 27.9835 18.4965 28.2586C18.5717 28.3336 18.6219 28.4087 18.6721 28.5087C18.7222 28.6087 18.7222 28.7088 18.7222 28.8088C18.7222 28.9088 18.6972 29.0089 18.6721 29.1089C18.5968 29.1589 18.5466 29.259 18.4714 29.309Z" fill="#4C5EFD"/>
<path fill-rule="evenodd" clip-rule="evenodd" d="M18.7975 30.0343C18.9982 29.9093 19.1738 29.7342 19.2993 29.5091C19.4247 29.2841 19.5 29.059 19.5 28.8089C19.5 28.5588 19.4498 28.3087 19.3495 28.0836C19.224 27.8585 19.0735 27.6835 18.8477 27.5334C18.2707 27.3083 17.6435 27.1833 17.0163 27.1583C16.5647 27.1082 16.1382 27.1833 15.7117 27.3333C15.4859 27.4834 15.2852 27.7085 15.1346 27.9586C15.0092 28.2087 14.9339 28.4838 14.9339 28.7589C14.9089 29.034 14.9841 29.3091 15.1096 29.5592C15.235 29.8093 15.4357 30.0343 15.6615 30.1844C15.9626 30.3345 16.2887 30.3845 16.6399 30.3845C17.3675 30.3845 18.07 30.2594 18.7474 30.0343H18.7975ZM18.4714 29.2841C17.7187 29.5342 16.8908 29.6092 16.088 29.4591C15.8873 29.2591 15.7869 29.009 15.7869 28.7339C15.7869 28.4587 15.8873 28.2087 16.088 28.0086C16.8908 27.8835 17.7187 27.9335 18.4714 28.2087C18.5466 28.2837 18.5968 28.3587 18.647 28.4587C18.6972 28.5588 18.6972 28.6588 18.6972 28.7339C18.6972 28.8339 18.6721 28.9339 18.647 29.009C18.5968 29.134 18.5466 29.234 18.4714 29.2841Z" fill="#2A2941"/>
</svg>